<svg id="Слой_1" data-name="Слой 1" xmlns="http://www.w3.org/2000/svg" width="145" height="58.7" viewBox="0 0 145 58.7"><title>Монтажная область 1</title><path d="M38.4,8.2A28.1,28.1,0,0,0,.7,8.2l4.4,2.1a23.5,23.5,0,0,1,28.9,0l4.4-2.1Z" fill="#f77468"/><polygon points="34.5 35.4 39.1 39.7 39.1 9.9 34.5 12.1 34.5 35.4" fill="#fb9741"/><polygon points="0 39.5 8.1 47.5 11.3 44.4 4.5 37.7 4.5 12.1 0 9.9 0 39.5" fill="#4abe9b"/><polygon points="19.5 58.7 37.7 40.9 34.5 37.7 19.5 52.4 12.6 45.6 9.4 48.8 19.5 58.7" fill="#56a6de"/><path d="M89.5,47.5a5.1,5.1,0,0,1,0,.6,4.5,4.5,0,0,0,0,.6c0,1,0,2.1.1,3s0,.5,0,.8v.3c0,.1.1.2.5.2s.9-.2.9-.6-.1-1.2-.1-1.8,0-1.2-.1-1.8V47.5h0v-.2c0-.3,0-.9-.2-1a14.2,14.2,0,0,0-2.8-.1H85c-.1.1.1.5.2.6h.1a.9.9,0,0,1,0,.3v.8c0,.5-.1,1.1-.1,1.6s.1,1.6.1,2.5v.7a2.2,2.2,0,0,0,.1.5.6.6,0,0,0,.4.4h.4c.5-.1.7-.8.7-1v-.7c0-.5,0-1.1-.1-1.6a21.3,21.3,0,0,1,0-2.6v-.3h2.3c.3,0,.4,0,.4.3" fill="#4abe9b"/><path d="M89.3,48.8c0,1,0,2.1.1,3.1s0,.5,0,.8v.3c.1.3.5.3.7.3s1-.3,1-.8-.1-1.2-.1-1.7,0-1.2-.1-1.8V47.5h0v-.2a2,2,0,0,0-.2-1.1,9.3,9.3,0,0,0-2.9-.1H85l-.2.2c-.1.2.1.5.2.7h.1a.7.7,0,0,1,0,.3v.8c0,.5-.1,1.1-.1,1.6s.1,1.7.1,2.5v.7a2.4,2.4,0,0,0,.1.5.8.8,0,0,0,.5.5h.5c.7-.1.8-1,.8-1.2v-.7c0-.5,0-1.1-.1-1.6a21.2,21.2,0,0,1,0-2.6v-.3h2.4a4.9,4.9,0,0,1,0,.6,4.7,4.7,0,0,0,0,.6m-.2-1.4H86.8v.3a21.3,21.3,0,0,0,0,2.6c.1.8.1,1.6.1,2.4s-.2,1-.8,1.1h-.4a.7.7,0,0,1-.4-.4,2.3,2.3,0,0,1-.1-.5c-.1-1-.1-2.1-.1-3.1s.1-1.6.1-2.4a.8.8,0,0,0,0-.3c0-.1-.5-.8-.1-.9h1.3c1.4,0,4.1-.2,4.3.1s.2,1.1.2,1.3v1.5c.1,1.2,0,2.4.1,3.5s-.5.7-.9.7-.5,0-.6-.2v-.3c0-.3,0-.5,0-.8s-.1-2-.1-3.1.1-.7.1-1.2,0-.2-.3-.2" fill="#4abe9b"/><path d="M89.4,47.5c0,.5-.1.7-.1,1.2s0,2,.1,3.1,0,.5,0,.8v.3c.1.2.2.2.6.2s.9-.3.9-.7,0-2.4-.1-3.5V47.4c0-.3,0-1.1-.2-1.3s-2.9-.1-4.3-.1H85.1c-.5.1,0,.8.1.9a.8.8,0,0,1,0,.3c0,.8-.1,1.6-.1,2.4s.1,2.1.1,3.1a2.3,2.3,0,0,0,.1.5.7.7,0,0,0,.4.4h.4c.6-.1.8-.9.8-1.1s0-1.6-.1-2.4a21.3,21.3,0,0,1,0-2.6v-.3h2.2c.3,0,.3,0,.3.2m-.3-.3H86.8v.3a21.2,21.2,0,0,0,0,2.6c0,.5.1,1.1.1,1.6v.7c0,.2-.2.9-.7,1h-.4a.6.6,0,0,1-.4-.4,2.2,2.2,0,0,1-.1-.5v-.7c0-.8-.1-1.6-.1-2.5s0-1.1.1-1.6v-.8a.9.9,0,0,0,0-.3h-.1c-.1-.2-.3-.5-.2-.6h2.8a14.3,14.3,0,0,1,2.8.1c.1.1.2.7.2,1v.2h0v1.4c.1.6.1,1.2.1,1.8s0,1.2.1,1.8-.5.6-.9.6-.5-.1-.5-.2v-.3c0-.3,0-.5,0-.8s-.1-2-.1-3a4.5,4.5,0,0,1,0-.6,5,5,0,0,0,0-.6c0-.3-.1-.3-.4-.3" fill="#4abe9b"/><path d="M124.2,46.4a2.7,2.7,0,0,0-1.3-.2h-1.9l-.7.2-.4.3h-.1a2.1,2.1,0,0,0-.6,1.1,7.4,7.4,0,0,0-.3,2.1,3.4,3.4,0,0,0,.3,1.5,2.9,2.9,0,0,0,1.3,1.4,3.8,3.8,0,0,0,2,.5h1l.6-.3a3.8,3.8,0,0,0,1-.9,4.6,4.6,0,0,0,1-2.8h0c0-.1,0-.1,0-.2a2.9,2.9,0,0,0-.8-1.9,2.7,2.7,0,0,0-1-.8m-.5,5.2a2.2,2.2,0,0,1-1.4,1H122l-.8-.2a1.7,1.7,0,0,1-.7-1.5h0a5.4,5.4,0,0,1,.1-1.8l.3-.9h0a3,3,0,0,1,1.4-1c1.2-.2,1.7,1,1.9,1.4a3.2,3.2,0,0,1-.6,3" fill="#4abe9b"/><path d="M122.4,47.3a3,3,0,0,0-1.4.9l-.3.9a5.4,5.4,0,0,0-.1,1.7,1.7,1.7,0,0,0,.7,1.5,1.7,1.7,0,0,0,2.3-.7,3.2,3.2,0,0,0,.6-3c-.2-.5-.8-1.5-1.8-1.3m1.2,4.2a2,2,0,0,1-1.3.9,1.1,1.1,0,0,1-.9-.2,1.6,1.6,0,0,1-.6-1.4h0a5.2,5.2,0,0,1,.1-1.7l.3-.9h0a3,3,0,0,1,1.3-.8c1-.2,1.6.9,1.7,1.3a3.1,3.1,0,0,1-.5,2.9" fill="#4abe9b"/><path d="M124.2,46.2a2.8,2.8,0,0,0-1.4-.2h-1.9l-.7.2-.4.3h-.1a2.3,2.3,0,0,0-.7,1.1,7.5,7.5,0,0,0-.3,2.1,3.5,3.5,0,0,0,.3,1.5,3.1,3.1,0,0,0,1.3,1.5,4,4,0,0,0,2,.6h0l1-.2.6-.3a3.9,3.9,0,0,0,1-.9,4.7,4.7,0,0,0,1-2.9h0c0-.1,0-.1,0-.2a3,3,0,0,0-.8-2,2.9,2.9,0,0,0-1.1-.8m1.8,3.1a4.6,4.6,0,0,1-1,2.9,3.9,3.9,0,0,1-1,.9l-.6.3-1,.2a3.9,3.9,0,0,1-2-.5,3,3,0,0,1-1.3-1.4,3.4,3.4,0,0,1-.3-1.5,7.3,7.3,0,0,1,.3-2.1,2.2,2.2,0,0,1,.6-1.1l.6-.5.7-.2h1.9a2.7,2.7,0,0,1,1.4.2,2.8,2.8,0,0,1,1,.8,3,3,0,0,1,.8,2c0,.1,0,.1,0,.2" fill="#4abe9b"/><path d="M124.2,46.3a2.7,2.7,0,0,0-1.4-.2h-1.9l-.7.2-.6.5a2.2,2.2,0,0,0-.6,1.1,7.4,7.4,0,0,0-.3,2.1,3.4,3.4,0,0,0,.3,1.5,3,3,0,0,0,1.3,1.4,3.9,3.9,0,0,0,2,.5l1-.2.6-.3a3.9,3.9,0,0,0,1-.9,4.6,4.6,0,0,0,1-2.9c0-.1,0-.1,0-.2a3,3,0,0,0-.8-2,2.8,2.8,0,0,0-1-.8m1.7,2.9h0a4.6,4.6,0,0,1-1,2.8,3.8,3.8,0,0,1-1,.9l-.6.3h-1a3.8,3.8,0,0,1-2-.5,2.9,2.9,0,0,1-1.3-1.4,3.4,3.4,0,0,1-.3-1.5,7.4,7.4,0,0,1,.3-2.1,2.1,2.1,0,0,1,.6-1.1h.1l.4-.3.7-.2h1.9a2.6,2.6,0,0,1,1.3.2,2.7,2.7,0,0,1,1,.8,2.9,2.9,0,0,1,.8,1.9c0,.1,0,.1,0,.2" fill="#4abe9b"/><path d="M122.4,47.2a3,3,0,0,0-1.4,1h0l-.3.9a5.4,5.4,0,0,0-.1,1.8h0a1.7,1.7,0,0,0,.7,1.5l.8.2h.3a2.2,2.2,0,0,0,1.4-1,3.2,3.2,0,0,0,.6-3c-.1-.4-.7-1.6-1.9-1.4m1.2,4.3a1.5,1.5,0,0,1-3-.7,5.4,5.4,0,0,1,.1-1.7l.3-.9a3,3,0,0,1,1.4-.9c1-.2,1.6.8,1.8,1.3a3.2,3.2,0,0,1-.6,3" fill="#4abe9b"/><path d="M73.8,51.8a2.1,2.1,0,0,0,.7,1.6h.6c.1,0,.3-.1.3-.2a2.2,2.2,0,0,0,.2-1c0-.8,0-2.5-.1-3.8s0-1.8,0-1.9v-.2l-.6-.4a.8.8,0,0,0-.6.2.6.6,0,0,0-.2.4v.2c0,.2,0,.5,0,.7s0,.4,0,.6,0,.2,0,.5h-.7l-1.9.2c-.2,0-.3,0-.3-.2s0-1.2,0-1.6V47a1.8,1.8,0,0,0,0-.4,1.3,1.3,0,0,0-.6-.5.6.6,0,0,0-.5.1,1.8,1.8,0,0,0-.5,1.4c0,.5,0,1,0,1.5v1.6c0,.3,0,.6,0,.9a3.7,3.7,0,0,0,.2,1.5,1.3,1.3,0,0,0,1.2.3c.4-.3.4-1.8.4-2.6s0-.4,0-.6.1-.2.3-.2h.1l2-.3h.4c.1.1.1.2.1.3v.5c0,.4,0,.8-.1,1.3" fill="#4abe9b"/><path d="M73.7,50.5c0,.4,0,.8-.1,1.3a2.3,2.3,0,0,0,.8,1.7h.8a.5.5,0,0,0,.4-.3,2.3,2.3,0,0,0,.2-1c0-.8,0-2.5-.1-3.8s0-1.8,0-1.8a.4.4,0,0,0-.1-.3,1.3,1.3,0,0,0-.8-.4,1,1,0,0,0-.8.2.8.8,0,0,0-.3.5v.2c0,.2,0,.5,0,.7s0,.4,0,.6,0,.2,0,.5h-.6l-1.9.2h-.2c0-.4,0-1.2,0-1.6V47c0-.3,0-.5,0-.5a1.4,1.4,0,0,0-.7-.6.8.8,0,0,0-.7.1,1.9,1.9,0,0,0-.6,1.5c0,.5,0,1,0,1.5v1.6c0,.3,0,.6,0,.9a3.8,3.8,0,0,0,.3,1.6,1.4,1.4,0,0,0,1.4.4c.5-.3.5-1.5.5-2.7s0-.4,0-.5h.3l2.1-.3h.3s0,.1,0,.2Zm-.3-.7-2.1.3c-.3,0-.3,0-.3.2s.1,2.8-.4,3.2a1.4,1.4,0,0,1-1.3-.3,3.7,3.7,0,0,1-.3-1.6c0-.3,0-.6,0-.9s.1-1.1.1-1.6,0-1,0-1.5.7-1.7,1.1-1.5a1.3,1.3,0,0,1,.6.5,2.3,2.3,0,0,1,0,.6c0,.4,0,1.2,0,1.6s0,.1.3.2l2.5-.3v-.2c0-.6,0-.5,0-1.1s0-.6,0-.8a.9.9,0,0,1,1-.6c.3,0,.8.4.8.6s.1,4.4.1,5.7a2.2,2.2,0,0,1-.2,1c-.1.4-.9.4-1,.3a2.2,2.2,0,0,1-.7-1.7c0-.6.1-1.2.1-1.7s0-.3-.4-.3" fill="#4abe9b"/><path d="M73.7,51.8a2.2,2.2,0,0,0,.7,1.7c.2.1,1,.1,1-.3a2.2,2.2,0,0,0,.2-1c0-1.3-.1-5.5-.1-5.7s-.4-.6-.8-.6a.9.9,0,0,0-1,.6c0,.2,0,.6,0,.8s0,.5,0,1.1v.2l-2.5.3c-.2,0-.3,0-.3-.2s0-1.2,0-1.6a2.3,2.3,0,0,0,0-.6,1.3,1.3,0,0,0-.6-.5c-.4-.1-1.1,0-1.1,1.5s0,1,0,1.5-.1,1.1-.1,1.6,0,.6,0,.9a3.7,3.7,0,0,0,.3,1.6,1.4,1.4,0,0,0,1.3.3c.6-.3.4-2.6.4-3.2s0-.1.3-.2l2.1-.3c.4-.1.4,0,.4.3s-.1,1.2-.1,1.7m.1-2.1h-.4l-2,.3h-.1c-.2,0-.3,0-.3.2s0,.3,0,.6,0,2.3-.4,2.6a1.3,1.3,0,0,1-1.2-.3,3.7,3.7,0,0,1-.2-1.5c0-.3,0-.6,0-.9V49.1c0-.5,0-1,0-1.5a1.8,1.8,0,0,1,.5-1.4.6.6,0,0,1,.5-.1,1.2,1.2,0,0,1,.6.5,1.8,1.8,0,0,1,0,.4v.2c0,.4,0,1.2,0,1.6s.1.2.3.2l1.9-.2h.7c0-.3,0-.4,0-.5s0-.2,0-.6,0-.4,0-.7v-.2a.6.6,0,0,1,.2-.4.8.8,0,0,1,.6-.2l.6.4v.2c0,.1,0,.7,0,1.9s.1,3.1.1,3.8a2.2,2.2,0,0,1-.2,1c0,.1-.2.2-.3.2h-.6a2.1,2.1,0,0,1-.7-1.6c0-.4,0-.8.1-1.3v-.5c0-.1,0-.2-.1-.3" fill="#4abe9b"/><path d="M52.8,49.4c0-.3,0-.4.5-.4l1.3-.2,1.5-.2h.4a.3.3,0,0,1,.1.2V50c0,.7,0,1.3.1,1.8v1h0a1.8,1.8,0,0,0,.2.9l.3.3c.2,0,.5-.2.6-.4h.1a3.2,3.2,0,0,0,.4-1.9c0-.4,0-1.3,0-1.7V48.4h0s.5-.3.5-.8-.4-.5-.6-.6h0q0-.5,0-.9c0-.2,0-.4,0-.5s0-.3,0-.5a.8.8,0,0,0-.3-.7.8.8,0,0,0-.7-.1c-.6.2-.6,1.2-.6,1.2s0,1.1,0,1.6-.1.3-.4.3l-2.9.6h-.5v-1c0-.5,0-1,0-1.4s0-.4,0-.5v-.3a.9.9,0,0,0-.3-.6h-.5a1.3,1.3,0,0,0-.9,1.1,2.2,2.2,0,0,1,0,.5h0v.4c0,.4-.1.8-.1,1.2s0,1.6-.1,2.6-.1,2.2-.1,3.1,0,.2,0,.3a2.6,2.6,0,0,0,.1,1,.7.7,0,0,0,.5.4,1,1,0,0,0,.7,0c.5-.3.7-1,.7-2.2s0-.9,0-1.4.1-1.1,0-1.5" fill="#4abe9b"/><path d="M52.9,50.9c0-.6.1-1.1,0-1.5s0-.2.3-.2l1.3-.2,1.5-.2h.3V50c0,.7,0,1.3.1,1.8v1h0a1.9,1.9,0,0,0,.2.9.6.6,0,0,0,.4.3c.3,0,.6-.3.8-.4h.1a3.3,3.3,0,0,0,.5-2c0-.4,0-1.4,0-1.7V48.5a1.2,1.2,0,0,0,.6-.9c0-.3-.5-.6-.6-.7s0-.6,0-.9,0-.4,0-.5,0-.3,0-.5a.9.9,0,0,0-.4-.8.9.9,0,0,0-.8-.1c-.7.2-.7,1.3-.7,1.4s0,1.1,0,1.6,0,.1-.2.1l-2.9.6h-.3v-1c0-.5,0-1,0-1.4s0-.4,0-.6v-.3a1.1,1.1,0,0,0-.4-.7.8.8,0,0,0-.6-.2,1.4,1.4,0,0,0-1,1.3,2,2,0,0,1,0,.4h0v.4c0,.4-.1.8-.1,1.2s0,1.6-.1,2.6-.1,2.2-.1,3.1,0,.2,0,.3a2.7,2.7,0,0,0,.1,1.1.9.9,0,0,0,.6.5h.9c.5-.3.8-1.1.8-2.3s0-.9,0-1.4m-.8,3.6a1,1,0,0,1-1.3-.4,3.6,3.6,0,0,1-.1-1.3c0-1.6.2-4,.2-5.7s.1-1.1.1-1.6a3,3,0,0,0,0-.6,1.3,1.3,0,0,1,.9-1.2.9.9,0,0,1,.9.8c0,.3,0,.6,0,.8s0,1.5,0,2.3v.3l3.3-.7c.2,0,.3,0,.3-.2s0-1,0-1.6,0-1.1.7-1.3a.8.8,0,0,1,1.1.9c0,.5,0,.6,0,1s0,.6,0,.9.6.3.6.6-.6.8-.6.8V50c0,.4,0,1.3,0,1.7a3.2,3.2,0,0,1-.5,1.9c-.2.2-.8.8-1.1.2a2,2,0,0,1-.2-1c0-.3,0-.7,0-1s-.1-2.2-.1-3,0-.2-.4-.2l-2.8.4c-.4,0-.4,0-.4.3s-.1,2.2-.1,2.9,0,1.8-.7,2.2" fill="#4abe9b"/><path d="M52.9,49.4c0-.3,0-.3.4-.3l2.8-.4c.3,0,.3,0,.4.2s.1,2.2.1,3,0,.7,0,1a2,2,0,0,0,.2,1c.4.7.9,0,1.1-.2a3.2,3.2,0,0,0,.5-1.9c0-.4,0-1.3,0-1.7V48.4s.6-.3.6-.8-.6-.6-.6-.6,0-.6,0-.9,0-.6,0-1a.8.8,0,0,0-1.1-.9c-.6.2-.7,1.1-.7,1.3s0,1,0,1.6,0,.2-.3.2l-3.3.7c0-.1,0-.2,0-.3s0-1.5,0-2.3,0-.6,0-.8a.9.9,0,0,0-.9-.8,1.3,1.3,0,0,0-.9,1.2,3,3,0,0,1,0,.6c0,.5-.1,1.1-.1,1.6s-.2,4-.2,5.7a3.6,3.6,0,0,0,.1,1.3,1,1,0,0,0,1.3.4c.7-.4.7-1.5.7-2.2s.1-2.2.1-2.9m-.2,2.9c0,1.2-.2,1.9-.7,2.2a1,1,0,0,1-.7,0,.7.7,0,0,1-.5-.4,2.6,2.6,0,0,1-.1-1c0-.1,0-.2,0-.3s0-2,.1-3.1.1-1.8.1-2.6,0-.8.1-1.2v-.4h0a2.2,2.2,0,0,0,0-.5,1.3,1.3,0,0,1,.9-1.1h.5a.9.9,0,0,1,.3.6v.3c0,.2,0,.4,0,.5s0,1,0,1.4v1h.5l2.9-.6c.3,0,.3-.1.4-.3s0-1,0-1.6,0-1,.6-1.2a.7.7,0,0,1,.7.1.8.8,0,0,1,.3.7c0,.2,0,.4,0,.5s0,.3,0,.5,0,.6,0,.9h0c.2.1.6.3.6.6s-.5.8-.5.8h0V50c0,.4,0,1.3,0,1.7a3.2,3.2,0,0,1-.4,1.9h-.1c-.1.1-.4.4-.6.4l-.3-.3a1.8,1.8,0,0,1-.2-.9h0v-1c0-.5,0-1.2-.1-1.8V48.8a.3.3,0,0,0-.1-.2H56l-1.5.2-1.3.2c-.4,0-.5.1-.5.4s0,1,0,1.5-.1,1,0,1.4" fill="#4abe9b"/><path d="M129,45a.7.7,0,0,0-.8-.7h0a.8.8,0,0,0-.8.8,6.6,6.6,0,0,0,0,.7c0,.2,0,.3,0,.5s0,1.7,0,2.2a2.2,2.2,0,0,1,0,.4,2.1,2.1,0,0,0,0,.4c0,.3,0,1,0,1.3s.9,1.1,1.1,1.1h0a.8.8,0,0,0,.1-.5,2.7,2.7,0,0,1,.1-.6h0c0-.2.4-4.4.4-4.8v-.6h0" fill="#4abe9b"/><path d="M129.2,45a.9.9,0,0,0-.9-.8h0a1,1,0,0,0-1,.9c0,.2,0,.5,0,.7s0,.3,0,.5,0,1.7,0,2.2a2,2,0,0,1,0,.4,2.3,2.3,0,0,0,0,.4c0,.3,0,1,0,1.3s1,1.2,1.2,1.3h.2a.9.9,0,0,0,.2-.6,2.6,2.6,0,0,1,.1-.6h0c0-.3.4-4.4.4-4.8V45h0m-.1.7c0,.4-.4,4.6-.4,4.8a3.1,3.1,0,0,0-.1.8c0,.2-.1.6-.3.5s-1.1-.6-1.1-1.2,0-1,0-1.3.1-.2.1-.8,0-1.7,0-2.2,0-.8,0-1.1a.9.9,0,0,1,1.8-.1,1.9,1.9,0,0,1,0,.3c0,.1,0,.3,0,.4" fill="#4abe9b"/><path d="M127.3,45c0,.4,0,.8,0,1.1s0,1.7,0,2.2,0,.2-.1.8,0,1,0,1.3.9,1.2,1.1,1.2.3-.4.3-.5a3.1,3.1,0,0,1,.1-.8c0-.2.4-4.4.4-4.8s0-.3,0-.4a1.9,1.9,0,0,0,0-.3.9.9,0,0,0-1.8.1m1.7.4v.2c0,.4-.4,4.6-.4,4.8h0a2.7,2.7,0,0,0-.1.6.8.8,0,0,1-.1.5h0c-.2,0-1.1-.6-1.1-1.1s0-1,0-1.3a2,2,0,0,1,0-.4,2.2,2.2,0,0,0,0-.4c0-.5,0-1.7,0-2.2s0-.3,0-.5a6.6,6.6,0,0,1,0-.7.8.8,0,0,1,.8-.8h0a.7.7,0,0,1,.8.7h0v.4" fill="#4abe9b"/><path d="M112.1,50a3.8,3.8,0,0,0,0,.5.8.8,0,0,0,.4.8l.2.2.5.2h.2c0-.2,0-.2.1-.2h0a3.6,3.6,0,0,0,.1-.6c0-.5.1-.9.4-.9h1.7c.3,0,.4.1.4.3v.5c0,.4,0,.8-.1,1.2a2,2,0,0,0,.6,1.6h.3a.8.8,0,0,0,.4-.3,2.4,2.4,0,0,0,.2-.9c0-1.4,0-2.6,0-3.8s0-.6-.1-.9v-.3c-.1-.7-.3-1.2-.7-1.2h0c-.3,0-.6.6-.6.7v.2c0,.1,0,.3,0,.4s0,.6,0,.8v.7h0v.2H114c-.2,0-.3,0-.3-.2s0-.8,0-1.2a2.3,2.3,0,0,0-.4-1.3H113a.7.7,0,0,0-.8.7c0,.2,0,.4,0,.5s0,.4,0,.5,0,1,0,1.5,0,.5-.1.7" fill="#4abe9b"/><path d="M112,46.6c0,.2,0,.4,0,.6s0,.3,0,.5,0,1,0,1.5,0,.5-.1.7a4,4,0,0,0,0,.5.9.9,0,0,0,.4.9l.2.2.6.3h.3v-.2a1.1,1.1,0,0,1,0-.1v-.2a3.7,3.7,0,0,0,.1-.6c0-.6.1-.7.2-.7h2a.5.5,0,0,1,0,.1v1.7a2.1,2.1,0,0,0,.6,1.7h.5a.9.9,0,0,0,.5-.4,2.6,2.6,0,0,0,.2-1c0-1.4,0-2.6,0-3.8s0-.6-.1-.9v-.3c-.1-.8-.4-1.3-.8-1.4h0c-.4,0-.8.6-.8.9v.2c0,.1,0,.3,0,.4s0,.6,0,.8v.7H116l-.8-.2h-1.3c0-.4,0-.8,0-1.2a2.5,2.5,0,0,0-.5-1.4l-.4-.2a.9.9,0,0,0-.9.8m.9-.7c.6,0,.8,1.3.8,1.5s0,.8,0,1.2,0,.1.2.2h1.2l.8.2h.2v-.2c0-.6,0-.9,0-1.5s0-.4,0-.6.3-.8.7-.8.7.5.8,1.3.1.8.1,1.3,0,2.6,0,3.8a2.5,2.5,0,0,1-.2,1c-.1.1-.5.6-.9.3a2,2,0,0,1-.6-1.6c0-.6,0-1.1.1-1.7s0-.2-.3-.3H114c-.2,0-.3.2-.3.8a3.7,3.7,0,0,1-.1.6c-.1.3-.1,0-.1.4s-.1.2-.3.2l-.5-.3c-.5-.5-.6-.5-.6-1s.1-.7.1-1.2,0-1,0-1.5,0-.7,0-1.1a.8.8,0,0,1,.9-.7" fill="#4abe9b"/><path d="M112.2,47.7q0,.8,0,1.5c0,.5-.1.9-.1,1.2s.1.6.6,1l.5.3c.2,0,.3,0,.3-.2s0,0,.1-.4a3.7,3.7,0,0,0,.1-.6c0-.6.1-.8.3-.8h1.7c.3,0,.3,0,.3.3s-.1,1.1-.1,1.7a2,2,0,0,0,.6,1.6c.4.3.8-.2.9-.3a2.5,2.5,0,0,0,.2-1c0-1.3,0-2.6,0-3.8s-.1-.8-.1-1.3-.4-1.3-.8-1.3-.7.6-.7.8,0,.4,0,.6,0,.9,0,1.5V49h-.2l-.8-.2H114c-.2,0-.2,0-.2-.2s0-.8,0-1.2-.1-1.5-.8-1.5a.8.8,0,0,0-.9.7c0,.4,0,.7,0,1.1m.1-.5c0-.2,0-.4,0-.5a.7.7,0,0,1,.8-.7h.3a2.3,2.3,0,0,1,.4,1.3c0,.4,0,.8,0,1.2s.1.2.3.2h2.2V49h0v-.7c0-.3,0-.5,0-.8s0-.3,0-.4v-.2c0-.1.3-.7.6-.7h0c.4,0,.6.5.7,1.2v.3c0,.3.1.6.1.9s0,2.5,0,3.8a2.4,2.4,0,0,1-.2.9.8.8,0,0,1-.4.3h-.3a2,2,0,0,1-.6-1.6c0-.4,0-.8.1-1.2v-.5c0-.3,0-.3-.4-.3H114c-.3,0-.4.3-.4.9a3.6,3.6,0,0,1-.1.6h0c-.1,0-.1.1-.1.2h-.2l-.5-.2-.2-.2a.8.8,0,0,1-.4-.8,3.9,3.9,0,0,1,0-.5c0-.2.1-.4.1-.7s0-1,0-1.5,0-.4,0-.5" fill="#4abe9b"/><path d="M93.5,53.5c.2,0,.5,0,.5-.2h0v-.4c0-.4.1-.8.1-1.3s0-.4,0-.6v-.4c0-.2.1-.2.3-.2l1.9-.3a3.8,3.8,0,0,0,1.4-.6.9.9,0,0,0,.4-1A2.2,2.2,0,0,0,97.1,47l-.8-.4L94.5,46a2.7,2.7,0,0,0-1.7.2.5.5,0,0,0-.2.4c0,.4,0,.8,0,1.2s0,.7,0,1-.3.4-.5.5h.1c.2.2.4.3.4.6v2.8a2.6,2.6,0,0,0,1,.8m.4-6.3h0c0-.1,0-.2.2-.2a5.9,5.9,0,0,1,2.4.3.4.4,0,0,1,.3.3.8.8,0,0,1-.4.7l-.6.3H94V47.3h0" fill="#4abe9b"/><path d="M94.2,48.9h.2l1.4-.3.6-.3a.7.7,0,0,0,.3-.7.3.3,0,0,0-.2-.3,5.8,5.8,0,0,0-2.3-.2H94v1.6m0-1.7h.6a5.3,5.3,0,0,1,1.8.3l.2.2c0,.2-.1.4-.3.6l-.6.3H94.2V47.3a.4.4,0,0,1,0,0" fill="#4abe9b"/><path d="M92.3,51.4v1.2a.5.5,0,0,0,.1.3,2.6,2.6,0,0,0,1.2.9h.2a.5.5,0,0,0,.5-.3h0V51.6c0-.2,0-.4,0-.7v-.4h.1l1.9-.3a4,4,0,0,0,1.5-.7,1.1,1.1,0,0,0,.5-1.1,2.3,2.3,0,0,0-1.2-1.5l-.8-.4-1.8-.6a2.9,2.9,0,0,0-1.8.3.7.7,0,0,0-.3.5c0,.4,0,.8,0,1.2s0,.7,0,1-.3.3-.4.3H92c0,.1.1.2.1.2s.3.3.3.5v1.4m.2-1.4c0-.2-.2-.4-.3-.5v-.2h0c.1,0,.4-.1.4-.4s0-1.5,0-2.2,1.7-.8,2-.7l1.8.6.8.4a2.2,2.2,0,0,1,1.2,1.4,1,1,0,0,1-.5,1,3.9,3.9,0,0,1-1.5.7l-1.9.3c-.2,0-.2,0-.2.2s0,.7,0,1-.1,1-.1,1.5v.2c0,.2-.3.3-.6.3a2.6,2.6,0,0,1-1.1-.8.4.4,0,0,1-.1-.2V50" fill="#4abe9b"/><path d="M94,48.7h1.8l.6-.3a.8.8,0,0,0,.4-.7.4.4,0,0,0-.3-.3,5.9,5.9,0,0,0-2.4-.3c-.2,0-.2.1-.2.2h0v1.4m0-1.5h.1a5.8,5.8,0,0,1,2.3.2.3.3,0,0,1,.2.3.7.7,0,0,1-.3.7l-.6.3-1.4.3h-.2V47.3h0" fill="#4abe9b"/><path d="M92.4,52.8a2.6,2.6,0,0,0,1.1.8c.3,0,.6-.1.6-.3v-.2c0-.5.1-1,.1-1.5s0-.7,0-1,0-.2.2-.2l1.9-.3a3.9,3.9,0,0,0,1.5-.7,1,1,0,0,0,.5-1A2.2,2.2,0,0,0,97.1,47l-.8-.4-1.8-.6c-.3-.1-1.9-.1-2,.7s0,1.5,0,2.2-.3.4-.4.4h0v.2c.2.2.4.3.3.5v2.6a.4.4,0,0,0,.1.2m.1-.7V50c0-.3-.2-.4-.4-.6h-.1c.2,0,.5-.2.5-.5s0-.7,0-1,0-.8,0-1.2a.5.5,0,0,1,.2-.4,2.7,2.7,0,0,1,1.7-.2l1.8.6.8.4a2.2,2.2,0,0,1,1.2,1.3.9.9,0,0,1-.4,1,3.8,3.8,0,0,1-1.4.6l-1.9.3c-.2,0-.3.1-.3.2v.4c0,.2,0,.4,0,.6v1.7h0c0,.1-.3.2-.5.2a2.6,2.6,0,0,1-1-.8v-.7" fill="#4abe9b"/><path d="M109.3,46.2a2.5,2.5,0,0,0-2,.9,6,6,0,0,0-1.3,3.7,2.7,2.7,0,0,0,.5,1.6,3.2,3.2,0,0,0,1.3,1l1.3.3h1.5a5.2,5.2,0,0,0,1.8-.5,1.2,1.2,0,0,0,.7-.7s0-.1-.1-.2h-.8l-1.3.6-1.5.4a1.2,1.2,0,0,1-1-.2h-.1l-.2-.2a2,2,0,0,1-.5-1.1,4.3,4.3,0,0,1,.2-1.8,4.4,4.4,0,0,1,1.3-2.1,2,2,0,0,1,1.3-.4h.4c0-.1,0-.2.1-.3v-.2h-.1a5.2,5.2,0,0,0-1.8-.4" fill="#4abe9b"/><path d="M111.3,46.5h-.2c-1.8-.6-3.1-.4-4,.6a6.2,6.2,0,0,0-1.3,3.8,2.8,2.8,0,0,0,.6,1.6,3.3,3.3,0,0,0,1.4,1l1.3.3h1.5a5.4,5.4,0,0,0,1.9-.5,1.3,1.3,0,0,0,.8-.8.3.3,0,0,0-.2-.3h-1l-1.3.6-1.5.4a1,1,0,0,1-.8-.2h-.2a1.8,1.8,0,0,1-.5-1,4.1,4.1,0,0,1,.2-1.7,4.3,4.3,0,0,1,1.3-2.1,1.8,1.8,0,0,1,1.2-.3h.5v-.2a.1.1,0,0,0,0-.1v-.2a.4.4,0,0,0,.1-.3m-.2.5h-.3a2.3,2.3,0,0,0-1.5.3,4.4,4.4,0,0,0-1.3,2.1,4.2,4.2,0,0,0-.2,1.7,1.9,1.9,0,0,0,.5,1.1l.2.2a1.1,1.1,0,0,0,.9.2l1.5-.4,1.3-.6h.9c.1.1.2.1.1.2a1.3,1.3,0,0,1-.7.7,5.4,5.4,0,0,1-1.9.5h-1.4l-1.4-.3a3.2,3.2,0,0,1-1.3-1,2.8,2.8,0,0,1-.6-1.6,6.2,6.2,0,0,1,1.3-3.7c1.3-1.6,3.6-.7,3.9-.6s-.1.4-.1.5" fill="#4abe9b"/><path d="M111.2,46.5c-.3-.1-2.6-1.1-3.9.6a6.1,6.1,0,0,0-1.3,3.7,2.8,2.8,0,0,0,.6,1.6,3.2,3.2,0,0,0,1.3,1l1.4.3h1.4a5.4,5.4,0,0,0,1.9-.5,1.3,1.3,0,0,0,.7-.7c0-.1,0-.2-.1-.2h-.9l-1.3.6-1.5.4a1.1,1.1,0,0,1-.9-.2l-.2-.2a1.9,1.9,0,0,1-.5-1.1,4.2,4.2,0,0,1,.2-1.7,4.4,4.4,0,0,1,1.3-2.1,2.3,2.3,0,0,1,1.5-.3h.3c-.1-.1.3-.4.1-.5m-.1.2c0,.1-.1.2-.1.3h-.4a2,2,0,0,0-1.3.4,4.4,4.4,0,0,0-1.3,2.1,4.3,4.3,0,0,0-.2,1.8,2,2,0,0,0,.5,1.1l.2.2h.1a1.2,1.2,0,0,0,1,.2l1.5-.4,1.3-.6h.8c.1.1.1.1.1.2a1.2,1.2,0,0,1-.7.7,5.2,5.2,0,0,1-1.8.5h-1.5l-1.3-.3a3.2,3.2,0,0,1-1.3-1,2.7,2.7,0,0,1-.5-1.6,6,6,0,0,1,1.3-3.7,2.5,2.5,0,0,1,2-.9,5.2,5.2,0,0,1,1.8.4h.1v.2" fill="#4abe9b"/><path d="M59.8,50.1c0,.7,0,1.3,0,2.1h0c0,.3-.1.9.3,1.1h1.1c1.4-.2,4.1-.5,4.5-.6h.2a.4.4,0,0,0,0-.4.4.4,0,0,0-.3-.2H61.6c0-.2,0-.5,0-.8s0-.6,0-.8h.1l1.7-.3H64c.9-.2,1.2-.5,1.2-.6s-.2-.2-.6-.2h-3c0-.3,0-.5-.1-.7s0-.4-.1-.7.1-.2.4-.3l3.3-.5c.4-.1.6-.2.6-.5a.5.5,0,0,0-.6-.4h0l-1.7.2H61.6c-1.4.2-1.7.5-1.8,1h0a1.2,1.2,0,0,0-.1.4c0,.4,0,.7.1,1.1s0,.7.1,1.1" fill="#4abe9b"/><path d="M59.6,52.3c0,.3-.1,1.1.4,1.2h1.2l4.5-.6.3-.2a.6.6,0,0,0,0-.6.5.5,0,0,0-.5-.3H61.8c0-.2,0-.5,0-.7s0-.5,0-.8l1.7-.3H64c.8-.2,1.4-.5,1.3-.8s-.3-.3-.8-.3H61.8c0-.3,0-.5-.1-.7s0-.4-.1-.7h.2l3.3-.5c.5-.1.7-.4.7-.6a.7.7,0,0,0-.7-.6h0l-1.7.2H61.6c-1.5.2-1.8.6-2,1.1h0a1.4,1.4,0,0,0-.1.4c0,.4,0,.7.1,1.1s0,.7.1,1.1,0,1.3,0,2.1h0m0-4.4a1.9,1.9,0,0,1,.1-.5c.1-.5.5-.8,1.9-1.1h.6l2.9-.3c.7,0,1,.9,0,1.1l-3.3.5c-.3,0-.3,0-.3.2s0,.8.1,1.4v.2H62l2.5-.2c1,0,1,.6-.6,1l-2.2.5c0,.5,0,1.1-.1,1.6H62l3-.2h.6a.5.5,0,0,1,.4.8l-.2.2c-.5.2-4.4.6-5.3.7h-.3c-.5-.2-.3-1.1-.3-1.3s0-1.4,0-2.1-.1-1.5-.1-2.2" fill="#4abe9b"/><path d="M59.7,52.2c0,.2-.1,1.1.3,1.3h.3c.9-.1,4.8-.5,5.3-.7l.2-.2a.5.5,0,0,0-.4-.8h-.6L62,52h-.3c0-.5,0-1.1.1-1.6l2.2-.5c1.6-.3,1.6-1,.6-1l-2.5.2h-.3V49c-.1-.5,0-.8-.1-1.4s0-.2.3-.2l3.3-.5c1-.2.7-1.1,0-1.1l-2.9.3h-.6c-1.4.2-1.8.6-1.9,1.1a1.9,1.9,0,0,0-.1.5c0,.7.1,1.5.1,2.2s0,1.4,0,2.1m0-4.7h0c.1-.5.5-.8,1.8-1h1.8l1.7-.2h0a.5.5,0,0,1,.6.4c0,.2-.2.4-.6.5l-3.3.5c-.3,0-.4,0-.4.3s0,.5.1.7,0,.4.1.7h3c.4,0,.5.1.6.2s-.3.4-1.2.6h-.5l-1.7.3h-.1c0,.3,0,.6,0,.8s0,.6,0,.8h3.9a.4.4,0,0,1,.3.2.4.4,0,0,1,0,.4h-.2c-.4.2-3,.5-4.5.6H60.1c-.3-.2-.3-.8-.3-1.1h0c0-.8,0-1.5,0-2.1s0-.8-.1-1.1,0-.7-.1-1.1a1.2,1.2,0,0,1,.1-.4" fill="#4abe9b"/><path d="M128.1,52.4l-.6-.2-.4.2c-.2.2-.4.7-.3.9a1.5,1.5,0,0,0,.9.6h0a1.5,1.5,0,0,0,.9-.6,1.1,1.1,0,0,0-.2-.8l-.3-.2" fill="#4abe9b"/><path d="M128.5,52.2h-.2a1.3,1.3,0,0,0-.8-.3l-.6.3h0c-.1.2-.5.9-.3,1.2a1.8,1.8,0,0,0,1.1.7h0a1.7,1.7,0,0,0,1.2-.8c.1-.3-.1-1-.4-1.1m.3,1.1a1.5,1.5,0,0,1-1.1.7,1.6,1.6,0,0,1-1-.7c-.2-.3.1-.8.3-1.1l.5-.3c.3-.1.8.3,1,.4s.4.7.3,1" fill="#4abe9b"/><path d="M128.4,52.4c-.2-.1-.7-.5-1-.4l-.5.3c-.2.2-.4.8-.3,1.1a1.6,1.6,0,0,0,1,.7,1.5,1.5,0,0,0,1.1-.7c.1-.2-.1-.9-.3-1m.1.9a1.5,1.5,0,0,1-.9.6h0a1.5,1.5,0,0,1-.9-.6c-.1-.2.1-.6.3-.9l.4-.2.6.2.3.2a1.1,1.1,0,0,1,.2.8" fill="#4abe9b"/><path d="M83,49.9h-.1a12,12,0,0,1-.6-1.2,3.8,3.8,0,0,0-.7-1.4s-.2.1-.3,1.2a5.4,5.4,0,0,0,.3,1.5h0l-2.4.4h.1l1.7-3.6h0c.1-.2.2-.5.1-.6h-.4c-.7,0-1.7,1.4-2.1,2.1l-.6,1.1c-.3.6-1.2,2.5-1.6,3.6a2,2,0,0,0-.1,1.6h.3a1,1,0,0,0,.9-.5l.2-.2a12,12,0,0,0,1.1-2h.1l2.9-.6h0a3.6,3.6,0,0,1,.5,1.1,1.4,1.4,0,0,0,.7.8h.4c.4-.2.5-.4.3-.8l-.6-1.2h0c.4-.1.9-.4,1-.6a.1.1,0,0,0,0-.1c-.1-.2-.8-.2-1.4-.2" fill="#4abe9b"/><path d="M84.5,50.2a.2.2,0,0,0,0-.2c-.2-.3-1.2-.3-1.5-.3l-.5-1.1s-.5-1.5-.9-1.5-.3.4-.4,1.4a4.9,4.9,0,0,0,.3,1.5l-1.9.3,1.6-3.4h0c.1-.2.2-.5.1-.7l-.5-.2h0c-.8,0-1.9,1.6-2.3,2.2h0L78,49.1c-.3.6-1.2,2.5-1.6,3.6a2.1,2.1,0,0,0-.1,1.7l.4.2h0a1.1,1.1,0,0,0,1-.6l.2-.2a11.4,11.4,0,0,0,1.1-2l2.8-.6a3.6,3.6,0,0,1,.5,1,1.5,1.5,0,0,0,.8.9h.6a.7.7,0,0,0,.4-1l-.5-1.2c.2-.1.9-.4,1-.7m-1.1.7.6,1.3a.7.7,0,0,1-.4.9c-.4.2-1-.3-1.2-.9a3.6,3.6,0,0,0-.5-1l-2.9.6a11.9,11.9,0,0,1-1.1,2c-.4.5-.5.7-1.1.8s-.6-1.1-.2-1.8,1.3-2.9,1.6-3.6l.6-1.1c.4-.6,1.5-2.2,2.2-2.1s.4.6.3.9l-1.7,3.6,2.1-.3a5.4,5.4,0,0,1-.3-1.5c0-.5.1-1.3.3-1.3s.7,1,.8,1.5a12,12,0,0,0,.6,1.2s1.3-.1,1.4.2-1.1.8-1.1.8" fill="#4abe9b"/><path d="M83,49.8a11.9,11.9,0,0,1-.6-1.2c-.1-.4-.6-1.5-.8-1.5s-.3.8-.3,1.3a5.4,5.4,0,0,0,.3,1.5l-2.1.3,1.7-3.6c.1-.3.4-.9-.3-.9S79,47.4,78.6,48L78,49.1c-.4.7-1.3,2.8-1.6,3.6s-.4,1.9.2,1.8.7-.3,1.1-.8a11.9,11.9,0,0,0,1.1-2l2.9-.6a3.6,3.6,0,0,1,.5,1c.2.6.8,1.1,1.2.9a.7.7,0,0,0,.4-.9l-.6-1.3s1.2-.5,1.1-.8-1.4-.2-1.4-.2m.3.9h0l.6,1.2c.1.4,0,.7-.3.8H83a1.4,1.4,0,0,1-.7-.8,3.6,3.6,0,0,0-.5-1.1h0l-2.9.6h-.1a12,12,0,0,1-1.1,2l-.2.2a1,1,0,0,1-.9.5h-.3a2,2,0,0,1,.1-1.6c.4-1,1.3-2.9,1.6-3.6l.6-1.1c.4-.7,1.5-2.1,2.1-2.1h.4c.1.1,0,.4-.1.6h0l-1.7,3.6h-.1l2.4-.4h0a5.4,5.4,0,0,1-.3-1.5c.1-1.2.2-1.2.3-1.2a3.8,3.8,0,0,1,.7,1.4,11.9,11.9,0,0,0,.6,1.2H83c.5,0,1.3,0,1.4.2a.1.1,0,0,1,0,.1c-.1.2-.7.5-1,.6" fill="#4abe9b"/><path d="M102.8,47.3s-.2.1-.3,1.2a5.4,5.4,0,0,0,.3,1.5h0l-2.4.4h.1l1.7-3.6h0c.1-.2.2-.5.1-.6h-.4c-.7,0-1.7,1.4-2.1,2.1l-.6,1.1c-.3.6-.8,1.8-1.2,2.6v.3a2,2,0,0,0-.1,1.6h.3a1,1,0,0,0,.9-.5l.2-.2a6.1,6.1,0,0,0,.8-1.3h.1l2.9-.6h0a15.5,15.5,0,0,1,.7,1.6,1.4,1.4,0,0,0,.7.8h.4c.4-.2.5-.4.3-.8l-.7-1.8h0c.4-.1.9-.4,1-.6a.1.1,0,0,0,0-.1c-.1-.2-.8-.2-1.4-.2h-.1a11.9,11.9,0,0,1-.6-1.2,3.8,3.8,0,0,0-.7-1.4" fill="#4abe9b"/><path d="M102.8,47.1c-.2,0-.3.4-.4,1.4a4.9,4.9,0,0,0,.3,1.5l-1.9.3,1.6-3.4h0c.1-.2.2-.5.1-.7l-.5-.2h0c-.8,0-1.9,1.6-2.3,2.2h0l-.6,1.1c-.3.6-.8,1.8-1.2,2.6V52a2.1,2.1,0,0,0-.1,1.7l.4.2h0a1.1,1.1,0,0,0,1-.6l.2-.2a6,6,0,0,0,.8-1.3l2.8-.6a14.9,14.9,0,0,1,.6,1.5,1.5,1.5,0,0,0,.8.9h.6a.7.7,0,0,0,.4-1l-.7-1.7c.2-.1.9-.4,1-.7a.2.2,0,0,0,0-.2c-.2-.3-1.2-.3-1.5-.3l-.5-1.1s-.5-1.5-.9-1.5m1.4,2.7s1.3-.1,1.4.2-1.1.8-1.1.8l.7,1.8a.7.7,0,0,1-.4.9c-.4.2-1-.3-1.2-.9a15.8,15.8,0,0,0-.7-1.6l-2.9.6a6.1,6.1,0,0,1-.8,1.4c-.4.5-.5.7-1.1.8s-.6-1.1-.2-1.8.9-2.2,1.3-2.9l.6-1.1c.4-.6,1.5-2.2,2.2-2.1s.4.6.3.9l-1.7,3.6,2.1-.3a5.4,5.4,0,0,1-.3-1.5c0-.5.1-1.3.3-1.3s.7,1,.8,1.5a12,12,0,0,0,.6,1.2" fill="#4abe9b"/><path d="M102.8,47.2c-.2,0-.3.8-.3,1.3a5.4,5.4,0,0,0,.3,1.5l-2.1.3,1.7-3.6c.1-.3.4-.9-.3-.9s-1.8,1.5-2.2,2.1l-.6,1.1c-.4.7-1,2.1-1.3,2.9s-.4,1.9.2,1.8.7-.3,1.1-.8a6.1,6.1,0,0,0,.8-1.4l2.9-.6a15.8,15.8,0,0,1,.7,1.6c.2.6.8,1.1,1.2.9a.7.7,0,0,0,.4-.9l-.7-1.8s1.2-.5,1.1-.8-1.4-.2-1.4-.2a11.9,11.9,0,0,1-.6-1.2c-.1-.4-.6-1.5-.8-1.5m1.3,2.7h.1c.5,0,1.3,0,1.4.2a.1.1,0,0,1,0,.1c-.1.2-.7.5-1,.6h0l.7,1.8c.1.4,0,.7-.3.8h-.4a1.4,1.4,0,0,1-.7-.8,15.6,15.6,0,0,0-.7-1.6h0l-2.9.6h-.1a6.1,6.1,0,0,1-.8,1.3l-.2.2a1,1,0,0,1-.9.5h-.3a2,2,0,0,1,.1-1.6v-.3c.3-.8.9-2,1.2-2.6l.6-1.1c.4-.7,1.5-2.1,2.1-2.1h.4c.1.1,0,.4-.1.6h0l-1.7,3.6h-.1l2.4-.4h0a5.4,5.4,0,0,1-.3-1.5c.1-1.2.2-1.2.3-1.2a3.8,3.8,0,0,1,.7,1.4,11.9,11.9,0,0,0,.6,1.2" fill="#4abe9b"/><path d="M124.5,54.6,53.8,55c-1,0-1.8,1.6-.5,1.6l71-1.1c1.5-.1.9-1,.3-1" fill="#4abe9b"/><path d="M54.6,11.2c-2.4,0-3.8-1.4-3.8-3.4s1.4-3.3,3.8-3.3V3.9h2.1v.7c2.4,0,3.8,1.4,3.8,3.3s-1.4,3.4-3.8,3.4V12H54.6Zm0-4.8a1.5,1.5,0,1,0,0,3Zm3.8,1.5a1.5,1.5,0,0,0-1.7-1.5v3a1.5,1.5,0,0,0,1.7-1.5" fill="#1e2724"/><path d="M61.7,7.9a4,4,0,1,1,4,3.9,3.9,3.9,0,0,1-4-3.9m6,0a1.9,1.9,0,0,0-1.9-2,1.9,1.9,0,0,0-1.9,2,1.9,1.9,0,0,0,1.9,2,1.9,1.9,0,0,0,1.9-2" fill="#1e2724"/><polygon points="71.4 4.2 73.5 4.2 73.5 7 76.2 7 76.2 4.2 78.2 4.2 78.2 11.7 76.2 11.7 76.2 8.8 73.5 8.8 73.5 11.7 71.4 11.7 71.4 4.2" fill="#1e2724"/><path d="M79.5,9.9h.7A14.3,14.3,0,0,0,81,4.4V4.2h5.7V9.9h.8l-.2,3.3H85.5V11.7h-4v1.5H79.5Zm5.1,0V6H83a11.1,11.1,0,0,1-.6,3.8Z" fill="#1e2724"/><polygon points="51.2 18 53.4 18 55.2 20.9 57 18 59.2 18 59.2 25.5 57.1 25.5 57.1 21.2 55.2 24.1 55.2 24.1 53.2 21.2 53.2 25.5 51.2 25.5 51.2 18" fill="#1e2724"/><polygon points="61 18 67.1 18 67.1 19.8 63.1 19.8 63.1 20.9 66.7 20.9 66.7 22.6 63.1 22.6 63.1 23.7 67.1 23.7 67.1 25.5 61 25.5 61 18" fill="#1e2724"/><path d="M68.2,23.7h.7a14.3,14.3,0,0,0,.8-5.5V18h5.7v5.7h.8L75.9,27H74.1V25.5h-4V27H68.2Zm5.1,0V19.8H71.6a11.1,11.1,0,0,1-.6,3.8Z" fill="#1e2724"/><polygon points="77.5 18 79.5 18 79.5 22.2 82.5 18 84.4 18 84.4 25.5 82.3 25.5 82.3 21.3 79.4 25.5 77.5 25.5 77.5 18" fill="#1e2724"/><polygon points="91.8 25.5 86.2 25.5 86.2 18 88.3 18 88.3 23.7 90.9 23.7 90.9 18 93 18 93 23.7 93.8 23.7 93.6 27 91.8 27 91.8 25.5" fill="#1e2724"/><polygon points="95 18 97.1 18 97.1 22.2 100 18 101.9 18 101.9 25.5 99.9 25.5 99.9 21.3 97 25.5 95 25.5 95 18" fill="#1e2724"/><polygon points="103.8 18 105.9 18 105.9 20.8 108.5 20.8 108.5 18 110.6 18 110.6 25.5 108.5 25.5 108.5 22.7 105.9 22.7 105.9 25.5 103.8 25.5 103.8 18" fill="#1e2724"/><path d="M112.2,21.8a3.9,3.9,0,0,1,4-3.9,3.6,3.6,0,0,1,3.1,1.6l-1.5,1.2a2,2,0,0,0-1.6-.9,1.9,1.9,0,0,0-1.8,2,1.9,1.9,0,0,0,1.8,2,2,2,0,0,0,1.7-.9l1.6,1.1a3.9,3.9,0,0,1-7.2-2.2" fill="#1e2724"/><polygon points="120.8 18 122.9 18 122.9 21.1 125.5 18 128 18 125.1 21.2 128.1 25.5 125.6 25.5 123.7 22.7 122.9 23.6 122.9 25.5 120.8 25.5 120.8 18" fill="#1e2724"/><polygon points="129.2 18 131.2 18 131.2 22.2 134.1 18 136.1 18 136.1 25.5 134 25.5 134 21.3 131.1 25.5 129.2 25.5 129.2 18" fill="#1e2724"/><polygon points="140 21.7 137.5 18 139.9 18 141.2 20.1 142.6 18 144.9 18 142.4 21.7 145 25.5 142.6 25.5 141.2 23.3 139.7 25.5 137.4 25.5 140 21.7" fill="#1e2724"/><path d="M51.2,31.8h3.2c1.9,0,3.1,1,3.1,2.7s-1.4,2.7-3.2,2.7h-1v2.1H51.2Zm3.1,3.7c.7,0,1.2-.4,1.2-1s-.4-1-1.2-1h-1v2Z" fill="#1e2724"/><polygon points="59 31.9 65 31.9 65 33.6 61 33.6 61 34.8 64.6 34.8 64.6 36.4 61 36.4 61 37.6 65 37.6 65 39.3 59 39.3 59 31.9" fill="#1e2724"/><polygon points="66.6 31.9 68.7 31.9 68.7 37.5 70.8 37.5 70.8 31.9 72.9 31.9 72.9 37.5 75 37.5 75 31.9 77.1 31.9 77.1 39.3 66.6 39.3 66.6 31.9" fill="#1e2724"/><polygon points="79 31.9 85 31.9 85 33.6 81 33.6 81 34.8 84.6 34.8 84.6 36.4 81 36.4 81 37.6 85.1 37.6 85.1 39.3 79 39.3 79 31.9" fill="#1e2724"/><polygon points="86.7 31.9 88.7 31.9 88.7 34.7 91.4 34.7 91.4 31.9 93.5 31.9 93.5 39.3 91.4 39.3 91.4 36.5 88.7 36.5 88.7 39.3 86.7 39.3 86.7 31.9" fill="#1e2724"/><polygon points="95.3 31.9 97.4 31.9 97.4 36.1 100.3 31.9 102.2 31.9 102.2 39.3 100.2 39.3 100.2 35.1 97.3 39.3 95.3 39.3 95.3 31.9" fill="#1e2724"/><path d="M104.1,31.8h2.1v4.2l2.9-4.2H111v7.5h-2.1V35.1L106,39.3h-1.9Zm1.6-2.1,1.1-.2c.1.4.4.6.7.6s.6-.3.8-.6l1.1.2a1.9,1.9,0,0,1-3.8,0" fill="#1e2724"/></svg>