<?xml version="1.0" encoding="UTF-8"?>
<svg width="180px" height="64px" viewBox="0 0 180 64" version="1.1" xmlns="http://www.w3.org/2000/svg" xmlns:xlink="http://www.w3.org/1999/xlink">
    <!-- Generator: Sketch 53.2 (72643) - https://sketchapp.com -->
    <title>foundation-logo</title>
    <desc>Created with Sketch.</desc>
    <g id="Заказчик" stroke="none" strokeWidth="1" fill="none" fill-rule="evenodd">
        <g id="covid_desktop-1360" transform="translate(-236.000000, -2008.000000)">
            <g id="about" transform="translate(0.000000, 1628.000000)">
                <g id="partners" transform="translate(216.000000, 372.000000)">
                    <g id="1" transform="translate(0.000000, 8.000000)">
                        <g id="partner-logo">
                            <rect id="logo_bg" opacity="0.432506796" x="0" y="0" width="220" height="64"></rect>
                            <g id="foundation-logo" transform="translate(20.000000, 0.000000)">
                                <rect id="logo_bg" opacity="0.432506796" x="0" y="0" width="180" height="64"></rect>
                                <path d="M72.2376683,18.5481091 L72.2376683,15.3944104 C71.1454455,15.3944104 70.3856384,15.9540646 70.3856384,16.9825473 C70.3856384,17.9769048 71.1454455,18.5481091 72.2376683,18.5481091 L72.2376683,18.5481091 Z M74.5524418,18.5481091 C75.6446646,18.5481091 76.4044717,17.9769048 76.4044717,16.9825473 C76.4044717,15.9540646 75.6446646,15.3944104 74.5524418,15.3944104 L74.5524418,18.5481091 Z M72.2376683,13.4287956 L72.2376683,12.5373389 L74.5524418,12.5373389 L74.5524418,13.4287956 C77.247119,13.4287956 78.7672609,14.9597071 78.7672609,17.0166726 C78.7672609,19.0505379 77.223375,20.5131989 74.5524418,20.5131989 L74.5524418,21.2214292 L72.2376683,21.2214292 L72.2376683,20.5131989 C69.5667351,20.5131989 68.0233769,19.0505379 68.0233769,17.0166726 C68.0233769,14.9597071 69.5429912,13.4287956 72.2376683,13.4287956 L72.2376683,13.4287956 Z" id="path4160" fill="#3C403C" fill-rule="nonzero" transform="translate(73.395319, 16.879384) scale(1, -1) translate(-73.395319, -16.879384) "></path>
                                <path d="M84.2894758,19.0381478 C85.5600422,19.0381478 86.4269611,18.0322402 86.4269611,16.8782815 C86.4269611,15.7017477 85.5843138,14.7184153 84.3137475,14.7184153 C83.0553169,14.7184153 82.188398,15.7243229 82.188398,16.8782815 C82.188398,18.0548154 83.0315729,19.0381478 84.2894758,19.0381478 M84.2894758,12.7192002 C86.8538249,12.7192002 88.7770867,14.5813893 88.7770867,16.8782815 C88.7770867,19.198274 86.8775689,21.0384128 84.3137475,21.0384128 C81.7493984,21.0384128 79.8261365,19.1751738 79.8261365,16.8782815 C79.8261365,14.5582891 81.7256544,12.7192002 84.2894758,12.7192002" id="path4164" fill="#3C403C" fill-rule="nonzero" transform="translate(84.301612, 16.878807) scale(1, -1) translate(-84.301612, -16.878807) "></path>
                                <polygon id="path4168" fill="#3C403C" fill-rule="nonzero" transform="translate(93.970105, 16.879542) scale(1, -1) translate(-93.970105, -16.879542) " points="92.4921743 15.9198343 95.4485628 15.9198343 95.4485628 12.8800615 97.7512005 12.8800615 97.7512005 20.8790216 95.4485628 20.8790216 95.4485628 17.8854491 92.4921743 17.8854491 92.4921743 20.8790216 90.1890089 20.8790216 90.1890089 12.8800615 92.4921743 12.8800615"></polygon>
                                <path d="M102.732,20.456551 L102.732,20.5358266 L104.536014,20.5358266 L104.536014,16.4224206 L102.078777,16.4224206 C102.458153,17.5191539 102.732,18.6846626 102.732,20.456551 L102.732,20.456551 Z M101.152762,14.479381 L105.568613,14.479381 L105.568613,12.8796939 L107.515619,12.8796939 L107.777331,16.4224206 L106.839707,16.4224206 L106.839707,22.4788662 L100.511675,22.4788662 L100.511675,22.2730646 C100.511675,19.266892 100.226747,17.8735315 99.6685,16.4224206 L98.9329644,16.4224206 L98.9329644,12.8796939 L100.998162,12.8796939 L101.152762,14.479381 Z" id="path4172" fill="#3C403C" fill-rule="nonzero" transform="translate(103.355148, 17.679280) scale(1, -1) translate(-103.355148, -17.679280) "></path>
                                <polygon id="path4176" fill="#3C403C" fill-rule="nonzero" transform="translate(72.172082, 31.975978) scale(1, -1) translate(-72.172082, -31.975978) " points="75.8935542 27.9767601 75.8935542 35.9751952 68.4506101 35.9751952 68.4506101 27.9767601 70.7532479 27.9767601 70.7532479 34.0326806 73.5909165 34.0326806 73.5909165 27.9767601"></polygon>
                                <path d="M81.094223,31.9990253 L80.0020002,31.9990253 L80.0020002,34.1132162 L81.0820872,34.1132162 C81.9131263,34.1132162 82.4122773,33.7478135 82.4122773,33.0621583 C82.4122773,32.4111534 81.9131263,31.9990253 81.094223,31.9990253 M81.2604308,35.9754052 L77.6988349,35.9754052 L77.6988349,27.9769701 L80.0020002,27.9769701 L80.0020002,30.2623123 L81.1417109,30.2623123 C83.206909,30.2623123 84.7149151,31.2561447 84.7149151,33.1419589 C84.7149151,34.9353724 83.360981,35.9754052 81.2604308,35.9754052" id="path4180" fill="#3C403C" fill-rule="nonzero" transform="translate(81.206875, 31.976188) scale(1, -1) translate(-81.206875, -31.976188) "></path>
                                <path d="M90.16078,34.1358964 C91.4302911,34.1358964 92.2972099,33.1299888 92.2972099,31.9760301 C92.2972099,30.7994963 91.4550903,29.8161639 90.1845239,29.8161639 C88.9260934,29.8161639 88.0597022,30.8220715 88.0597022,31.9760301 C88.0597022,33.153089 88.9023494,34.1358964 90.16078,34.1358964 M85.696913,31.9760301 C85.696913,29.6565627 87.5964309,27.8169489 90.16078,27.8169489 C92.7246014,27.8169489 94.6473356,29.6791379 94.6473356,31.9760301 C94.6473356,34.2960226 92.7483454,36.1351114 90.1845239,36.1351114 C87.6201749,36.1351114 85.696913,34.2729224 85.696913,31.9760301" id="path4184" fill="#3C403C" fill-rule="nonzero" transform="translate(90.172124, 31.976030) scale(1, -1) translate(-90.172124, -31.976030) "></path>
                                <path d="M102.235276,30.4907415 L102.235276,33.6444402 C103.327499,33.6444402 104.087306,33.0727109 104.087306,32.0788784 C104.087306,31.0509207 103.327499,30.4907415 102.235276,30.4907415 L102.235276,30.4907415 Z M99.9205027,30.4907415 C98.8282799,30.4907415 98.0690004,31.0509207 98.0690004,32.0788784 C98.0690004,33.0727109 98.8282799,33.6444402 99.9205027,33.6444402 L99.9205027,30.4907415 Z M106.450095,32.1135287 C106.450095,34.147394 104.906209,35.610055 102.235276,35.610055 L102.235276,36.3182853 L99.9205027,36.3182853 L99.9205027,35.610055 C97.2495695,35.610055 95.7062113,34.147394 95.7062113,32.1135287 C95.7062113,30.0560382 97.2258255,28.5251267 99.9205027,28.5251267 L99.9205027,27.63367 L102.235276,27.63367 L102.235276,28.5251267 C104.930481,28.5251267 106.450095,30.0560382 106.450095,32.1135287 L106.450095,32.1135287 Z" id="path4188" fill="#3C403C" fill-rule="nonzero" transform="translate(101.078153, 31.975978) scale(1, -1) translate(-101.078153, -31.975978) "></path>
                                <polygon id="path4192" fill="#3C403C" fill-rule="nonzero" transform="translate(111.586972, 31.976083) scale(1, -1) translate(-111.586972, -31.976083) " points="107.764192 35.9753002 107.764192 27.9768651 109.913286 27.9768651 113.13033 32.4792989 113.13033 27.9768651 115.409752 27.9768651 115.409752 35.9753002 113.260658 35.9753002 110.043086 31.4733914 110.043086 35.9753002"></polygon>
                                <path d="M120.475607,33.8393742 L120.475607,34.1470265 L122.411005,34.1470265 L122.411005,28.0916309 L124.713115,28.0916309 L124.713115,36.0900661 L118.326514,36.0900661 L118.326514,34.9817828 C118.326514,30.1365213 117.709171,29.8173189 117.057003,29.8173189 C116.949364,29.8173189 116.628556,29.8393691 116.5225,29.8624692 L116.3679,28.1598814 C116.546244,28.102656 117.139843,27.9766551 117.744523,27.9766551 C119.359641,27.9766551 120.475607,28.9594624 120.475607,33.8393742" id="path4196" fill="#3C403C" fill-rule="nonzero" transform="translate(120.540508, 32.033361) scale(1, -1) translate(-120.540508, -32.033361) "></path>
                                <path d="M130.413726,33.347393 L131.339741,31.0730759 L129.475576,31.0730759 L130.413726,33.347393 Z M128.799136,29.3479129 L132.0051,29.3479129 L132.60978,27.9193771 L135.079153,27.9193771 L131.541301,35.9755627 L129.321504,35.9755627 L125.783652,27.9193771 L128.205009,27.9193771 L128.799136,29.3479129 Z" id="path4200" fill="#3C403C" fill-rule="nonzero" transform="translate(130.431403, 31.947470) scale(1, -1) translate(-130.431403, -31.947470) "></path>
                                <polygon id="path4204" fill="#3C403C" fill-rule="nonzero" transform="translate(140.155668, 31.976030) scale(1, -1) translate(-140.155668, -31.976030) " points="138.458765 30.0445406 139.301412 30.9480724 141.390882 27.9770751 144.156263 27.9770751 140.903867 32.5362094 144.049679 35.9749852 141.319122 35.9749852 138.458765 32.7304608 138.458765 35.9749852 136.155072 35.9749852 136.155072 27.9770751 138.458765 27.9770751"></polygon>
                                <polygon id="path4208" fill="#3C403C" fill-rule="nonzero" transform="translate(148.524416, 31.976240) scale(1, -1) translate(-148.524416, -31.976240) " points="147.372569 27.9767601 149.676262 27.9767601 149.676262 34.0337306 152.169379 34.0337306 152.169379 35.9757202 144.879452 35.9757202 144.879452 34.0337306 147.372569 34.0337306"></polygon>
                                <polygon id="path4212" fill="#3C403C" fill-rule="nonzero" transform="translate(157.161365, 31.975925) scale(1, -1) translate(-157.161365, -31.975925) " points="155.617479 31.4732339 155.617479 35.9751427 153.338585 35.9751427 153.338585 27.9767076 155.486623 27.9767076 158.704723 32.4791414 158.704723 27.9767076 160.984145 27.9767076 160.984145 35.9751427 158.835051 35.9751427"></polygon>
                                <polygon id="path4216" fill="#3C403C" fill-rule="nonzero" transform="translate(166.789177, 31.976083) scale(1, -1) translate(-166.789177, -31.976083) " points="170.683188 35.9753002 167.952631 35.9753002 165.091219 32.7307758 165.091219 35.9753002 162.788581 35.9753002 162.788581 27.9768651 165.091219 27.9768651 165.091219 30.0448556 165.934921 30.9478624 168.024391 27.9768651 170.789772 27.9768651 167.536848 32.5359994"></polygon>
                                <polygon id="path4220" fill="#3C403C" fill-rule="nonzero" transform="translate(175.618716, 31.976083) scale(1, -1) translate(-175.618716, -31.976083) " points="177.292138 35.9753002 174.075094 31.4733914 174.075094 35.9753002 171.7962 35.9753002 171.7962 27.9768651 173.944238 27.9768651 177.162338 32.4792989 177.162338 27.9768651 179.441232 27.9768651 179.441232 35.9753002"></polygon>
                                <path d="M70.7539338,49.2099673 L71.8334931,49.2099673 C72.6650598,49.2099673 73.1636832,48.8440396 73.1636832,48.1583844 C73.1636832,47.5068545 72.6650598,47.0957764 71.8461566,47.0957764 L70.7539338,47.0957764 L70.7539338,49.2099673 Z M70.7539338,45.3590634 L71.8936445,45.3590634 C73.9593702,45.3590634 75.4668486,46.3528958 75.4668486,48.238185 C75.4668486,50.0321235 74.1129145,51.0721563 72.0123644,51.0721563 L68.4507684,51.0721563 L68.4507684,43.0737212 L70.7539338,43.0737212 L70.7539338,45.3590634 Z" id="path4224" fill="#3C403C" fill-rule="nonzero" transform="translate(71.958809, 47.072939) scale(1, -1) translate(-71.958809, -47.072939) "></path>
                                <path d="M79.0282335,46.171087 L79.965329,48.4448791 L80.8923992,46.171087 L79.0282335,46.171087 Z M81.0939592,51.0725238 L78.8741615,51.0725238 L75.3357819,43.0168632 L77.7576671,43.0168632 L78.3517941,44.445924 L81.5572305,44.445924 L82.162438,43.0168632 L84.6318112,43.0168632 L81.0939592,51.0725238 Z" id="path4228" fill="#3C403C" fill-rule="nonzero" transform="translate(79.983797, 47.044694) scale(1, -1) translate(-79.983797, -47.044694) "></path>
                                <polygon id="path4232" fill="#3C403C" fill-rule="nonzero" transform="translate(89.708114, 47.072729) scale(1, -1) translate(-89.708114, -47.072729) " points="85.7075187 51.0716838 85.7075187 43.0737737 88.0112117 43.0737737 88.0112117 45.1412392 88.8538589 46.043721 90.9428009 43.0737737 93.70871 43.0737737 90.4563133 47.632383 93.6021259 51.0716838 90.871569 51.0716838 88.0112117 47.8271594 88.0112117 51.0716838"></polygon>
                                <path d="M99.0163322,48.4448266 L99.9423471,46.1710345 L98.0781814,46.1710345 L99.0163322,48.4448266 Z M97.4012144,44.4458715 L100.607178,44.4458715 L101.212386,43.0168107 L103.681759,43.0168107 L100.143907,51.0724713 L97.9241094,51.0724713 L94.3862574,43.0168107 L96.807615,43.0168107 L97.4012144,44.4458715 Z" id="path4236" fill="#3C403C" fill-rule="nonzero" transform="translate(99.034008, 47.044641) scale(1, -1) translate(-99.034008, -47.044641) "></path>
                                <path d="M54.2773142,2.33784259 C48.7565767,7.45348109 41.5600423,10.2701273 34.0126247,10.2701273 C26.468373,10.2701273 19.2744768,7.4555811 13.7553222,2.34466764 L18.4967298,0.0120750909 C22.8935859,3.51122642 28.332011,5.42486582 34.0126247,5.42486582 C39.6990424,5.42486582 45.1432716,3.50702639 49.5422384,0 L54.2630679,2.32261748 L54.2773142,2.33784259 Z" id="path4156" fill="#E7705E" fill-rule="nonzero" transform="translate(34.016318, 5.135064) scale(1, -1) translate(-34.016318, -5.135064) "></path>
                                <polygon id="path4404" fill="#EFA02A" fill-rule="nonzero" transform="translate(52.589434, 26.019248) scale(1, -1) translate(-52.589434, -26.019248) " points="50.154358 14.4468487 55.0245107 9.75121338 55.0245107 42.2872832 50.154358 39.8911652"></polygon>
                                <polygon id="path4408" fill="#35AE95" fill-rule="nonzero" transform="translate(19.100091, 30.285325) scale(1, -1) translate(-19.100091, -30.285325) " points="13 18.4451738 21.7562496 9.73220823 25.200181 13.159434 17.8701527 20.4522639 17.8701527 48.4423245 13 50.8384426"></polygon>
                                <polygon id="path4412" fill="#2CAEE4" fill-rule="nonzero" transform="translate(38.345267, 51.601378) scale(1, -1) translate(-38.345267, -51.601378) " points="34.0125192 40.1699423 53.546422 59.6061135 50.1024906 63.0328143 34.0125192 47.0233438 26.5880426 54.4106744 23.1441112 50.9839737"></polygon>
                            </g>
                        </g>
                    </g>
                </g>
            </g>
        </g>
    </g>
</svg>