<?xml version="1.0" encoding="UTF-8"?>
<svg width="94px" height="64px" viewBox="0 0 94 64" version="1.1" xmlns="http://www.w3.org/2000/svg" xmlns:xlink="http://www.w3.org/1999/xlink">
    <!-- Generator: Sketch 53.2 (72643) - https://sketchapp.com -->
    <title>zenit-logo</title>
    <desc>Created with Sketch.</desc>
    <defs>
        <polygon id="path-1" points="0.565908271 0.557010989 20.7031113 0.557010989 20.7031113 19.6145231 0.565908271 19.6145231"></polygon>
    </defs>
    <g id="Заказчик" stroke="none" strokeWidth="1" fill="none" fill-rule="evenodd">
        <g id="covid_desktop-1360" transform="translate(-896.000000, -2008.000000)">
            <g id="about" transform="translate(0.000000, 1628.000000)">
                <g id="partners" transform="translate(216.000000, 372.000000)">
                    <g id="4" transform="translate(630.000000, 8.000000)">
                        <g id="partner-logo">
                            <g id="zenit-logo" transform="translate(50.000000, 0.000000)">
                                <rect id="logo_bg" opacity="0.432506796" x="0" y="0" width="94" height="64"></rect>
                                <path d="M38.0981293,24.6053275 L41.9083098,24.6053275 L40.0035729,31.1347341 L42.9663398,30.3765802 L44.6597534,24.6053275 L48.2154977,24.6053275 L45.3368361,34.419833 L50.0785353,28.1436132 L51.1365654,24.6053275 L54.5226857,24.6053275 L52.4907308,31.5560088 C52.4066256,31.8091956 51.9825654,33.2833055 52.3218135,33.2833055 C52.7027609,33.2833055 53.5911669,31.6826022 54.6074977,29.8702066 C55.7086406,27.8911297 56.6811519,25.784756 57.1045053,24.6053275 L60.5761444,24.6053275 L58.8827308,30.5024703 L63.285182,24.6053275 L93.7645053,24.6053275 L20.2345955,55.8605363 L21.6735729,50.9332396 L79.4143098,27.4276571 L68.154806,27.4276571 L67.0522496,31.0925363 L63.454806,32.229767 L64.8959038,27.4276571 L63.1205053,27.4276571 L58.1215429,33.8726681 L54.9891519,34.9255033 C55.1573624,33.3669978 55.4117985,31.8091956 55.7927459,30.2921846 L54.3537684,32.9879209 C53.2102195,35.0942945 52.2362947,36.7793934 50.501182,36.7793934 C49.2311218,36.7793934 48.6388511,35.5999648 48.6388511,34.040756 C48.6388511,33.4935912 48.7236632,32.9042286 48.8501744,32.3134593 L44.151588,38.5481846 L40.2573023,39.8120088 L42.2044451,33.0301187 L39.2416782,33.7882725 L37.2097233,40.864844 L32.9761895,42.2552615 L34.8809263,35.7265582 L30.6056932,41.1595253 C28.7857684,43.4761846 26.9227308,44.7407121 25.4413474,44.7407121 C22.5626857,44.7407121 22.1817383,40.0229978 22.4354677,38.1269099 C20.8699789,38.8428659 20.3194075,39.0960527 19.8112421,39.3900308 C20.4883248,49.4999209 10.1596331,63.4434813 3.59800902,63.4434813 C1.5667609,63.4434813 -0.000141353376,61.8849758 -0.000141353376,58.3466901 C-0.000141353376,53.1233055 3.93725714,45.4988659 14.5196782,39.5173275 C14.2235429,37.4538549 13.5040541,35.7265582 12.233994,34.630822 L12.233994,34.419833 C15.8321444,31.6826022 18.541182,28.6070857 18.541182,25.8269538 C18.541182,24.5631297 17.5672571,24.0574593 16.5092271,24.0574593 C14.5196782,24.0574593 11.8954526,26.5007121 10.4557684,28.5648879 L9.71790376,28.5648879 L10.8791218,24.6053275 C13.5881594,21.024844 17.9065053,19.7610198 20.2770015,19.7610198 C22.6899038,19.7610198 24.7218586,20.6879648 24.7218586,23.551789 C24.7218586,26.9641846 21.758385,30.5024703 17.3559338,33.1560088 C18.3715579,34.2939429 19.0493474,35.5999648 19.4302947,37.0318769 C20.4883248,36.4847121 21.5894677,35.936844 22.774009,35.3889758 C24.0447759,29.1964484 28.4889263,24.4365363 32.4263248,24.4365363 C34.4158737,24.4365363 35.3042797,25.6159648 35.3042797,27.2166681 C35.3042797,30.9237451 31.8757534,33.7882725 27.0499489,36.3152176 C26.9170767,37.1781626 26.9227308,37.6634374 26.9227308,38.1691077 C26.9227308,39.8542066 27.3036782,40.6545582 27.9383549,40.6545582 C28.362415,40.6545582 28.8698737,40.274778 29.4628511,39.6010198 L35.9820692,31.9343824 L38.0981293,24.6053275 Z M4.9528812,57.1665582 C4.9528812,57.9676132 5.20661053,59.2729319 6.13812932,59.2729319 C9.77868571,59.2729319 14.3924602,49.6265143 14.6044902,42.1286681 C8.21249023,46.4673055 4.9528812,52.7442286 4.9528812,57.1665582 L4.9528812,57.1665582 Z M31.325182,27.9333275 C31.325182,27.3432615 31.1138586,26.9641846 30.7329113,26.9641846 C29.7589865,26.9641846 28.320009,30.0397011 27.5157083,33.5779868 C30.1823398,31.8506901 31.325182,29.6599209 31.325182,27.9333275 L31.325182,27.9333275 Z" id="Fill-1" fill="#00AEEF"></path>
                                <path d="M81.3700045,47.6849934 L81.5042902,46.4366418 L84.555403,46.4366418 L84.555403,44.7501363 L79.9805008,44.7501363 L79.4892977,49.3869714 C80.0299744,49.184422 80.6413278,49.1169055 81.0816436,49.1169055 C82.2506361,49.1169055 82.9277188,49.6394549 82.9277188,50.3314989 C82.9277188,50.8695209 82.4209669,51.4272352 81.4887414,51.4272352 C80.7593579,51.4272352 79.9967564,51.1571692 79.3705609,50.6346198 L79.133794,52.4723341 C79.761403,52.8781363 80.6625308,53.2143121 81.6124256,53.2143121 C83.7793729,53.2143121 85.0126812,51.9329055 85.0126812,50.2808615 C85.0126812,48.3256967 83.1326812,47.2960703 81.3700045,47.6849934" id="Fill-4" fill="#00AEEF"></path>
                                <path d="M78.367588,47.2118154 C78.367588,45.7953758 77.2325203,44.5653099 75.2839639,44.5653099 C73.385588,44.5653099 72.1819639,45.7285626 72.1819639,47.616211 L72.1819639,47.6661451 L74.1990767,47.6661451 L74.1990767,47.5655736 C74.1990767,46.7061451 74.6217233,46.2335297 75.3334376,46.2335297 C75.9433774,46.2335297 76.3172571,46.6386286 76.3172571,47.2286945 C76.3172571,47.616211 76.0967459,48.038189 75.6550165,48.5607385 L71.8950165,52.9957275 L78.2820692,52.9957275 L78.2820692,51.2241231 L75.7242797,51.2241231 L77.2325203,49.5713758 C77.961197,48.7632879 78.367588,48.0881231 78.367588,47.2118154" id="Fill-6" fill="#00AEEF"></path>
                                <polygon id="Fill-8" fill="#00AEEF" points="60.5762857 46.6383473 62.373594 46.6383473 62.373594 52.9947429 64.4557293 52.9947429 64.4557293 44.7499956 61.557985 44.7499956"></polygon>
                                <path d="M68.4548992,48.7805187 C67.7438917,48.7805187 67.1848391,48.2924308 67.1848391,47.4991121 C67.1848391,46.8070681 67.6767489,46.2170022 68.4548992,46.2170022 C69.2351699,46.2170022 69.7426286,46.8070681 69.7426286,47.4991121 C69.7426286,48.2924308 69.2351699,48.7805187 68.4548992,48.7805187 M68.4718617,44.5649582 C66.4731248,44.5649582 65.2695008,45.8962989 65.2695008,47.6172659 C65.2695008,49.1687385 66.4731248,50.2482989 67.8456662,50.2482989 C68.1502827,50.2482989 68.3036511,50.2300132 68.5905985,50.1617934 L66.6590045,52.9946725 L68.9807338,52.9946725 L70.1490195,51.2427604 C71.0649895,49.8593758 71.6410045,48.7805187 71.6410045,47.5835077 C71.6410045,45.7957275 70.4713053,44.5649582 68.4718617,44.5649582" id="Fill-10" fill="#00AEEF"></path>
                                <g id="Group-14" transform="translate(38.872180, 0.146426)">
                                    <mask id="mask-2" fill="white">
                                        <use xlink:href="#path-1"></use>
                                    </mask>
                                    <g id="Clip-13"></g>
                                    <polygon id="Fill-12" fill="#CEAE3A" mask="url(#mask-2)" points="4.41213383 19.6145231 6.78828421 12.3346989 0.565908271 7.83570989 8.25765263 7.83570989 10.6345098 0.556589011 13.0113669 7.83641319 20.7031113 7.83641319 14.4793218 12.3346989 16.8568857 19.6145231 10.6345098 15.1148308"></polygon>
                                </g>
                            </g>
                        </g>
                    </g>
                </g>
            </g>
        </g>
    </g>
</svg>