<svg class="logo" id="logo-full" width="238" height="48" xmlns="http://www.w3.org/2000/svg">
  <g fill="none" fillRule="evenodd">
    <path d="M231.14 14.2v3.4h2c1.26 0 2.34-.35 2.34-1.7 0-1.36-1.08-1.7-2.35-1.7h-2zm1.88 5.57h-4.35V8.23h2.47v3.8h1.88c2.78 0 4.98.88 4.98 3.87 0 2.98-2.2 3.87-4.98 3.87zM217.3 8.23h9.54v2.23h-3.54v9.3h-2.46v-9.3h-3.54V8.23zm-1.82 11.54h-2.47v-5.95c0-.53.01-1.1.05-1.58l-5.38 7.53h-2.32V8.23h2.47v5.95c0 .53-.02 1.1-.05 1.58l5.38-7.53h2.32v11.54zm-21.91-5.64c.01-4.22 3.11-6.13 6.2-6.13 1.15 0 2.3.25 3.3.74v2.36a4.8 4.8 0 0 0-2.9-.9c-2.02 0-4.06 1.15-4.06 3.93-.02 2.54 2.06 3.66 4.07 3.66 1.19 0 2.27-.33 2.97-.95v2.42c-1 .48-2.13.74-3.35.74-3.08 0-6.23-1.85-6.23-5.87zm-4.1-.13c0-2.03-1.2-3.7-3.59-3.7-2.4 0-3.6 1.67-3.6 3.7 0 2.03 1.2 3.7 3.6 3.7 2.4 0 3.6-1.67 3.6-3.7zm-9.72 0c0-3.13 2.05-6 6.13-6 4.1 0 6.14 2.87 6.14 6s-2.05 6-6.14 6c-4.08 0-6.13-2.87-6.13-6zm-3.9-1.9c0-1.36-1.08-1.7-2.35-1.7h-2v3.4h2c1.27 0 2.34-.34 2.34-1.7zm-6.82-3.87h4.36c2.78 0 4.97.9 4.97 3.87 0 2.99-2.19 3.88-4.97 3.88h-1.88v3.79h-2.48V8.23zm-10.4 11.54h-2.47V8.23h10.04v11.54h-2.46v-9.31h-5.11v9.3zm-14.26-5.64c.01-4.22 3.11-6.13 6.2-6.13 1.15 0 2.3.25 3.3.74v2.36a4.81 4.81 0 0 0-2.9-.9c-2.02 0-4.06 1.15-4.06 3.93-.02 2.54 2.06 3.66 4.07 3.66 1.18 0 2.27-.33 2.96-.95v2.42c-.98.48-2.12.74-3.34.74-3.08 0-6.23-1.85-6.23-5.87zm-8.12-.13c0-2.03-1.2-3.7-3.6-3.7-2.4 0-3.6 1.67-3.6 3.7 0 2.03 1.2 3.7 3.6 3.7 2.4 0 3.6-1.67 3.6-3.7zm-9.72 0c0-3.13 2.04-6 6.13-6 4.08 0 6.13 2.87 6.13 6s-2.05 6-6.13 6c-4.1 0-6.13-2.87-6.13-6zm-10.36-5.77h9.54v2.23h-3.54v9.3h-2.46v-9.3h-3.54V8.23zm-10.77 5.9c.02-4.22 3.12-6.13 6.2-6.13 1.15 0 2.3.25 3.3.74v2.36a4.81 4.81 0 0 0-2.89-.9c-2.02 0-4.07 1.15-4.07 3.93-.02 2.54 2.06 3.66 4.07 3.66 1.19 0 2.28-.33 2.97-.95v2.42c-.99.48-2.13.74-3.35.74-3.08 0-6.23-1.85-6.23-5.87zm-4.09-.13c0-2.03-1.2-3.7-3.6-3.7-2.4 0-3.6 1.67-3.6 3.7 0 2.03 1.2 3.7 3.6 3.7 2.4 0 3.6-1.67 3.6-3.7zm-9.72 0c0-3.13 2.04-6 6.13-6 4.08 0 6.13 2.87 6.13 6s-2.05 6-6.13 6c-4.1 0-6.14-2.87-6.14-6zm-3.91-1.9c0-1.36-1.08-1.7-2.35-1.7h-1.99v3.4h2c1.26 0 2.34-.34 2.34-1.7zm-6.81-3.87h4.35c2.78 0 4.98.9 4.98 3.87 0 2.99-2.2 3.88-4.98 3.88h-1.88v3.79h-2.47V8.23zm-10.4 11.54H68V8.23h10.04v11.54h-2.46v-9.31h-5.1v9.3zM107.67 32.09c0-.28.01-.46.03-.63.02-.16.03-.33.03-.59v-.08c-.03-.02-.18-.02-.28-.02a56.22 56.22 0 0 1-1.99-.03h-.15l-.03.01a20.61 20.61 0 0 0-.01 2.89c.04.55.06 1.1.07 1.63l.02.74c.01.22-.18 1.03-.86 1.16l-.13.03c-.05.02-.08.02-.11.02a17.12 17.12 0 0 1-.25-.1c-.25-.11-.41-.27-.47-.46-.05-.15-.1-.35-.11-.55l-.04-.65c-.04-.8-.09-1.64-.1-2.46 0-.53.03-1.08.06-1.6l.04-.8c0-.07 0-.17-.03-.26l-.05-.1c-.12-.2-.3-.53-.2-.74.04-.09.12-.14.24-.17.32-.05.6-.04.9-.03l.42.02h.02l1.44-.03c1.77-.05 2.85-.06 3.02.1.17.17.2.64.2 1.14l.01.23.01.1.12 1.4c.05.58.05 1.18.06 1.76 0 .58 0 1.18.05 1.75 0 .47-.54.73-1.04.77-.14.01-.57.05-.68-.27a1.35 1.35 0 0 1-.08-.33 339.62 339.62 0 0 1-.13-3.85zm35.83-2.54c.44.19.8.45 1.1.81a3 3 0 0 1 .8 2.01v.22a4.62 4.62 0 0 1-2.07 3.88 2.85 2.85 0 0 1-1.72.48c-.75 0-1.4-.17-2.1-.56a3.1 3.1 0 0 1-1.34-1.48c-.23-.48-.34-1-.34-1.53 0-.65.04-1.4.27-2.14.11-.36.27-.77.67-1.12l.14-.13c.14-.12.27-.24.44-.34.16-.1.42-.21.77-.21h.76l1.16-.1c.54-.04 1.03.02 1.46.21zm-.7 5.29c.74-1.12.91-2.03.57-2.88-.14-.35-.68-1.45-1.73-1.26-.6.11-1.3.75-1.35.85l-.01.01c-.1.3-.2.6-.27.89a5.1 5.1 0 0 0-.1 1.7v.03c.04.55.07.95.63 1.38.24.18.56.25.9.2a2.1 2.1 0 0 0 1.36-.92zm-51.12-.98l.03-.47c0-.07.01-.16-.02-.19-.01 0-.07-.03-.26.01-.62.12-1.37.23-2.12.31l-.11.01-.14.02v.07c-.02.13-.01.32 0 .55 0 1.21-.01 2.42-.48 2.7-.2.12-1.04.07-1.4-.37-.2-.23-.3-1.08-.3-1.61a13.8 13.8 0 0 1 .08-1.53l.06-.95c.03-.5.04-1.02.04-1.55.04-.77.24-1.28.58-1.5a.82.82 0 0 1 .7-.1c.34.1.56.4.68.56.05.07.04.21.02.52l-.01.16a69.34 69.34 0 0 0 .02 1.65c.02.02.14.02.19.03.3.03 1.29-.1 1.94-.2l.59-.07v-.01-.12l-.01-.53c0-.12-.02-.24-.02-.56l.02-.68.01-.17c0-.11.11-.31.3-.47a1 1 0 0 1 .77-.21c.27.03.6.22.77.43.08.1.11.19.1.27l.04 1.83c.04 1.37.09 3.07.08 3.82 0 .4-.07.72-.23 1.02-.03.14-.17.26-.4.34-.14.05-.3.07-.44.07a.65.65 0 0 1-.35-.07 2.29 2.29 0 0 1-.8-1.74l.08-1.27zm-21.28.38c-.02.5-.05 1.03-.04 1.38.04 1.21-.21 1.96-.77 2.28a1.27 1.27 0 0 1-.88.05.9.9 0 0 1-.57-.5c-.15-.34-.14-.74-.14-1.1v-.25c0-.89.05-2 .1-3.06.04-.94.07-1.83.08-2.58a14.03 14.03 0 0 1 .12-1.63v-.12c.02-.15.04-.3.02-.44-.04-.32.37-1.16 1.01-1.26.25-.04.48.02.67.17.25.2.38.52.39.68a27.8 27.8 0 0 0 .03.83l-.03 1.45-.01.82v.17l.29-.06c.78-.17 2.61-.56 3.02-.6.21-.02.21-.02.21-.13.02-.5.02-1.03.02-1.56 0-.12.02-1.16.76-1.37.26-.1.6-.05.83.11.25.18.38.48.37.84 0 .24 0 .39-.02.53l-.01.5v.88c.17.07.64.33.66.66 0 .47-.45.8-.6.88l.05.71.05.83.03 1.72c0 .8-.08 1.4-.48 1.98l-.06.06c-.17.16-.5.48-.81.43-.17-.03-.31-.14-.43-.34-.18-.33-.19-.52-.22-.95v-.11a17.86 17.86 0 0 1-.04-.97c-.03-.48-.05-1.16-.07-1.82 0-.44-.02-.85-.03-1.17 0-.04 0-.12-.02-.13-.03-.03-.19-.02-.25-.02-.4.02-.96.13-1.5.23-.51.1-.99.18-1.35.2-.34.03-.34.03-.33.25.02.38-.01.97-.05 1.53zm78.19-5.93v.07a1.04 1.04 0 0 1 .01.4l-.02.2c0 .41-.37 4.56-.42 4.82l-.02.13c-.04.23-.06.33-.06.6 0 .15-.05.47-.2.58a.2.2 0 0 1-.17.04c-.23-.05-1.22-.6-1.22-1.3a43.36 43.36 0 0 1 .07-1.69c0-.06.02-.11.03-.39a107.12 107.12 0 0 0 .01-2.7c0-.22-.02-.45 0-.68.03-.57.54-.9 1.01-.92h.04a.9.9 0 0 1 .94.84zM131 29.98c0-.16.18-.82.97-.82.15 0 .28.05.4.17.38.36.46 1.24.46 1.36a47.34 47.34 0 0 0 .02 1.27l.15.02c.4.04.79.09 1.19.12.25.03.55.06.82.16l.07.02v-.12-.66l-.02-.84.01-.43.01-.22c0-.21.34-.85.8-.85.47 0 .8.5.86 1.34l.03.34c.03.3.06.62.06.93v3.83c-.01.39-.07.7-.2 1a.95.95 0 0 1-.55.42.54.54 0 0 1-.47-.1c-.51-.39-.67-1.13-.66-1.7l.06-1.2.02-.5v-.14a67.03 67.03 0 0 0-1.99-.15h-.02c-.14 0-.2.1-.24.72-.02.21-.06.42-.1.62-.04.14-.06.19-.1.22v.13c0 .08-.03.14-.08.18-.07.06-.18.07-.35.05a1.1 1.1 0 0 1-.6-.3l-.25-.2c-.3-.28-.41-.37-.41-.9 0-.13.02-.3.04-.48.03-.2.06-.44.07-.71.02-.5.03-1 .03-1.51l-.01-.52-.02-.55zm-20.19 4.7l.08-.94.03-.42c.01-.17-.11-.3-.33-.47-.06-.05-.15-.12-.13-.23.01-.04.05-.12.12-.13.04 0 .38-.06.38-.3l-.01-.97-.01-1.23a.68.68 0 0 1 .3-.52c.54-.38 1.61-.32 1.85-.27.68.14 1.3.35 1.86.62l.79.4c.7.4 1.13.88 1.27 1.45.1.42-.07.8-.5 1.13-.37.28-.87.5-1.52.67a12.2 12.2 0 0 1-2.11.34l-.01.07-.01.4c0 .21 0 .43-.02.65l-.09 1.27-.02.25c0 .06-.02.13-.04.2l-.01.05c-.04.2-.27.33-.55.33-.05 0-.1 0-.16-.02-.4-.06-1.08-.68-1.18-.86-.05-.08-.1-.17-.09-.27l.05-.51.06-.68zm1.87-2.44c.08 0 .15 0 .2-.02.36-.1 1.13-.17 1.48-.27.24-.08.44-.2.61-.33.25-.2.4-.41.35-.67-.02-.1-.07-.2-.22-.26a6.1 6.1 0 0 0-2.4-.25c-.1.01-.15.04-.15.1v.1l.07 1.42c0 .06.03.11.06.18zm17.6-2.4c.04.09-.01.2-.06.3-.02.04-.07.13-.06.15.04.05.01.1 0 .13l-.05.2-.05.01-.07.03a.98.98 0 0 1-.2.05h-.24c-.32 0-.79 0-1.26.34a4.25 4.25 0 0 0-1.31 2.04c-.2.54-.27 1.11-.22 1.7a1.79 1.79 0 0 0 .73 1.28c.19.17.47.23.87.2a4.88 4.88 0 0 0 1.5-.38l1.3-.56c.24-.1.27-.09.52 0h.13c.1.02.17.04.19.1 0 .02.05.03.09.05l.07.03c.08.04.25.14.2.34-.1.3-.36.55-.81.77a5.64 5.64 0 0 1-3.43.49l-.09-.02c-.45-.07-.9-.15-1.32-.33a3.4 3.4 0 0 1-1.41-1.03 2.77 2.77 0 0 1-.6-1.64 6.08 6.08 0 0 1 1.34-3.76c.85-1.03 2.26-1.24 4.07-.6l.07.02c.06.02.09.06.1.1zm-52.97 5.8v-.1a49.58 49.58 0 0 0-.13-4.3c0-.16.04-.3.08-.44l.04-.12c.14-.53.52-.9 2.02-1.13l.66-.06c.4-.04.78-.1 1.16-.15.58-.08 1.17-.16 1.78-.18h.02c.42 0 .7.29.73.56.03.25-.14.55-.7.65-.53.09-3.14.45-3.35.47-.11.02-.23.03-.26.05l.01.06c.04.27.05.48.06.68.01.2.02.4.06.67 0 .04.02.07.03.1v.01h.05l.15.01c.42 0 .86-.06 1.29-.11.43-.06.88-.12 1.31-.12.47-.01.77.11.8.33.04.31-.49.63-1.35.8l-.5.11c-.82.18-1.48.32-1.72.35-.02.24-.02.5-.03.76 0 .24-.01.5-.03.73h.2c.51 0 1.02-.06 1.51-.12.5-.05 1-.1 1.53-.11h.34l.25.02c.22 0 .4.13.49.33.09.21.08.46-.03.57a.8.8 0 0 1-.28.19c-.36.14-2.57.4-4.62.62a286.32 286.32 0 0 0-1.03.1h-.15c-.46-.19-.42-.92-.4-1.24zm70.53-.09c.34.11.5.86.42 1.15-.1.32-.83.78-1.23.78H147c-.4-.02-.98-.42-1.17-.73-.23-.38.15-1.04.3-1.24l.02-.03c.02 0 .28-.23.6-.31.27-.07.59.11.84.26l.25.12zm-45.08-2.04c-.12.28-.81.58-1.07.69.11.21.41.83.54 1.18.18.5.04.84-.42 1.04a.73.73 0 0 1-.58-.02 1.5 1.5 0 0 1-.79-.91c-.15-.48-.4-.84-.48-.96l-2.86.58c-.11.24-.71 1.52-1.14 2l-.19.22c-.3.36-.46.55-1.04.57h-.03a.47.47 0 0 1-.4-.2c-.26-.36-.14-1.14.12-1.73a70.37 70.37 0 0 1 1.67-3.56l.61-1.08c.35-.57 1.5-2.17 2.33-2.17h.02c.26 0 .43.08.51.2.14.21 0 .51-.1.75l-.03.07-1.65 3.42 1.91-.3a4.83 4.83 0 0 1-.31-1.48c.07-1 .2-1.38.42-1.38.36 0 .9 1.49.91 1.5.13.36.45.97.54 1.14.32-.03 1.35-.08 1.5.25a.2.2 0 0 1 0 .18zm18.8-3.07c.36 0 .9 1.49.9 1.5.13.36.45.97.55 1.14.32-.03 1.34-.08 1.5.25.03.05.03.11 0 .18-.12.28-.82.59-1.07.69.12.29.55 1.37.68 1.74.18.5.04.83-.42 1.03a.72.72 0 0 1-.58-.02c-.35-.15-.66-.5-.78-.9-.16-.51-.54-1.3-.64-1.52l-2.85.58a6 6 0 0 1-1 1.56c-.31.37-.47.55-1.05.57h-.02a.47.47 0 0 1-.4-.19c-.27-.36-.14-1.16.12-1.73l.13-.3c.35-.8.88-2 1.22-2.6l.6-1.09c.35-.57 1.5-2.17 2.33-2.17h.02c.26 0 .43.08.52.2.13.21 0 .51-.11.75l-.03.07-1.64 3.42 1.9-.3a4.83 4.83 0 0 1-.3-1.48c.07-1 .18-1.38.42-1.38zm22.25 7.5c.64 0 1.24.9-.26.98L70.76 40c-1.27 0-.45-1.64.53-1.64l72.53-.42z"
      fill="#161833" />
    <path d="M15 6c-4.96 0-9 4.04-9 9v10c0 4.96 4.04 9 9 9h25c3.88 0 7.32 1.03 10 2.83V15c0-4.96-4.04-9-9-9H15zm41 42h-6c0-4.71-4.11-8-10-8H15C6.73 40 0 33.27 0 25V15C0 6.73 6.73 0 15 0h26c8.27 0 15 6.73 15 15v33z"
      fill="#FFC750" />
  </g>
</svg>