<svg
  id="logo_short"
  width="200"
  height="38"
  xmlns="http://www.w3.org/2000/svg"
>
  <g fill="none" fillRule="evenodd">
    <path
      d="M194.23 19.16V22h1.68c1.07 0 1.97-.28 1.97-1.41s-.9-1.41-1.97-1.41h-1.68zm1.58 4.65h-3.66v-9.62h2.08v3.16h1.58c2.35.02 4.19.74 4.19 3.23s-1.84 3.23-4.19 3.23zm-13.22-9.62h8.03v1.86h-2.98v7.76h-2.06v-7.76h-2.99v-1.86zm-1.52 9.62h-2.08v-4.96c0-.44.01-.92.04-1.32l-4.52 6.28h-1.96v-9.62h2.08v4.96c0 .44-.01.92-.04 1.32l4.52-6.28h1.96v9.62zm-18.43-4.7c0-3.52 2.62-5.11 5.2-5.11.98 0 1.95.2 2.78.62v1.96a4.07 4.07 0 0 0-2.42-.75c-1.71 0-3.43.96-3.43 3.28-.01 2.12 1.73 3.05 3.43 3.05 1 0 1.9-.28 2.5-.8v2.02a6.5 6.5 0 0 1-2.82.62c-2.6 0-5.24-1.54-5.24-4.89zm-3.45-.11c0-1.69-1-3.1-3.02-3.1s-3.04 1.41-3.04 3.1c0 1.69 1.02 3.1 3.04 3.1 2.01 0 3.02-1.41 3.02-3.1zm-8.18 0c0-2.61 1.72-5 5.16-5 3.44 0 5.16 2.39 5.16 5s-1.72 5-5.16 5c-3.44 0-5.16-2.39-5.16-5zm-3.29-1.58c0-1.14-.9-1.41-1.97-1.41h-1.67v2.82h1.67c1.07 0 1.97-.28 1.97-1.41zM142 14.19h3.66c2.34 0 4.19.74 4.19 3.23s-1.85 3.23-4.2 3.23h-1.57v3.16H142v-9.62zm-8.76 9.62h-2.07v-9.62h8.44v9.62h-2.07v-7.76h-4.3v7.76zm-12-4.7c.02-3.52 2.63-5.11 5.22-5.11.97 0 1.94.2 2.77.62v1.96a4.07 4.07 0 0 0-2.42-.75c-1.7 0-3.43.96-3.43 3.28-.01 2.12 1.74 3.05 3.43 3.05 1 0 1.91-.28 2.5-.8v2.02a6.5 6.5 0 0 1-2.82.62c-2.6 0-5.24-1.54-5.24-4.89zm-6.82-.11c0-1.69-1.01-3.1-3.02-3.1-2.03 0-3.04 1.41-3.04 3.1 0 1.69 1.01 3.1 3.04 3.1 2 0 3.02-1.41 3.02-3.1zm-8.18 0c0-2.61 1.72-5 5.16-5 3.44 0 5.15 2.39 5.15 5s-1.71 5-5.15 5c-3.44 0-5.16-2.39-5.16-5zm-8.71-4.8h8.03v1.85h-2.98v7.76h-2.07v-7.76h-2.98v-1.86zm-9.06 4.91c.01-3.52 2.62-5.11 5.21-5.11.98 0 1.94.2 2.78.62v1.96a4.07 4.07 0 0 0-2.43-.75c-1.7 0-3.42.96-3.42 3.28-.02 2.12 1.73 3.05 3.42 3.05 1 0 1.91-.28 2.5-.8v2.02a6.5 6.5 0 0 1-2.82.62c-2.59 0-5.24-1.54-5.24-4.89zM85.03 19c0-1.69-1.01-3.1-3.02-3.1-2.03 0-3.04 1.41-3.04 3.1 0 1.69 1.01 3.1 3.04 3.1 2 0 3.02-1.41 3.02-3.1zm-8.18 0c0-2.61 1.72-5 5.16-5 3.43 0 5.15 2.39 5.15 5s-1.72 5-5.15 5c-3.44 0-5.16-2.39-5.16-5zm-3.3-1.58c0-1.14-.9-1.41-1.96-1.41h-1.68v2.82h1.68c1.07 0 1.97-.28 1.97-1.41zm-5.72-3.23h3.66c2.35 0 4.19.74 4.19 3.23s-1.84 3.23-4.19 3.23h-1.58v3.16h-2.08v-9.62zm-8.75 9.62H57v-9.62h8.44v9.62h-2.06v-7.76h-4.3v7.76z"
      fill="#161833"
    />
    <path
      d="M12.32 4.75c-4.07 0-7.4 3.2-7.4 7.13v7.91a7.27 7.27 0 0 0 7.4 7.13h20.54c3.19 0 6 .81 8.21 2.23V11.88a7.27 7.27 0 0 0-7.4-7.13H12.33zM46 38h-4.93c0-3.73-3.38-6.33-8.21-6.33H12.32C5.52 31.67 0 26.34 0 19.79v-7.91C0 5.33 5.53 0 12.32 0h21.36C40.48 0 46 5.33 46 11.88V38z"
      fill="#FFC750"
    />
  </g>
</svg>