<svg width="174" height="20" viewBox="0 0 174 20" fill="none" xmlns="http://www.w3.org/2000/svg">
<path d="M11.3036 0.469803V6.41895C10.6387 8.72816 8.72215 10.2546 6.25804 10.2546C6.21893 10.2546 6.1407 10.2546 6.06248 10.2546C5.71046 10.2154 4.65442 9.98062 4.65442 8.29763C4.65442 6.73207 4.65442 0.430664 4.65442 0.430664H0V5.12736C0 9.8632 3.91128 11.1548 6.25804 11.1548C8.37013 11.1548 10.2084 10.1372 11.3036 8.49333V16.6734H15.958V0.469803H11.3036Z" fill="#151833"/>
<path d="M33.5586 0.469604H27.6917H23.0764H17.366V1.3698H23.0764V16.6732H27.6917V1.3698H33.5586V0.469604Z" fill="#151833"/>
<path d="M51.1202 8.45406C51.1202 13.1116 47.4044 16.9081 41.694 16.9081C35.9444 16.9081 32.2287 13.1116 32.2287 8.45406C32.2678 3.7965 35.3577 0 41.694 0C47.9129 0 51.1202 3.7965 51.1202 8.45406ZM36.7658 8.21922C36.492 14.051 38.6823 15.8905 41.342 16.047C44.0799 16.1645 46.3093 14.8337 46.6222 8.64975C46.896 2.93544 44.8621 0.978479 42.0851 0.821922C39.3081 0.704505 37.0396 2.58318 36.7658 8.21922Z" fill="#151833"/>
<path d="M74.4317 15.773H72.9454V1.3698V0.469604H63.4019V1.3698C63.3628 3.48332 63.089 12.5245 60.5075 15.1076C60.0773 15.5382 59.6471 15.7339 59.1386 15.7339H58.7866H57.3003L58.5128 20H60.9769V16.6732H71.772V20H74.2361L75.4486 15.7339H74.4317V15.773ZM68.291 15.773H61.1725C64.0277 12.8767 64.3015 3.60074 64.3015 1.3698H68.291V15.773Z" fill="#151833"/>
<path d="M93.1666 8.57161H93.5969C93.5969 3.91405 89.3727 0.117554 84.5227 0.117554C79.6727 0.117554 75.4877 3.91405 75.4877 8.57161C75.4877 14.6382 80.455 17.1039 85.3441 17.1039C91.7195 17.1039 93.1666 12.2115 93.1666 12.2115L92.0324 12.1724C92.0324 12.1724 90.7025 16.2429 85.3832 16.2429C82.7235 16.2429 79.9856 13.8554 79.9856 8.57161H89.138H93.1666ZM79.9856 7.67141C80.1812 2.70074 81.9022 0.978615 84.5227 0.978615C87.1433 0.978615 88.9033 2.6616 89.0598 7.67141H79.9856Z" fill="#151833"/>
<path d="M100.794 0.469604V1.3698H100.833C100.794 3.40504 100.481 8.68882 98.7989 11.546C97.9384 12.9941 96.9606 13.1898 94.7703 13.1898C94.5747 13.1898 94.2618 13.1898 94.0272 13.1898V16.8298C94.4574 16.8298 94.5356 16.8298 94.9659 16.8298C99.19 16.8298 101.654 11.6243 101.732 1.3698H105.331V16.6732H109.985V1.3698V0.469604H100.794Z" fill="#151833"/>
<path d="M121.64 0.117554C117.455 0.117554 113.818 2.27021 113.231 5.3622H116.751C117.064 3.24869 118.472 1.05689 121.562 1.05689C125.121 1.05689 125.591 4.77511 125.669 6.69293C124.144 6.69293 121.484 6.69293 120.037 6.69293C114.326 6.69293 112.371 9.23697 112.371 12.055C112.371 14.873 115.03 16.9865 118.159 16.9865C122.149 16.9865 124.457 15.421 125.669 14.0511C125.669 14.8339 125.669 16.6343 125.669 16.6343H130.245V15.7341C130.245 13.9337 130.245 9.98062 130.245 7.98452C130.284 2.6616 126.49 0.117554 121.64 0.117554ZM120.271 15.3818C118.59 15.3818 117.064 14.0902 117.064 11.6245C117.064 9.23698 118.355 7.59313 121.797 7.59313C124.261 7.59313 125.708 7.59313 125.708 7.59313V13.0335C125.708 12.9943 124.535 15.3818 120.271 15.3818Z" fill="#151833"/>
<path d="M146.477 0.469604H140.61H135.956H130.245V1.3698H135.956V16.6732H140.61V1.3698H146.477V0.469604Z" fill="#151833"/>
<path d="M156.49 4.93147C155.199 4.93147 153.87 4.93147 153.009 4.93147V0.469604H148.355V16.6732H151.445C151.445 16.6732 153.83 16.6732 156.177 16.6732C159.267 16.6732 163.335 15.1859 163.335 10.7632C163.335 6.30134 160.01 4.93147 156.49 4.93147ZM154.926 15.773C153.4 15.773 153.009 15.773 153.009 15.773V5.71425C153.009 5.71425 154.026 5.71425 155.043 5.71425C157.976 5.71425 158.954 7.59293 158.954 10.4892C158.954 13.8943 157.82 15.773 154.926 15.773Z" fill="#151833"/>
<rect x="168.751" y="1.66663" width="4.58337" height="4.58337" rx="2.29169" fill="#151833"/>
<rect x="168.751" y="12.2917" width="4.58337" height="4.58337" rx="2.29169" fill="#151833"/>
</svg>
