<svg width="208" height="24" viewBox="0 0 208 24" fill="none" xmlns="http://www.w3.org/2000/svg">
<path d="M13.5642 0.56369V7.70261C12.7663 10.4736 10.4665 12.3053 7.50958 12.3053C7.46265 12.3053 7.36878 12.3053 7.27491 12.3053C6.85249 12.2584 5.58525 11.9766 5.58525 9.957C5.58525 8.07834 5.58525 0.516724 5.58525 0.516724H0V6.15271C0 11.8357 4.69349 13.3856 7.50958 13.3856C10.0441 13.3856 12.25 12.1644 13.5642 10.1918V20.0078H19.1494V0.56369H13.5642Z" fill="#151833"/>
<path d="M40.27 0.563477H33.2298H27.6915H20.839V1.64371H27.6915V20.0076H33.2298V1.64371H40.27V0.563477Z" fill="#151833"/>
<path d="M61.3437 10.1448C61.3437 15.7338 56.8848 20.2896 50.0323 20.2896C43.1329 20.2896 38.6741 15.7338 38.6741 10.1448C38.721 4.55576 42.4289 0 50.0323 0C57.495 0 61.3437 4.55576 61.3437 10.1448ZM44.1185 9.86298C43.79 16.861 46.4184 19.0684 49.6099 19.2563C52.8954 19.3972 55.5707 17.8003 55.9461 10.3796C56.2747 3.52249 53.8341 1.17416 50.5017 0.986298C47.1693 0.845398 44.4471 3.09979 44.1185 9.86298Z" fill="#151833"/>
<path d="M89.3172 18.9274H87.5337V1.64371V0.563477H76.0816V1.64371C76.0347 4.1799 75.7061 15.0292 72.6084 18.129C72.0921 18.6456 71.5759 18.8804 70.9657 18.8804H70.5433H68.7598L70.2148 23.9998H73.1716V20.0076H86.1257V23.9998H89.0826L90.5376 18.8804H89.3172V18.9274ZM81.9485 18.9274H73.4063C76.8326 15.4519 77.1611 4.3208 77.1611 1.64371H81.9485V18.9274Z" fill="#151833"/>
<path d="M111.799 10.2859H112.315C112.315 4.69687 107.246 0.141113 101.426 0.141113C95.6064 0.141113 90.5844 4.69687 90.5844 10.2859C90.5844 17.5657 96.5451 20.5246 102.412 20.5246C110.062 20.5246 111.799 14.6538 111.799 14.6538L110.438 14.6068C110.438 14.6068 108.842 19.4913 102.459 19.4913C99.2674 19.4913 95.9819 16.6264 95.9819 10.2859H106.965H111.799ZM95.9819 9.20566C96.2166 3.24091 98.2817 1.17438 101.426 1.17438C104.571 1.17438 106.683 3.19394 106.871 9.20566H95.9819Z" fill="#151833"/>
<path d="M120.951 0.563477V1.64371H120.998C120.951 4.08597 120.576 10.4265 118.558 13.855C117.525 15.5928 116.352 15.8276 113.723 15.8276C113.489 15.8276 113.113 15.8276 112.832 15.8276V20.1955C113.348 20.1955 113.442 20.1955 113.958 20.1955C119.027 20.1955 121.984 13.9489 122.078 1.64371H126.396V20.0076H131.981V1.64371V0.563477H120.951Z" fill="#151833"/>
<path d="M145.967 0.141113C140.945 0.141113 136.58 2.72427 135.876 6.43463H140.1C140.476 3.89844 142.165 1.26831 145.873 1.26831C150.144 1.26831 150.708 5.73013 150.801 8.0315C148.971 8.0315 145.779 8.0315 144.043 8.0315C137.19 8.0315 134.844 11.0843 134.844 14.4659C134.844 17.8475 138.035 20.3837 141.79 20.3837C146.577 20.3837 149.347 18.505 150.801 16.8612C150.801 17.8005 150.801 19.961 150.801 19.961H156.293V18.8808C156.293 16.7203 156.293 11.9767 156.293 9.58139C156.34 3.19394 151.787 0.141113 145.967 0.141113ZM144.324 18.4581C142.306 18.4581 140.476 16.9082 140.476 13.9493C140.476 11.0843 142.025 9.11173 146.155 9.11173C149.112 9.11173 150.848 9.11173 150.848 9.11173V15.6401C150.848 15.5931 149.44 18.4581 144.324 18.4581Z" fill="#151833"/>
<path d="M175.771 0.563477H168.731H163.145H156.293V1.64371H163.145V20.0076H168.731V1.64371H175.771V0.563477Z" fill="#151833"/>
<path d="M187.786 5.91766C186.238 5.91766 184.642 5.91766 183.609 5.91766V0.563477H178.024V20.0076H181.732C181.732 20.0076 184.595 20.0076 187.411 20.0076C191.119 20.0076 196 18.2229 196 12.9157C196 7.56149 192.011 5.91766 187.786 5.91766ZM185.909 18.9274C184.079 18.9274 183.609 18.9274 183.609 18.9274V6.857C183.609 6.857 184.829 6.857 186.05 6.857C189.57 6.857 190.743 9.11139 190.743 12.5869C190.743 16.673 189.382 18.9274 185.909 18.9274Z" fill="#151833"/>
<rect x="202.5" y="2" width="5.5" height="5.5" rx="2.75" fill="#151833"/>
<rect x="202.5" y="14.75" width="5.5" height="5.5" rx="2.75" fill="#151833"/>
</svg>
