<svg width="24" height="24" xmlns="http://www.w3.org/2000/svg">
  <path d="M12.2 21.3c-.4.39-1.03.4-1.43 0a.97.97 0 0 1 0-1.4l7.37-7.16c2.37-2.3 2.44-5 .2-7.17-1.07-1.05-3.93-3.13-7.34.2l-5.84 5.67c-.8.79-1.19 1.58-1.13 2.34.06.84.64 1.57 1.12 2.03.66.65 1.31.98 1.94 1 .73.02 1.52-.37 2.35-1.19l6.04-5.86c.4-.4 1.04-.4 1.44-.01a.97.97 0 0 1-.01 1.4l-6.04 5.87c-1.24 1.21-2.53 1.8-3.84 1.76a4.96 4.96 0 0 1-3.31-1.57 5.21 5.21 0 0 1-1.7-3.28c-.11-1.37.47-2.67 1.71-3.88l5.84-5.68c3.16-3.09 7.17-3.16 10.2-.2 3.04 2.97 2.96 6.88-.2 9.96L12.2 21.3z" fill="#616681" fill-rule="evenodd"/>
</svg>
