<?xml version="1.0" encoding="UTF-8"?>
<svg width="24px" height="24px" viewBox="0 0 24 24" version="1.1" xmlns="http://www.w3.org/2000/svg" xmlns:xlink="http://www.w3.org/1999/xlink">
    <!-- Generator: Sketch 52.3 (67297) - http://www.bohemiancoding.com/sketch -->
    <title>24x24_new-message</title>
    <desc>Created with Sketch.</desc>
    <g id="24x24_new-message" stroke="none" stroke-width="1" fill="none" fill-rule="evenodd">
        <g id="Group" transform="translate(2.000000, 0.000000)">
            <path d="M18,10 C14.691,10 12,7.309 12,4 C12,3.298 12.127,2.627 12.35,2 L6,2 C2.687,2 0,4.687 0,8 L0,20.586 C0,20.851 0.105,21.105 0.293,21.293 C0.684,21.684 1.316,21.684 1.707,21.293 L3.829,19.172 C4.579,18.422 5.596,18 6.657,18 L14,18 C17.313,18 20,15.313 20,12 L20,9.65 C19.373,9.873 18.702,10 18,10" id="Fill-3" fill="#FFE9B6"></path>
            <path d="M18,10 L18,12 C18,14.205 16.206,16 14,16 L6.657,16 C5.054,16 3.547,16.624 2.414,17.758 L2,18.172 L2,8 C2,5.794 3.794,4 6,4 L12,4 C12,3.298 12.127,2.627 12.35,2 L6,2 C2.687,2 0,4.687 0,8 L0,20.586 C0,20.851 0.105,21.105 0.293,21.293 C0.488,21.488 0.744,21.586 1,21.586 C1.256,21.586 1.512,21.488 1.707,21.293 L3.829,19.172 C4.579,18.422 5.596,18 6.657,18 L14,18 C17.313,18 20,15.313 20,12 L20,9.65 C19.373,9.873 18.702,10 18,10" id="Fill-6" fill="#FFD46D"></path>
            <path d="M18,8 C20.209,8 22,6.209 22,4 C22,1.791 20.209,8.8817842e-16 18,8.8817842e-16 C15.791,8.8817842e-16 14,1.791 14,4 C14,6.209 15.791,8 18,8" id="Fill-1" fill="#F24141"></path>
        </g>
    </g>
</svg>