<svg width="24" height="24" xmlns="http://www.w3.org/2000/svg">
  <g fill="#B3B4C8" fill-rule="nonzero">
    <path d="M12.78 21.17a29.16 29.16 0 0 0 3-2.73C18.42 15.64 20 12.75 20 10a8 8 0 0 0-16 0c0 2.75 1.57 5.64 4.23 8.44A29.16 29.16 0 0 0 12 21.77l.78-.6zm4.45-1.36a31.13 31.13 0 0 1-4.68 4.02 1 1 0 0 1-1.1 0 28.42 28.42 0 0 1-1.47-1.1 31.13 31.13 0 0 1-3.2-2.92C3.8 16.68 2 13.37 2 10a10 10 0 0 1 20 0c0 3.37-1.8 6.68-4.77 9.81z"/>
    <path d="M12 14a4 4 0 1 1 0-8 4 4 0 0 1 0 8zm0-2a2 2 0 1 0 0-4 2 2 0 0 0 0 4z"/>
  </g>
</svg>
