<svg width="24" height="24" xmlns="http://www.w3.org/2000/svg">
  <path d="M21 16.92v-.02a1 1 0 0 0-.85-1.02 13.85 13.85 0 0 1-3.03-.75 1 1 0 0 0-1.05.22l-1.27 1.27a1 1 0 0 1-1.2.16 17 17 0 0 1-6.38-6.38 1 1 0 0 1 .16-1.2l1.27-1.26a1 1 0 0 0 .22-1.06c-.36-.98-.61-2-.75-3.02A1 1 0 0 0 7.11 3h-3a1 1 0 0 0-1 1.07 18.8 18.8 0 0 0 2.92 8.24c1.46 2.3 3.4 4.24 5.7 5.7 2.47 1.6 5.28 2.6 8.18 2.91a1 1 0 0 0 1.09-1v-3zm2 3a3 3 0 0 1-3.29 3 20.78 20.78 0 0 1-9.06-3.23 20.49 20.49 0 0 1-6.3-6.3 20.8 20.8 0 0 1-3.23-9.12A3 3 0 0 1 4.11 1H7.1a3 3 0 0 1 3 2.59c.12.88.33 1.75.65 2.59a3 3 0 0 1-.68 3.17l-.72.71a15 15 0 0 0 4.59 4.59l.72-.72a3 3 0 0 1 3.16-.68c.84.32 1.7.53 2.6.65A3 3 0 0 1 23 16.93v2.99z" fill="#B3B4C8" fill-rule="nonzero"/>
</svg>
