<svg width="24" height="24" xmlns="http://www.w3.org/2000/svg">
  <path d="M12 16a4 4 0 1 1 0-8 4 4 0 0 1 0 8zm0-2a2 2 0 1 0 0-4 2 2 0 0 0 0 4zm5.5-8.91a1 1 0 0 1-1.24.14 7.95 7.95 0 0 0-2.48-1.03 1 1 0 0 1-.78-.98V2h-2v1.22a1 1 0 0 1-.78.98c-.88.2-1.72.55-2.48 1.03a1 1 0 0 1-1.24-.14l-.86-.87-1.42 1.42.87.86a1 1 0 0 1 .14 1.24c-.48.76-.83 1.6-1.03 2.48a1 1 0 0 1-.98.78H2v2h1.22a1 1 0 0 1 .98.78c.2.88.55 1.72 1.03 2.48a1 1 0 0 1-.14 1.24l-.87.86 1.42 1.42.86-.87a1 1 0 0 1 1.24-.14c.76.48 1.6.83 2.48 1.03.46.1.78.51.78.98V22h2v-1.22a1 1 0 0 1 .78-.98c.88-.2 1.72-.55 2.48-1.03a1 1 0 0 1 1.24.14l.86.87 1.42-1.42-.87-.86a1 1 0 0 1-.14-1.24c.48-.76.83-1.6 1.03-2.48a1 1 0 0 1 .98-.78H22v-2h-1.22a1 1 0 0 1-.98-.78 7.95 7.95 0 0 0-1.03-2.48 1 1 0 0 1 .14-1.24l.87-.86-1.42-1.42-.86.87zm.16-2.99a1 1 0 0 1 1.41 0l2.83 2.83a1 1 0 0 1 0 1.41l-1.03 1.03c.27.52.5 1.07.67 1.63H23a1 1 0 0 1 1 1v4a1 1 0 0 1-1 1h-1.46c-.17.56-.4 1.1-.67 1.63l1.03 1.03a1 1 0 0 1 0 1.41l-2.83 2.83a1 1 0 0 1-1.41 0l-1.03-1.03c-.52.27-1.07.5-1.63.67V23a1 1 0 0 1-1 1h-4a1 1 0 0 1-1-1v-1.46c-.56-.17-1.1-.4-1.63-.67L6.34 21.9a1 1 0 0 1-1.41 0L2.1 19.07a1 1 0 0 1 0-1.41l1.03-1.03A9.94 9.94 0 0 1 2.46 15H1a1 1 0 0 1-1-1v-4a1 1 0 0 1 1-1h1.46c.17-.56.4-1.1.67-1.63L2.1 6.34a1 1 0 0 1 0-1.41L4.93 2.1a1 1 0 0 1 1.41 0l1.03 1.03c.52-.27 1.07-.5 1.63-.67V1a1 1 0 0 1 1-1h4a1 1 0 0 1 1 1v1.46c.56.17 1.1.4 1.63.67l1.03-1.03z" fill="#FFF" fill-rule="nonzero"/>
</svg>
