<svg width="32" height="32" xmlns="http://www.w3.org/2000/svg">
  <g fill="none" fill-rule="evenodd">
    <path d="M28 10a6 6 0 0 1-5.91-7H9a7 7 0 0 0-7 7v18.59a1 1 0 0 0 1.7.7l1.54-1.53A6 6 0 0 1 9.48 26H23a7 7 0 0 0 7-7v-9l-.02-.34c-.62.21-1.29.34-1.98.34" fill="#3C54EE"/>
    <path d="M16 13.5a1.5 1.5 0 1 1 0 3 1.5 1.5 0 0 1 0-3M22 13.5a1.5 1.5 0 1 1 0 3 1.5 1.5 0 0 1 0-3M10 13.5a1.5 1.5 0 1 1 0 3 1.5 1.5 0 0 1 0-3" fill="#FFF"/>
    <path d="M28 8a4 4 0 1 0 0-8 4 4 0 0 0 0 8" fill="#F24141"/>
  </g>
</svg>
