<svg
  id="foundation-logo"
  width="146"
  height="56"
  xmlns="http://www.w3.org/2000/svg"
>
  <g fillRule="nonzero" fill="none">
    <path
      d="M51.79 13.3v2.77c-.96 0-1.62-.5-1.62-1.4 0-.86.66-1.36 1.62-1.36zm2.02 0c.96 0 1.62.5 1.62 1.38 0 .9-.66 1.39-1.62 1.39V13.3zM51.8 17.8v.78h2.02v-.78c2.36 0 3.69-1.34 3.69-3.14 0-1.78-1.35-3.06-3.69-3.06v-.62H51.8v.62c-2.34 0-3.69 1.28-3.69 3.06 0 1.8 1.33 3.14 3.69 3.14zM62.32 12.88c1.12 0 1.87.88 1.87 1.89 0 1.03-.73 1.89-1.84 1.89-1.1 0-1.86-.88-1.86-1.9s.74-1.88 1.83-1.88m0 5.53c2.25 0 3.93-1.63 3.93-3.64 0-2.03-1.66-3.64-3.9-3.64-2.25 0-3.93 1.63-3.93 3.64 0 2.03 1.66 3.64 3.9 3.64M69.5 15.6h2.58v2.67h2.01v-7h-2.01v2.62H69.5v-2.62h-2.02v7h2.02zM78.45 13.04v-.07h1.58v3.6h-2.15c.33-.96.57-1.98.57-3.53zm-1.38 5.23h3.86v1.4h1.7l.23-3.1h-.82v-5.3h-5.53v.18c0 2.63-.25 3.85-.74 5.12h-.64v3.1h1.8l.14-1.4zM54.98 31.48v-7h-6.5v7h2.01v-5.3h2.48v5.3zM59.53 27.96h-.95V26.1h.94c.73 0 1.16.32 1.16.92 0 .57-.43.93-1.15.93m.15-3.48h-3.12v7h2.02v-2h1c1.8 0 3.12-.87 3.12-2.52 0-1.57-1.19-2.48-3.02-2.48M67.46 26.09c1.1 0 1.87.88 1.87 1.89 0 1.03-.74 1.89-1.85 1.89-1.1 0-1.86-.88-1.86-1.9s.74-1.88 1.84-1.88m-3.9 1.89c0 2.03 1.66 3.64 3.9 3.64s3.92-1.63 3.92-3.64c0-2.03-1.66-3.64-3.9-3.64s-3.92 1.63-3.92 3.64M78.01 29.28v-2.76c.96 0 1.62.5 1.62 1.37 0 .9-.66 1.39-1.62 1.39zm-2.02 0c-.95 0-1.62-.5-1.62-1.4 0-.86.67-1.36 1.62-1.36v2.76zm5.7-1.42c0-1.78-1.34-3.06-3.68-3.06v-.62H76v.62c-2.33 0-3.68 1.28-3.68 3.06 0 1.8 1.32 3.14 3.68 3.14v.78h2.02V31c2.36 0 3.69-1.34 3.69-3.14zM82.85 24.48v7h1.88l2.81-3.94v3.94h1.99v-7h-1.88l-2.81 3.94v-3.94zM93.96 26.45v-.27h1.7v5.3h2v-7h-5.58v.97c0 4.24-.54 4.52-1.1 4.52-.1 0-.38-.02-.48-.04l-.13 1.49c.16.05.67.16 1.2.16 1.42 0 2.4-.86 2.4-5.13M102.65 26.73l.8 1.99h-1.62l.82-2zm-1.41 3.5h2.8l.53 1.25h2.16l-3.1-7.05h-1.94l-3.09 7.05h2.12l.52-1.25zM109.68 29.67l.74-.8 1.83 2.6h2.41l-2.84-3.98 2.75-3.01h-2.39l-2.5 2.84v-2.84h-2.01v7h2.01zM117.48 31.48h2.01v-5.3h2.18v-1.7h-6.37v1.7h2.18zM124.68 28.42v-3.94h-1.99v7h1.88l2.81-3.94v3.94h2v-7h-1.88zM137.85 24.48h-2.38l-2.5 2.84v-2.84h-2.02v7h2.02v-1.81l.73-.8 1.83 2.6h2.42l-2.85-3.98zM143.63 24.48l-2.81 3.94v-3.94h-1.99v7h1.88l2.81-3.94v3.94h1.99v-7zM50.5 39.32h.94c.72 0 1.16.32 1.16.92 0 .57-.44.93-1.15.93h-.96v-1.85zm0 3.37h.99c1.8 0 3.12-.87 3.12-2.52 0-1.57-1.18-2.48-3.02-2.48h-3.11v7h2.01v-2zM57.73 41.93l.81-2 .82 2h-1.63zm1.8-4.29H57.6l-3.1 7.05h2.12l.52-1.25h2.8l.54 1.25h2.15l-3.09-7.05zM63.56 37.69v7h2.02v-1.81l.74-.8 1.82 2.6h2.42l-2.84-3.98 2.75-3.01h-2.39l-2.5 2.84v-2.84zM75.2 39.94l.8 1.99h-1.62l.82-2zm-1.41 3.5h2.8l.53 1.25h2.16l-3.1-7.05h-1.93l-3.1 7.05h2.12l.52-1.25z"
            fill="#3C403C"
          />
          <path
            d="M36.09 6.94A25.97 25.97 0 0 0 18.37 0C11.77 0 5.49 2.46.66 6.93l4.15 2.05a21.72 21.72 0 0 1 13.56-4.74c4.97 0 9.73 1.68 13.58 4.75l4.12-2.04h.02z"
            fill="#E7705E"
          />
          <path fill="#EFA02A" d="M32.48 32.9l4.26 4.1V8.53l-4.26 2.1z" />
          <path
            fill="#35AE95"
            d="M0 36.86l7.66 7.62 3.01-3-6.41-6.38V10.6L0 8.53z"
          />
          <path
            fill="#2CAEE4"
            d="M18.37 55.15l17.08-17-3.01-3-14.07 14-6.49-6.46-3.01 3z"
          />
        </g>
</svg>