<svg version="1" xmlns="http://www.w3.org/2000/svg" width="682.667" height="682.667" viewBox="0 0 512.000000 512.000000"><path d="M108.5 65.5c-47.9 7.7-86.8 40.4-101.9 85.7C.4 169.7.5 167.9.5 256s-.1 86.3 6.1 104.8c12.5 37.5 43.2 68.1 80.6 80.6 19.1 6.4 8.3 5.9 166.3 6.6 161.1.6 146.8-.1 161.9 7.8 16.8 8.8 29.8 28.9 32.2 50l.7 6.2H512l-.3-169.3c-.3-186.3.2-172.2-6.3-191.5-12.5-37.4-43.2-68.1-80.6-80.6-19.2-6.4-8-6-165.3-6.2-112.7-.2-144.7 0-151 1.1zm288.8 64.1c19.8 4.5 35.5 16.9 44.1 34.9 6.8 14.1 6.6 9.8 6.6 128.5v107l-6.1-3c-3.3-1.7-10.6-4.6-16.2-6.5-20-6.6-16.6-6.5-167.6-6.5s-143.3.3-157.6-6.6c-18-8.6-30.4-24.3-34.9-44.1C64.2 327 64 317 64 256s.2-71 1.6-77.3c5.5-24.4 23.6-42.9 47.7-48.8 6.7-1.6 16.4-1.8 142-1.8 120.9-.1 135.5.1 142 1.5z"/></svg>