<?xml version="1.0" encoding="UTF-8"?>
<svg width="579px" height="42px" viewBox="0 0 579 42" version="1.1" xmlns="http://www.w3.org/2000/svg" xmlns:xlink="http://www.w3.org/1999/xlink">
    <!-- Generator: Sketch 43.1 (39012) - http://www.bohemiancoding.com/sketch -->
    <title>logo</title>
    <desc>Created with Sketch.</desc>
    <defs></defs>
    <g id="UI" stroke="none" stroke-width="1" fill="none" fill-rule="evenodd">
        <g id="UI_black-bg-@2x" transform="translate(-16.000000, -624.000000)" fill="#0F0F14">
            <g id="headers" transform="translate(0.000000, 184.000000)">
                <g id="scroll-header" transform="translate(0.000000, 363.000000)">
                    <g id="header-top-scroll-2" transform="translate(0.000000, 64.000000)">
                        <g id="logo" transform="translate(16.000000, 13.000000)">
                            <path d="M226.196809,25.908 L216.185426,25.908 L226.196809,7.554 L236.208191,25.908 L226.196809,25.908 Z M231.660319,0 L226.196809,0 L221.345745,0 L198,42 L207.362553,42 L212.483457,32.661 L226.196809,32.661 L239.91016,32.661 L245.031064,42 L255,42 L231.660319,0 Z" id="Fill-2"></path>
                            <polygon id="Fill-3" points="333 0 342 0 342 17.154 372 17.154 372 0 381 0 381 42 372 42 372 24.672 342 24.672 342 42 333 42"></polygon>
                            <path d="M292.534,34.596 C301.247273,34.596 308.554182,29.838 308.554182,21.147 L308.554182,20.676 C308.554182,12.039 301.550182,7.404 292.413455,7.404 L276.272727,7.404 L276.272727,34.596 L292.534,34.596 Z M267,0 L292.895636,0 C308.087455,0 318,7.989 318,20.556 L318,21.03 C318,33.597 308.025636,42 292.84,42 L267,42 L267,0 Z" id="Fill-4"></path>
                            <path d="M553.534,34.596 C562.247273,34.596 569.554182,29.838 569.554182,21.147 L569.554182,20.676 C569.554182,12.039 562.550182,7.404 553.413455,7.404 L537.272727,7.404 L537.272727,34.596 L553.534,34.596 Z M528,0 L553.895636,0 C569.087455,0 579,7.989 579,20.556 L579,21.03 C579,33.597 569.025636,42 553.84,42 L528,42 L528,0 Z" id="Fill-6"></path>
                            <polygon id="Fill-8" points="399 0 447 0 447 7.404 408 7.404 408 17.211 439.5 17.211 439.5 24.144 408 24.144 408 34.596 447 34.596 447 42 399 42"></polygon>
                            <polygon id="Fill-10" points="138 0 186 0 186 7.404 147 7.404 147 17.211 178.5 17.211 178.5 24.144 147 24.144 147 34.596 186 34.596 186 42 138 42"></polygon>
                            <path d="M109.08,13.848 C109.08,17.904 106.41,20.541 101.913,20.541 L77.985,20.541 L78,7.284 L101.913,7.296 C106.056,7.296 109.08,9.324 109.08,13.614 L109.08,13.848 Z M120,42 L110.664,25.026 C113.868,23.658 117.903,19.602 117.903,13.554 L117.903,13.32 C117.903,4.629 111.621,0.015 101.691,0.015 L69,0 L69,42 L78,42 L78,27 L102,27 L110.136,42 L120,42 Z" id="Fill-12"></path>
                            <path d="M477.063,25.908 L487.2,7.554 L497.334,25.908 L477.063,25.908 Z M492.906,0 L482.103,0 L459,42 L468.258,42 L473.265,32.661 L501.129,32.661 L506.136,42 L516,42 L492.906,0 Z" id="Fill-14"></path>
                            <path d="M39.2081106,29.487 C39.2081106,33.303 36.7100461,35.424 32.5102304,35.424 L8.84792627,35.424 L8.84792627,6.519 L31.6460829,6.519 C35.7131797,6.519 37.9959447,8.106 37.9959447,11.631 L37.9959447,11.868 C37.9959447,15.627 35.9461751,17.271 31.7021198,17.271 L17.6958525,17.271 L17.6958525,23.382 L32.0471889,23.382 C36.7808295,23.382 39.2081106,25.377 39.2081106,29.253 L39.2081106,29.487 Z M39.7419355,20.151 C44.360553,18.798 46.4398157,15.15 46.4398157,11.163 L46.4398157,10.926 C46.4398157,3.759 41.762212,0 32.755023,0 L0,0 L0,42 L33.5041475,42 C43.0333641,42 48,37.947 48,30.252 L48,30.018 C48,24.378 44.3310599,20.646 39.7419355,20.151 L39.7419355,20.151 Z" id="Fill-16"></path>
                        </g>
                    </g>
                </g>
            </g>
        </g>
    </g>
</svg>