<?xml version="1.0" encoding="UTF-8"?>
<svg width="146px" height="56px" viewBox="0 0 146 56" version="1.1" xmlns="http://www.w3.org/2000/svg" xmlns:xlink="http://www.w3.org/1999/xlink">
    <!-- Generator: sketchtool 53.2 (72643) - https://sketchapp.com -->
    <title>82C3B68F-514C-44D4-840C-176A775CE50B</title>
    <desc>Created with sketchtool.</desc>
    <g id="Заказчик" stroke="none" stroke-width="1" fill="none" fill-rule="evenodd">
        <g id="covid_desktop-1360" transform="translate(-253.000000, -2016.000000)" fill-rule="nonzero">
            <g id="about" transform="translate(0.000000, 1632.000000)">
                <g id="partners" transform="translate(216.000000, 372.000000)">
                    <g id="1">
                        <g id="partner-logo">
                            <g id="foundation-logo" transform="translate(37.000000, 12.000000)">
                                <path d="M51.7886202,16.2295955 L51.7886202,13.4701091 C50.8337428,13.4701091 50.1694803,13.9598065 50.1694803,14.8597289 C50.1694803,15.7297917 50.8337428,16.2295955 51.7886202,16.2295955 L51.7886202,16.2295955 Z M53.8123144,16.2295955 C54.7671918,16.2295955 55.4314543,15.7297917 55.4314543,14.8597289 C55.4314543,13.9598065 54.7671918,13.4701091 53.8123144,13.4701091 L53.8123144,16.2295955 Z M51.7886202,11.7501961 L51.7886202,10.9701715 L53.8123144,10.9701715 L53.8123144,11.7501961 C56.1681399,11.7501961 57.4971263,13.0897437 57.4971263,14.8895885 C57.4971263,16.6692206 56.1473817,17.949049 53.8123144,17.949049 L53.8123144,18.5687506 L51.7886202,18.5687506 L51.7886202,17.949049 C49.4535529,17.949049 48.1042696,16.6692206 48.1042696,14.8895885 C48.1042696,13.0897437 49.4327947,11.7501961 51.7886202,11.7501961 L51.7886202,11.7501961 Z" id="path4160" fill="#151833" transform="translate(52.800698, 14.769461) scale(1, -1) translate(-52.800698, -14.769461) "></path>
                                <path d="M62.324931,16.6583793 C63.4357255,16.6583793 64.1936306,15.7782102 64.1936306,14.7684963 C64.1936306,13.7390292 63.456945,12.8786134 62.3461505,12.8786134 C61.2459657,12.8786134 60.4880606,13.7587825 60.4880606,14.7684963 C60.4880606,15.7979635 61.2252075,16.6583793 62.324931,16.6583793 M62.324931,11.1293002 C64.566817,11.1293002 66.2482315,12.7587156 66.2482315,14.7684963 C66.2482315,16.7984897 64.5875752,18.4086112 62.3461505,18.4086112 C60.1042644,18.4086112 58.4228499,16.7782771 58.4228499,14.7684963 C58.4228499,12.7385029 60.0835062,11.1293002 62.324931,11.1293002" id="path4164" fill="#151833" transform="translate(62.335541, 14.768956) scale(1, -1) translate(-62.335541, -14.768956) "></path>
                                <polygon id="path4168" fill="#151833" transform="translate(70.788235, 14.769599) scale(1, -1) translate(-70.788235, -14.769599) " points="69.4961524 13.929855 72.0807794 13.929855 72.0807794 11.2700538 74.0938639 11.2700538 74.0938639 18.2691439 72.0807794 18.2691439 72.0807794 15.649768 69.4961524 15.649768 69.4961524 18.2691439 67.4826066 18.2691439 67.4826066 11.2700538 69.4961524 11.2700538"></polygon>
                                <path d="M78.4483354,17.8994821 L78.4483354,17.9688482 L80.0254976,17.9688482 L80.0254976,14.369618 L77.8772542,14.369618 C78.2089242,15.3292596 78.4483354,16.3490798 78.4483354,17.8994821 L78.4483354,17.8994821 Z M77.0676842,12.6694584 L80.9282489,12.6694584 L80.9282489,11.2697322 L82.6304216,11.2697322 L82.8592231,14.369618 L82.0395047,14.369618 L82.0395047,19.6690079 L76.5072127,19.6690079 L76.5072127,19.4889316 C76.5072127,16.8585305 76.2581143,15.6393401 75.7700658,14.369618 L75.1270228,14.369618 L75.1270228,11.2697322 L76.9325253,11.2697322 L77.0676842,12.6694584 Z" id="path4172" fill="#151833" transform="translate(78.993123, 15.469370) scale(1, -1) translate(-78.993123, -15.469370) "></path>
                                <polygon id="path4176" fill="#151833" transform="translate(51.731281, 27.978980) scale(1, -1) translate(-51.731281, -27.978980) " points="54.9847839 24.479665 54.9847839 31.4782958 48.4777789 31.4782958 48.4777789 24.479665 50.4908634 24.479665 50.4908634 29.7785955 52.9716994 29.7785955 52.9716994 24.479665"></polygon>
                                <path d="M59.5314764,27.9991472 L58.576599,27.9991472 L58.576599,29.8490642 L59.5208666,29.8490642 C60.2474038,29.8490642 60.6837874,29.5293368 60.6837874,28.9293885 C60.6837874,28.3597592 60.2474038,27.9991472 59.5314764,27.9991472 M59.6767838,31.4784796 L56.5630532,31.4784796 L56.5630532,24.4798488 L58.576599,24.4798488 L58.576599,26.4795232 L59.5729928,26.4795232 C61.3784953,26.4795232 62.6968719,27.3491266 62.6968719,28.9992141 C62.6968719,30.5684509 61.5131929,31.4784796 59.6767838,31.4784796" id="path4180" fill="#151833" transform="translate(59.629963, 27.979164) scale(1, -1) translate(-59.629963, -27.979164) "></path>
                                <path d="M67.4579274,29.8689094 C68.5677994,29.8689094 69.3257045,28.9887402 69.3257045,27.9790264 C69.3257045,26.9495593 68.5894802,26.0891434 67.4786856,26.0891434 C66.3785008,26.0891434 65.621057,26.9693125 65.621057,27.9790264 C65.621057,29.0089529 66.3577426,29.8689094 67.4579274,29.8689094 M63.555385,27.9790264 C63.555385,25.9494924 65.2160414,24.3398302 67.4579274,24.3398302 C69.6993521,24.3398302 71.3803054,25.9692456 71.3803054,27.9790264 C71.3803054,30.0090198 69.7201103,31.6182225 67.4786856,31.6182225 C65.2367996,31.6182225 63.555385,29.9888071 63.555385,27.9790264" id="path4184" fill="#151833" transform="translate(67.467845, 27.979026) scale(1, -1) translate(-67.467845, -27.979026) "></path>
                                <path d="M78.0140738,26.6793988 L78.0140738,29.4388852 C78.9689512,29.4388852 79.6332137,28.938622 79.6332137,28.0690186 C79.6332137,27.1695556 78.9689512,26.6793988 78.0140738,26.6793988 L78.0140738,26.6793988 Z M75.9903796,26.6793988 C75.0355022,26.6793988 74.371701,27.1695556 74.371701,28.0690186 C74.371701,28.938622 75.0355022,29.4388852 75.9903796,29.4388852 L75.9903796,26.6793988 Z M81.6988857,28.0993376 C81.6988857,29.8789697 80.3491411,31.1587981 78.0140738,31.1587981 L78.0140738,31.7784997 L75.9903796,31.7784997 L75.9903796,31.1587981 C73.6553123,31.1587981 72.306029,29.8789697 72.306029,28.0993376 C72.306029,26.2990334 73.6345541,24.9594858 75.9903796,24.9594858 L75.9903796,24.1794612 L78.0140738,24.1794612 L78.0140738,24.9594858 C80.3703606,24.9594858 81.6988857,26.2990334 81.6988857,28.0993376 L81.6988857,28.0993376 Z" id="path4188" fill="#151833" transform="translate(77.002457, 27.978980) scale(1, -1) translate(-77.002457, -27.978980) "></path>
                                <polygon id="path4192" fill="#151833" transform="translate(86.189808, 27.979072) scale(1, -1) translate(-86.189808, -27.979072) " points="82.8477369 31.4783877 82.8477369 24.4797569 84.726585 24.4797569 87.539091 28.4193866 87.539091 24.4797569 89.5318786 24.4797569 89.5318786 31.4783877 87.6530305 31.4783877 84.8400632 27.5392174 84.8400632 31.4783877"></polygon>
                                <path d="M93.9607106,29.6094524 L93.9607106,29.8786482 L95.6527349,29.8786482 L95.6527349,24.5801771 L97.6653581,24.5801771 L97.6653581,31.5788078 L92.0818625,31.5788078 L92.0818625,30.6090599 C92.0818625,26.3694561 91.5421492,26.090154 90.9719906,26.090154 C90.8778867,26.090154 90.5974203,26.1094479 90.5047003,26.1296606 L90.3695413,24.6398963 C90.5254585,24.589824 91.0444136,24.4795732 91.5730559,24.4795732 C92.985075,24.4795732 93.9607106,25.3395296 93.9607106,29.6094524" id="path4196" fill="#151833" transform="translate(94.017450, 28.029191) scale(1, -1) translate(-94.017450, -28.029191) "></path>
                                <path d="M102.649126,29.1789688 L103.458696,27.1889414 L101.828946,27.1889414 L102.649126,29.1789688 Z M101.237568,25.6794238 L104.040387,25.6794238 L104.569029,24.429455 L106.727883,24.429455 L103.63491,31.4786174 L101.694249,31.4786174 L98.6012763,24.429455 L100.718152,24.429455 L101.237568,25.6794238 Z" id="path4200" fill="#151833" transform="translate(102.664579, 27.954036) scale(1, -1) translate(-102.664579, -27.954036) "></path>
                                <polygon id="path4204" fill="#151833" transform="translate(111.166033, 27.979026) scale(1, -1) translate(-111.166033, -27.979026) " points="109.682513 26.288973 110.419199 27.0795634 112.245921 24.4799407 114.663559 24.4799407 111.820147 28.4691832 114.570378 31.4781121 112.183185 31.4781121 109.682513 28.6391532 109.682513 31.4781121 107.668506 31.4781121 107.668506 24.4799407 109.682513 24.4799407"></polygon>
                                <polygon id="path4208" fill="#151833" transform="translate(118.482423, 27.979210) scale(1, -1) translate(-118.482423, -27.979210) " points="117.47542 24.479665 119.489427 24.479665 119.489427 29.7795143 121.669038 29.7795143 121.669038 31.4787552 115.295808 31.4787552 115.295808 29.7795143 117.47542 29.7795143"></polygon>
                                <polygon id="path4212" fill="#151833" transform="translate(126.033289, 27.978935) scale(1, -1) translate(-126.033289, -27.978935) " points="124.683544 27.5390796 124.683544 31.4782499 122.691218 31.4782499 122.691218 24.4796191 124.569144 24.4796191 127.382572 28.4192488 127.382572 24.4796191 129.37536 24.4796191 129.37536 31.4782499 127.496512 31.4782499"></polygon>
                                <polygon id="path4216" fill="#151833" transform="translate(134.450418, 27.979072) scale(1, -1) translate(-134.450418, -27.979072) " points="137.854763 31.4783877 135.46757 31.4783877 132.965976 28.6394288 132.965976 31.4783877 130.952891 31.4783877 130.952891 24.4797569 132.965976 24.4797569 132.965976 26.2892487 133.703584 27.0793796 135.530306 24.4797569 137.947945 24.4797569 135.104071 28.4689994"></polygon>
                                <polygon id="path4220" fill="#151833" transform="translate(142.169656, 27.979072) scale(1, -1) translate(-142.169656, -27.979072) " points="143.632648 31.4783877 140.820142 27.5392174 140.820142 31.4783877 138.827816 31.4783877 138.827816 24.4797569 140.705741 24.4797569 143.51917 28.4193866 143.51917 24.4797569 145.511496 24.4797569 145.511496 31.4783877"></polygon>
                                <path d="M50.4914631,43.0587214 L51.4352694,43.0587214 C52.1622679,43.0587214 52.5981901,42.7385346 52.5981901,42.1385864 C52.5981901,41.5684977 52.1622679,41.2088044 51.4463405,41.2088044 L50.4914631,41.2088044 L50.4914631,43.0587214 Z M50.4914631,39.6891804 L51.4878569,39.6891804 C53.2938206,39.6891804 54.6117359,40.5587839 54.6117359,42.2084119 C54.6117359,43.7781081 53.428057,44.6881368 51.5916479,44.6881368 L48.4779173,44.6881368 L48.4779173,37.689506 L50.4914631,37.689506 L50.4914631,39.6891804 Z" id="path4224" fill="#151833" transform="translate(51.544827, 41.188821) scale(1, -1) translate(-51.544827, -41.188821) "></path>
                                <path d="M57.725282,40.3997011 L58.5445391,42.3892692 L59.3550317,40.3997011 L57.725282,40.3997011 Z M59.5312458,44.6884584 L57.5905843,44.6884584 L54.4971506,37.6397553 L56.6144874,37.6397553 L57.1339038,38.8901835 L59.9362614,38.8901835 L60.4653649,37.6397553 L62.6242181,37.6397553 L59.5312458,44.6884584 Z" id="path4228" fill="#151833" transform="translate(58.560684, 41.164107) scale(1, -1) translate(-58.560684, -41.164107) "></path>
                                <polygon id="path4232" fill="#151833" transform="translate(67.062184, 41.188638) scale(1, -1) translate(-67.062184, -41.188638) " points="63.564657 44.6877234 63.564657 37.689552 65.5786641 37.689552 65.5786641 39.4985843 66.3153497 40.2882559 68.1416104 37.689552 70.5597105 37.689552 67.7162978 41.6783351 70.4665292 44.6877234 68.0793358 44.6877234 65.5786641 41.8487645 65.5786641 44.6877234"></polygon>
                                <path d="M75.1999072,42.3892233 L76.0094771,40.3996552 L74.3797275,40.3996552 L75.1999072,42.3892233 Z M73.787888,38.8901375 L76.5907068,38.8901375 L77.1198104,37.6397094 L79.2786636,37.6397094 L76.1856912,44.6884124 L74.2450298,44.6884124 L71.1520574,37.6397094 L73.2689329,37.6397094 L73.787888,38.8901375 Z" id="path4236" fill="#151833" transform="translate(75.215360, 41.164061) scale(1, -1) translate(-75.215360, -41.164061) "></path>
                                <path d="M36.0867538,2.04561227 C31.2602407,6.52179595 24.9686597,8.98636137 18.3703186,8.98636137 C11.7747452,8.98636137 5.48547073,6.52363346 0.660341534,2.05158419 L4.80552422,0.0105657045 C8.64948231,3.07232312 13.4040336,4.74675759 18.3703186,4.74675759 C23.3416778,4.74675759 28.1013033,3.06864809 31.9471066,0 L36.0742988,2.03229029 L36.0867538,2.04561227 Z" id="path4156" fill="#E7705E" transform="translate(18.373548, 4.493181) scale(1, -1) translate(-18.373548, -4.493181) "></path>
                                <polygon id="path4404" fill="#EFA02A" transform="translate(34.611122, 22.766842) scale(1, -1) translate(-34.611122, -22.766842) " points="32.4822531 12.6409926 36.7399914 8.53231171 36.7399914 37.0013728 32.4822531 34.9047695"></polygon>
                                <polygon id="path4408" fill="#35AE95" transform="translate(5.333013, 26.499660) scale(1, -1) translate(-5.333013, -26.499660) " points="0 16.1395271 7.65516434 8.5156822 10.6660265 11.5145048 4.25773829 17.8957309 4.25773829 42.387034 0 44.4836372"></polygon>
                                <polygon id="path4412" fill="#2CAEE4" transform="translate(22.158137, 45.151206) scale(1, -1) translate(-22.158137, -45.151206) " points="18.3702263 35.1486995 35.4477701 52.1553493 32.4369079 55.1537125 18.3702263 41.1454259 11.8793666 47.6093401 8.86850443 44.6109769"></polygon>
                            </g>
                        </g>
                    </g>
                </g>
            </g>
        </g>
    </g>
</svg>