<?xml version="1.0" encoding="UTF-8"?>
<svg width="80px" height="64px" viewBox="0 0 80 64" version="1.1" xmlns="http://www.w3.org/2000/svg" xmlns:xlink="http://www.w3.org/1999/xlink">
    <!-- Generator: Sketch 53.2 (72643) - https://sketchapp.com -->
    <title>hva-logo</title>
    <desc>Created with Sketch.</desc>
    <g id="Заказчик" stroke="none" stroke-width="1" fill="none" fill-rule="evenodd">
        <g id="covid_desktop-1360" transform="translate(-286.000000, -2176.000000)">
            <g id="about" transform="translate(0.000000, 1628.000000)">
                <g id="partners" transform="translate(216.000000, 380.000000)">
                    <g id="5" transform="translate(0.000000, 168.000000)">
                        <g id="partner-logo">
                            <g id="hva-logo" transform="translate(70.000000, 0.000000)">
                                <path d="M71.1966222,31.2566017 L71.3420444,30.2167354 C71.3420444,29.5959889 70.9320889,29.3758217 70.5827556,29.3758217 L69.2032,29.3758217 C68.6172444,29.3758217 68.3658667,29.7047354 68.2705778,29.9010139 L68.2149333,30.1397214 C68.2149333,30.1809025 68.2032,30.2472201 68.1966222,30.3306518 C68.1806222,30.5190864 68.1543111,30.7658162 68.1424,31.065493 L66.6728889,31.9794986 C66.6739556,31.9251253 66.6739556,31.8746741 66.6739556,31.8229749 C66.6739556,31.6252702 66.7203556,31.4051031 66.7772444,31.1278886 L66.9070222,30.2167354 C66.9070222,29.5959889 66.4981333,29.3758217 66.1464889,29.3758217 L64.7681778,29.3758217 C64.2629333,29.3758217 63.9004444,29.7339721 63.8606222,30.2671866 C63.7034667,30.7658162 63.7034667,31.6520111 63.7034667,33.0564457 C63.7034667,33.2885571 63.7034667,33.8404903 63.7786667,34.6655376 L63.7813333,35.624468 L63.8528,36.5807242 C63.8528,36.8886017 63.8528,37.1857827 64.0881778,37.416468 C64.2760889,37.6088245 64.5696,37.7268412 64.8474667,37.7268412 L65.7626667,37.7268412 C66.0405333,37.7268412 66.4465778,37.6459053 66.6728889,37.4218162 C66.9070222,37.1895265 66.9070222,36.9230084 66.8976,36.6272535 C66.7507556,35.9015042 66.6739556,35.3165905 66.6739556,34.8921226 C66.6739556,34.6480669 66.6583111,34.4200557 66.6344889,34.1945404 C66.6279111,34.09239 66.6172444,33.9929136 66.6092444,33.8880891 L68.1424,32.9821058 C68.1623111,34.8286574 68.2309333,35.9560557 68.2970667,36.4283008 C68.4492444,37.504 68.9134222,37.7268412 69.2810667,37.7268412 L70.1992889,37.7268412 C70.5987556,37.7268412 70.9041778,37.6193426 71.1064889,37.4218162 C71.3420444,37.1895265 71.3420444,36.9230084 71.3393778,36.6709304 C71.2625778,35.9799443 71.1820444,35.3604457 71.1132444,34.8921226 L71.1132444,31.9024847 C71.1132444,31.7037103 71.1543111,31.5060056 71.1966222,31.2566017 Z M70.8115556,36.7333259 C70.8115556,36.8859276 70.8115556,36.9654373 70.7335111,37.038351 C70.6581333,37.1153649 70.5059556,37.1934485 70.1992889,37.1934485 L69.2810667,37.1934485 C69.0522667,37.1934485 68.8990222,36.8859276 68.8183111,36.3527131 C68.7441778,35.8141504 68.6728889,34.3551643 68.6728889,32.0550864 L66.0696889,33.5898384 C66.0696889,34.046039 66.1464889,34.4346741 66.1464889,34.8921226 C66.1464889,35.3538496 66.2204444,35.9667521 66.3752889,36.7333259 C66.3752889,36.8859276 66.3752889,36.9654373 66.2997333,37.038351 C66.2204444,37.1153649 65.9904,37.1934485 65.7626667,37.1934485 L64.8474667,37.1934485 C64.6913778,37.1934485 64.5406222,37.1153649 64.464,37.038351 C64.3857778,36.9654373 64.3857778,36.8089136 64.3857778,36.5807242 L64.3116444,35.5807911 C64.3116444,35.1973259 64.3116444,34.8921226 64.3116444,34.6655376 C64.2389333,33.8178496 64.2389333,33.281961 64.2389333,33.0564457 C64.2389333,31.6730474 64.2389333,30.7511978 64.3857778,30.370585 C64.3857778,30.0616379 64.5406222,29.9090362 64.7681778,29.9090362 L66.1464889,29.9090362 C66.2997333,29.9090362 66.3752889,29.984624 66.3752889,30.2167354 L66.2997333,30.8282117 C66.2204444,31.2129248 66.1464889,31.5165237 66.1464889,31.8229749 C66.1464889,32.1292479 66.0696889,32.5166351 66.0696889,32.9769359 L68.6728889,31.3665961 C68.6728889,30.7511978 68.7441778,30.2910752 68.7441778,30.1397214 C68.8183111,29.984624 68.9744,29.9090362 69.2032,29.9090362 L70.5827556,29.9090362 C70.7335111,29.9090362 70.8115556,29.984624 70.8115556,30.2167354 L70.7335111,30.8282117 C70.6581333,31.2897604 70.5827556,31.5908635 70.5827556,31.9024847 C70.5827556,32.1292479 70.5827556,32.5166351 70.5827556,32.9769359 C70.5827556,33.7435097 70.5827556,34.3551643 70.5827556,34.8921226 C70.6581333,35.4308635 70.7335111,36.0435877 70.8115556,36.7333259 L70.8115556,36.7333259 Z" id="Fill-1" fill="#1E3E85"></path>
                                <path d="M15.5936,32.21161 C15.9797333,31.9024847 16.1306667,31.5165237 16.1306667,31.0588969 C16.1306667,30.8282117 16.0565333,30.6770362 15.8263111,30.5975265 C15.6716444,30.5217604 15.4467556,30.4475989 15.2152889,30.4475989 L15.0618667,30.4475989 C14.9070222,30.4475989 14.8302222,30.4475989 14.6782222,30.4475989 C14.6001778,30.4475989 14.4501333,30.4475989 14.2958222,30.4475989 C14.2958222,31.2129248 14.2192,31.9794986 14.2192,32.8230864 C14.6001778,32.8230864 14.9070222,32.7448245 15.2152889,32.593649 C15.3653333,32.4396212 15.5180444,32.3627855 15.5936,32.21161 Z M15.0300444,32.0431421 C14.9911111,32.0750529 14.9534222,32.1094596 14.9136,32.1452925 C14.8634667,32.1731031 14.8119111,32.1877214 14.7623111,32.2091142 C14.7701333,32.001961 14.7793778,31.8017604 14.7907556,31.6040557 C14.7991111,31.3931588 14.8097778,31.1863621 14.8170667,30.977961 L15.2152889,30.977961 C15.3303111,30.977961 15.4574222,31.0152201 15.6014222,31.0788635 C15.5936,31.3931588 15.5009778,31.6067298 15.2656,31.7924903 L15.1292444,31.9568579 C15.1160889,31.9729025 15.0691556,32.0126574 15.0300444,32.0431421 L15.0300444,32.0431421 Z" id="Fill-2" fill="#1E3E85"></path>
                                <path d="M7.00391111,30.3903733 L7.10293333,30.1078106 L7.35626667,29.6847688 C7.63004444,29.131766 7.82524444,28.8146184 8.01315556,28.6794875 C8.05475556,28.6475766 8.28497778,28.5534485 8.61368889,28.6302841 C8.66648889,28.6449025 8.72337778,28.6568468 8.78613333,28.666117 C8.88604444,28.7270864 9.04942222,28.8360111 9.31075556,29.0296156 L9.45422222,29.1369359 L10.3086222,29.1369359 L10.4627556,28.9791643 C10.6974222,28.749727 10.6974222,28.4327577 10.6974222,28.2231086 L10.6974222,28.0680111 C10.6974222,28.0229081 10.6974222,27.9658607 10.7192889,27.9220056 L11.0778667,27.1288691 C11.2352,26.9099499 11.2352,26.6420056 11.2352,26.5320111 C11.2352,26.2255599 10.9806222,25.846195 10.2696889,25.7057159 L10.0878222,25.6672089 C9.77813333,25.6008914 9.47857778,25.5397437 9.17244444,25.5397437 C8.26773333,25.5397437 7.6176,25.7440446 7.03626667,26.2348301 C6.78097778,26.4908301 6.47608889,26.992312 5.99733333,27.9565905 L5.81013333,28.4751866 L5.16391111,27.4497604 L5.88088889,27.4497604 L5.88088889,25.7706072 L5.12301312e-12,25.7706072 L5.12301312e-12,27.4497604 L1.29511111,27.4497604 L3.67448889,31.6174262 L2.64942222,33.7449359 C2.22097778,34.6070641 1.91128889,35.2238886 1.72622222,35.4732925 C1.44568889,35.8141504 1.13635556,35.9692479 0.760711111,35.9692479 L5.12301312e-12,35.9692479 L5.12301312e-12,37.7268412 L4.81137778,37.7268412 L4.81137778,35.9692479 L3.89546667,35.9692479 C3.84444444,35.9692479 3.80213333,35.9692479 3.76373333,35.9692479 C3.78435556,35.8605014 3.83324444,35.6815153 3.93048889,35.3962786 C4.07804444,35.0288579 4.22417778,34.6589415 4.36373333,34.3829749 L4.82542222,33.5247688 L6.25902222,35.9692479 L5.20088889,35.9692479 L5.20088889,37.7268412 L11.7708444,37.7268412 L11.7708444,35.9692479 L10.2444444,35.9692479 L7.00391111,30.3903733 Z M11.2405333,37.1934485 L5.72942222,37.1934485 L5.72942222,36.5026407 L7.18311111,36.5026407 L4.81422222,32.4396212 L3.89546667,34.1267967 C3.74062222,34.4346741 3.58862222,34.814039 3.44035556,35.1973259 C3.28106667,35.6588747 3.20764444,35.9667521 3.20764444,36.1206017 C3.20764444,36.2717772 3.20764444,36.4283008 3.36231111,36.4283008 C3.51182222,36.5026407 3.66471111,36.5026407 3.89546667,36.5026407 L4.12302222,36.5026407 C4.20355556,36.5026407 4.27502222,36.5026407 4.27502222,36.5026407 L4.27502222,37.1934485 L0.531911111,37.1934485 L0.531911111,36.5026407 C0.607111111,36.5026407 0.682488889,36.5026407 0.760711111,36.5026407 C1.29511111,36.5026407 1.75342222,36.2717772 2.13226667,35.8141504 C2.3664,35.5064513 2.67057778,34.8921226 3.13102222,33.9729471 L3.36231111,33.5154986 L4.27502222,31.5908635 L1.59911111,26.9179721 L0.531911111,26.9179721 L0.531911111,26.3038217 L5.34577778,26.3038217 L5.34577778,26.9179721 L4.20355556,26.9179721 L5.88408889,29.601337 L6.26702222,28.7589972 L6.49848889,28.1448468 C6.88088889,27.378273 7.18311111,26.8409582 7.41191111,26.614195 C7.87484444,26.2309081 8.40924444,26.0756323 9.17244444,26.0756323 C9.47857778,26.0756323 9.78364444,26.1512201 10.1685333,26.2309081 C10.5493333,26.3038217 10.7041778,26.4549972 10.7041778,26.5320111 C10.7041778,26.614195 10.7041778,26.7641226 10.6247111,26.8409582 L10.4712889,27.1474095 L10.3178667,27.4552869 C10.2444444,27.5306964 10.2444444,27.6832981 10.2444444,27.6832981 C10.1685333,27.8371476 10.1685333,27.9909972 10.1685333,28.0680111 L10.1685333,28.2231086 C10.1685333,28.3757103 10.1685333,28.5295599 10.0897778,28.6037214 L9.63413333,28.6037214 C9.32391111,28.3757103 9.09564444,28.2231086 8.94222222,28.1448468 C8.78755556,28.1448468 8.63804444,28.0680111 8.40924444,28.0680111 C8.10097778,28.0680111 7.79342222,28.1448468 7.64071111,28.2986964 C7.41191111,28.4539721 7.18311111,28.8360111 6.88088889,29.4460613 L6.64462222,29.8320223 L6.4192,30.4475989 L9.93688889,36.5026407 L11.2405333,36.5026407 L11.2405333,37.1934485 L11.2405333,37.1934485 Z" id="Fill-3" fill="#1E3E85"></path>
                                <path d="M15.2152889,33.5898384 C14.9070222,33.4370585 14.5240889,33.4370585 14.2192,33.4370585 L14.2192,36.6564903 L15.2152889,36.6564903 C15.7509333,36.6564903 16.1306667,36.5807242 16.2812444,36.5026407 C16.5895111,36.4283008 16.6682667,36.1206017 16.6682667,35.7373148 C16.6682667,35.1973259 16.4401778,34.7423733 16.0565333,34.2793983 C15.7509333,33.9729471 15.5180444,33.7435097 15.2152889,33.5898384 Z M15.9692444,36.0501838 C15.8481778,36.0806685 15.5982222,36.1243454 15.2152889,36.1243454 L14.7523556,36.1243454 L14.7523556,34.0007577 C14.8350222,34.0128802 14.9136,34.0340947 14.9772444,34.0672535 C15.2053333,34.1825961 15.4044444,34.3829749 15.6478222,34.6165125 C15.8824889,34.9029972 16.0208,35.1561448 16.0849778,35.409649 C16.0405333,35.6178719 16.0067556,35.8353649 15.9692444,36.0501838 L15.9692444,36.0501838 Z" id="Fill-4" fill="#1E3E85"></path>
                                <path d="M38.0003556,35.5064513 C38.3091556,35.6588747 38.6894222,35.8141504 39.0723556,35.8141504 C39.2272,35.8141504 39.3011556,35.8141504 39.3772444,35.7373148 C39.4584889,35.5807911 39.5340444,35.4308635 39.6062222,35.1973259 C39.6062222,35.0473983 39.6062222,34.814039 39.6062222,34.6655376 C39.6062222,33.7435097 39.3772444,32.9769359 38.9216,32.3627855 C38.6120889,31.9794986 38.3091556,31.7473872 38.0003556,31.5165237 C37.6200889,31.2897604 37.2384,31.2129248 36.8535111,31.1332368 C36.472,31.5165237 36.3217778,31.9794986 36.3217778,32.3627855 C36.3217778,33.1268635 36.5505778,33.8178496 37.0088889,34.5088357 C37.3152,34.9705627 37.6200889,35.2782618 38.0003556,35.5064513" id="Fill-5" fill="#1E3E85"></path>
                                <path d="M75.7651556,34.3259276 C75.8327111,34.3458942 75.9027556,34.3908189 76.0005333,34.4558886 C76.0892444,34.511688 76.1936,34.5780056 76.3102222,34.6414708 C76.4940444,34.8047688 76.6540444,34.8908747 76.6910222,34.9067409 L76.7836444,34.9705627 L76.9080889,34.9705627 C77.1208889,35.0342061 77.6037333,35.0659387 77.9212444,34.8550418 C78.0744889,34.8099387 78.1991111,34.7277549 78.2915556,34.6655376 C78.3258667,34.6443231 78.3550222,34.6190084 78.3895111,34.6018942 L78.5255111,34.5036657 C78.5930667,34.4385961 78.6592,34.393493 78.7121778,34.3551643 C78.7927111,34.2979387 78.8629333,34.2437437 78.9079111,34.1945404 L79.6750222,33.4277883 L78.8325333,32.1599109 L78.248,32.5617382 C78.1870222,32.6029192 78.1011556,32.6624624 78.1553778,32.6797549 C78.0958222,32.6624624 78.0112,32.6202117 77.9820444,32.6068412 C77.7306667,32.4356992 77.4688,32.2647354 77.2414222,32.1930696 C76.9728,32.0577604 76.6727111,32.0577604 76.4702222,32.0577604 C76.0295111,32.0577604 75.5640889,32.1796992 75.0496,32.4437214 C75.0138667,32.4610139 74.9873778,32.4836546 74.9555556,32.5007688 C74.9649778,32.333727 74.9834667,32.1796992 75.0085333,32.0484903 C75.1064889,31.3056267 75.3219556,30.8255376 75.5480889,30.8255376 C75.5747556,30.8282117 75.6369778,30.8547744 75.6976,30.882585 L75.9793778,31.1597994 C76.3285333,31.6040557 76.6222222,31.9024847 76.9925333,32.0233538 L77.1091556,32.0670306 C77.4065778,32.1757772 77.7795556,32.250117 78.3735111,32.0896713 L78.6248889,32.0233538 C78.9239111,31.9251253 79.1856,31.7473872 79.4423111,31.5801671 L79.9317333,31.2500056 L78.8007111,29.8824735 L78.4753778,30.2126351 L78.2796444,30.1438217 L78.2545778,30.1438217 C78.2094222,30.114585 78.1539556,30.076078 78.1646222,30.0960446 C77.8232889,29.8373705 77.4846222,29.6676546 77.0970667,29.4777939 C76.5825778,29.308078 76.0666667,29.2219721 75.5507556,29.2219721 C74.2983111,29.2219721 73.2995556,29.7657047 72.6090667,30.805571 C71.9941333,31.6013816 71.6568889,32.5617382 71.6568889,33.5154986 L71.6568889,34.046039 C71.6568889,35.463844 72.2321778,36.6470418 73.3445333,37.4852813 C74.1434667,38.0118997 75.0112,38.2613036 76.0892444,38.2613036 C76.6727111,38.2613036 77.2823111,38.1101281 77.8232889,37.8355877 C78.3258667,37.6193426 78.8417778,37.3554986 79.2570667,36.8354763 L79.5534222,36.4627075 L78.5719111,35.4825627 L78.2069333,35.7822396 C77.9397333,35.9917103 77.6778667,36.1165014 77.4224,36.2386184 L77.2823111,36.30761 C76.392,36.5290251 75.752,36.4227744 75.3736889,35.8868858 C75.1116444,35.5235655 74.9715556,35.031532 74.9409778,34.4200557 C74.9516444,34.4054373 74.9555556,34.4027632 74.9608889,34.4027632 C75.2771556,34.2927688 75.5191111,34.2132591 75.7651556,34.3259276 Z M74.9409778,36.1986852 C75.3219556,36.7333259 75.8577778,36.9654373 76.5480889,36.9654373 C76.8524444,36.9654373 77.1566222,36.8859276 77.4622222,36.8089136 C77.7703111,36.6564903 78.1539556,36.5026407 78.5349333,36.1986852 L78.8417778,36.5026407 C78.5349333,36.8859276 78.1539556,37.1153649 77.6168889,37.3460501 C77.1566222,37.5795877 76.6222222,37.729337 76.0892444,37.729337 C75.096,37.729337 74.3287111,37.504 73.6408889,37.038351 C72.7201778,36.3527131 72.1857778,35.3538496 72.1857778,34.046039 L72.1857778,33.5154986 C72.1857778,32.6679889 72.4942222,31.8229749 73.0257778,31.1332368 C73.6408889,30.2167354 74.4848,29.7551866 75.5507556,29.7551866 C76.0138667,29.7551866 76.4702222,29.8320223 76.9264,29.984624 C77.2334222,30.1397214 77.5415111,30.2910752 77.8471111,30.5217604 C77.9991111,30.5975265 78.0744889,30.6770362 78.1539556,30.6770362 C78.3047111,30.7511978 78.3788444,30.7511978 78.4583111,30.7511978 C78.5349333,30.7511978 78.6883556,30.7511978 78.7664,30.6770362 L79.1447111,31.1332368 C78.9171556,31.2897604 78.6883556,31.4409359 78.4583111,31.5165237 C78.1539556,31.5908635 77.9212444,31.6730474 77.7703111,31.6730474 C77.5415111,31.6730474 77.3868444,31.5908635 77.1566222,31.5165237 C76.9264,31.4409359 76.7016889,31.2129248 76.3934222,30.8282117 C76.24,30.6770362 76.0892444,30.5217604 76.0138667,30.4475989 C75.8577778,30.370585 75.7056,30.2910752 75.5507556,30.2910752 C75.0138667,30.2910752 74.6328889,30.8282117 74.4848,31.9794986 C74.4094222,32.3627855 74.4094222,32.9001003 74.4094222,33.4370585 C74.6328889,33.281961 74.9409778,33.1268635 75.3219556,32.9001003 C75.7809778,32.6679889 76.1646222,32.593649 76.4702222,32.593649 C76.6222222,32.593649 76.8524444,32.593649 77.0046222,32.6679889 C77.2334222,32.7448245 77.4622222,32.9001003 77.6924444,33.0564457 C77.8471111,33.1268635 77.9991111,33.2049471 78.0744889,33.2049471 C78.3047111,33.2049471 78.4583111,33.0564457 78.6883556,32.9001003 L78.9952,33.3604011 C78.8417778,33.5154986 78.6883556,33.6652479 78.5349333,33.8178496 C78.4583111,33.8961114 78.3047111,33.9729471 78.1539556,34.1267967 C77.9991111,34.2052368 77.8471111,34.3551643 77.6924444,34.3551643 C77.6168889,34.4346741 77.4622222,34.5088357 77.3112889,34.5088357 C77.1566222,34.5088357 77.0046222,34.4346741 76.9264,34.4346741 C76.9264,34.4346741 76.7758222,34.3551643 76.6222222,34.2052368 C76.3127111,34.046039 76.1646222,33.8961114 75.9344,33.8178496 C75.7809778,33.7435097 75.6263111,33.7435097 75.4768,33.7435097 C75.2439111,33.7435097 75.0138667,33.8178496 74.7889778,33.8961114 C74.6328889,33.9729471 74.5587556,34.046039 74.4094222,34.2052368 C74.4094222,34.9705627 74.5587556,35.6588747 74.9409778,36.1986852 L74.9409778,36.1986852 Z" id="Fill-6" fill="#1E3E85"></path>
                                <path d="M45.6496,32.21161 C46.0332444,31.9024847 46.1864889,31.5165237 46.1864889,31.0588969 C46.1864889,30.8282117 46.1086222,30.6770362 45.8798222,30.5975265 C45.7262222,30.5217604 45.4961778,30.4475989 45.2698667,30.4475989 L45.1152,30.4475989 C45.0384,30.4475989 44.8851556,30.4475989 44.7317333,30.4475989 C44.6576,30.4475989 44.5027556,30.4475989 44.3507556,30.4475989 C44.3507556,31.2129248 44.2766222,31.9794986 44.2766222,32.8230864 C44.6576,32.8230864 44.9644444,32.7448245 45.2698667,32.593649 C45.4195556,32.4396212 45.5742222,32.3627855 45.6496,32.21161" id="Fill-7" fill="#1E3E85"></path>
                                <path d="M45.2698667,33.5898384 C44.9644444,33.4370585 44.6576,33.4370585 44.2766222,33.4370585 L44.2766222,36.6564903 L45.2698667,36.6564903 C45.8030222,36.6564903 46.1864889,36.5807242 46.3374222,36.5026407 C46.6440889,36.4283008 46.7182222,36.1206017 46.7182222,35.7373148 C46.7182222,35.1973259 46.4908444,34.7423733 46.1086222,34.2793983 C45.8798222,33.9729471 45.5742222,33.7435097 45.2698667,33.5898384" id="Fill-8" fill="#1E3E85"></path>
                                <path d="M61.6808889,32.0565125 C61.7022222,32.0789749 61.7443556,32.1638329 61.7681778,32.2142841 L61.9150222,32.510039 L63.1596444,32.510039 L63.1596444,31.5908635 C63.1596444,31.2605237 63.2311111,31.0071978 63.2840889,30.8426518 C63.3144889,30.7511978 63.3633778,30.6609916 63.4056889,30.5722117 C63.4798222,30.4329805 63.5432889,30.2923231 63.5923556,30.1555877 L63.6979556,29.8398663 L63.4584889,29.6079331 C63.4295111,29.5760223 63.3105778,29.4633538 63.0961778,29.3558552 L63.0064,29.2934596 L62.8805333,29.2934596 C62.7786667,29.2670752 62.6135111,29.2219721 62.4003556,29.2219721 C61.8199111,29.2219721 61.2522667,29.4845682 60.5697778,30.0707298 C60.5223111,30.1158329 60.4785778,30.1755543 60.4321778,30.2247577 C56.2049778,22.6203454 47.4458667,16.5706518 39.0723556,2.27373675e-12 C31.4462222,15.4061727 22.5066667,21.8206128 18.2112,29.727376 C18.0055111,29.5574819 17.7655111,29.4831421 17.5836444,29.4514095 C17.5472,29.4514095 17.4922667,29.4421393 17.4256,29.434117 C17.2423111,29.4088022 16.9884444,29.3758217 16.6682667,29.3758217 L12.9976889,29.3758217 C12.5381333,29.3758217 12.0017778,29.6728245 11.8583111,30.5112423 C11.7781333,31.0152201 11.7781333,32.2538607 11.7781333,34.5088357 C11.7781333,35.8868858 11.7800889,36.5078106 11.8688,36.8606128 C12.0638222,37.6380613 12.6147556,37.7268412 12.8442667,37.7268412 L15.7477333,37.7268412 C15.6609778,38.6789972 15.6312889,39.6712646 15.6716444,40.7218273 C15.5180444,48.5448022 19.1925333,56.2898719 26.7585778,60.5078106 C30.4330667,62.5780947 34.2563556,63.9563231 38.8442667,63.9563231 C52.7630222,63.9563231 62.0168889,54.5242563 63.0129778,40.797415 C63.0288,39.7083454 62.9719111,38.6923677 62.8608,37.721493 C63.5432889,37.6949304 63.6979556,37.3448022 63.6979556,37.038351 C63.6979556,36.3725014 63.4215111,35.6549526 62.8872889,34.9386518 C62.6663111,34.6680334 62.4083556,34.4295042 62.1358222,34.2052368 C61.9057778,33.4557772 61.6371556,32.7328802 61.3290667,32.0324457 C61.4032,31.9887688 61.456,31.9741504 61.4744889,31.9741504 C61.5143111,31.9807465 61.632,32.0379721 61.6808889,32.0565125 Z M55.3610667,30.8282117 C55.3610667,30.977961 55.2101333,31.1332368 54.9031111,31.4409359 C54.7550222,31.6730474 54.5991111,31.8229749 54.4455111,32.0550864 C54.2922667,32.21161 54.2154667,32.2871978 54.2154667,32.2871978 C54.1413333,32.2871978 54.0620444,32.21161 53.9111111,31.9794986 C53.6785778,31.6730474 53.4483556,31.4409359 53.2988444,31.2897604 C52.9959111,31.0588969 52.5342222,30.9037994 52.0727111,30.8282117 C51.9998222,30.977961 51.9219556,31.1332368 51.8424889,31.4409359 C51.8424889,31.6730474 51.7685333,31.9024847 51.7685333,32.1292479 C51.7685333,32.9001003 51.9998222,33.5898384 52.5342222,34.3551643 C52.9959111,35.1215599 53.4483556,35.5807911 54.0620444,35.8141504 C54.2154667,35.6588747 54.3662222,35.5064513 54.4455111,35.4308635 C54.5210667,35.3538496 54.5991111,35.1973259 54.7550222,34.9705627 L54.9827556,34.5858496 L55.5157333,35.0473983 C55.1347556,35.7373148 54.7550222,36.3527131 54.2154667,36.8859276 C53.7578667,37.424312 53.2988444,37.729337 52.9959111,37.729337 C52.5342222,37.729337 51.9219556,37.1934485 51.3080889,36.1986852 C50.6204444,35.1973259 50.3160889,34.2793983 50.3160889,33.4370585 C50.3160889,32.5166351 50.6204444,31.6730474 51.3080889,30.6770362 C51.9219556,29.8320223 52.3822222,29.3717214 52.8371556,29.3717214 C53.0686222,29.3717214 53.5249778,29.601337 54.2154667,29.9090362 C54.9827556,30.2910752 55.3610667,30.5975265 55.3610667,30.8282117 Z M55.8055111,34.5951198 L54.8490667,33.7713203 L54.1585778,34.9147632 C54.1176889,34.978585 54.0910222,35.0288579 54.0712889,35.0500724 L53.9523556,35.1721894 C53.6071111,34.9586184 53.3054222,34.6124123 52.9667556,34.046039 C52.5052444,33.3894596 52.2976,32.800624 52.2976,32.1292479 C52.2976,32.0470641 52.3187556,31.9609582 52.3320889,31.8746741 C52.3504,31.7554095 52.3690667,31.6386407 52.3742222,31.5165237 C52.3822222,31.489961 52.3875556,31.4701727 52.3980444,31.44361 C52.6295111,31.5111755 52.8200889,31.5908635 52.9219556,31.6664513 C53.0659556,31.8071086 53.2764444,32.0153315 53.4721778,32.2713315 C53.6229333,32.5046908 53.8318222,32.8191643 54.2154667,32.8191643 L54.4376889,32.8191643 L54.8848,32.3508412 C54.9086222,32.3150084 54.9324444,32.2898719 54.9560889,32.2581393 C55.2577778,33.0140167 55.5434667,33.7925348 55.8055111,34.5951198 Z M53.5118222,29.0176713 C53.2392889,28.9074986 53.0250667,28.838507 52.8371556,28.838507 C52.1281778,28.838507 51.5623111,29.4235989 50.8743111,30.370585 C50.3889778,31.0722674 50.0938667,31.7142284 49.9326222,32.3549415 C48.7260444,25.4536379 46.2104889,20.4889136 42.4659556,12.9178384 C46.6600889,18.4184513 50.6138667,23.1774485 53.5118222,29.0176713 Z M36.3978667,30.6770362 C37.0088889,29.8320223 37.5466667,29.4460613 38.0003556,29.3717214 C38.5379556,29.3717214 39.0723556,29.6795989 39.6862222,30.2910752 C40.528,31.0588969 40.9063111,31.9794986 40.9063111,33.1268635 C40.9063111,34.046039 40.6055111,35.0473983 39.9136,36.1206017 C39.2272,37.1934485 38.6120889,37.729337 38.0764444,37.729337 C38.0764444,37.729337 38.0003556,37.729337 38.0003556,37.6512535 C37.4664889,37.6512535 36.9335111,37.2718886 36.3217778,36.5026407 C35.6327111,35.6588747 35.2483556,34.814039 35.2483556,34.046039 C35.2483556,32.8230864 35.6327111,31.7473872 36.3978667,30.6770362 Z M18.5029333,37.038351 C18.3514667,37.1153649 17.9658667,37.1934485 17.5836444,37.1934485 L12.8442667,37.1934485 C12.6147556,37.1934485 12.4606222,37.038351 12.3845333,36.7333259 C12.3064889,36.4283008 12.3064889,35.6588747 12.3064889,34.5088357 C12.3064889,32.3627855 12.3064889,31.0588969 12.3845333,30.5975265 C12.4606222,30.1397214 12.6901333,29.9090362 12.9976889,29.9090362 L16.6682667,29.9090362 C17.1246222,29.9090362 17.4288,29.984624 17.5836444,29.984624 C17.9658667,30.0616379 18.1205333,30.370585 18.1205333,30.8282117 C18.1205333,31.3665961 17.8897778,31.9024847 17.2787556,32.2871978 C16.8970667,32.5166351 16.2812444,32.8230864 15.3653333,33.1268635 L15.3653333,33.2049471 C16.2812444,33.3604011 16.9738667,33.6652479 17.5836444,34.046039 C18.5029333,34.5858496 18.9632,35.2782618 18.9632,36.1206017 C18.9632,36.5807242 18.8083556,36.8859276 18.5029333,37.038351 Z M21.8659556,37.3460501 C21.3315556,37.3460501 20.8718222,37.1153649 20.5649778,36.5807242 C20.3388444,36.2717772 20.2634667,35.8141504 20.2634667,35.3538496 C20.2634667,34.814039 20.4896,34.2052368 21.0266667,33.5154986 C21.1793778,33.2049471 21.5596444,32.7448245 22.1740444,32.0550864 C22.2515556,31.9794986 22.4782222,31.7473872 22.8604444,31.2897604 L22.9352889,31.2129248 C23.0947556,31.0588969 23.0947556,30.977961 23.0947556,30.9037994 C23.0947556,30.8282117 23.0947556,30.7511978 23.0947556,30.6770362 C23.0947556,30.5217604 23.0152889,30.4475989 23.0152889,30.370585 C22.9352889,30.2167354 22.9352889,30.1397214 22.9352889,30.0616379 C22.9352889,29.984624 23.0152889,29.984624 23.0947556,29.984624 C23.1701333,29.9090362 23.2435556,29.9090362 23.2435556,29.9090362 L24.8519111,29.9090362 C24.9272889,29.9090362 25.0007111,29.984624 25.0007111,30.0616379 C25.0007111,30.1397214 25.0007111,30.2167354 25.0773333,30.2910752 C25.0773333,30.370585 25.0773333,30.5217604 25.1553778,30.7511978 L25.3889778,31.6730474 L25.5370667,32.1292479 C25.8426667,33.4370585 26.1514667,34.5858496 26.4577778,35.5064513 C26.6083556,35.9667521 26.8366222,36.5026407 26.9880889,37.038351 C26.9880889,37.1153649 26.9880889,37.1153649 26.9146667,37.1153649 C26.8366222,37.1934485 26.7585778,37.1934485 26.6832,37.1934485 L25.0773333,37.1934485 C25.0773333,37.1934485 25.0007111,37.1153649 24.9272889,36.8859276 L24.7697778,36.1206017 L24.5431111,35.5064513 L24.3902222,34.814039 C24.1640889,35.5807911 23.8545778,36.1206017 23.4723556,36.5807242 C23.3182222,36.7333259 23.1701333,36.8859276 22.9352889,37.038351 C22.6337778,37.2718886 22.3274667,37.3460501 21.8659556,37.3460501 Z M28.0615111,44.939766 C28.2936889,45.0936156 28.5985778,45.2474652 28.8266667,45.3216267 C29.3630222,45.4769025 29.8993778,45.5539164 30.5091556,45.5539164 L30.6618667,45.5539164 C31.1216,45.5539164 31.4264889,45.6295042 31.5792,45.7833538 C31.7345778,45.9384513 31.7345778,46.0883788 31.7345778,46.396078 L31.7345778,49.5409916 C31.7345778,49.8486908 31.7345778,50.0768802 31.656,50.152468 C31.5011556,50.3063175 31.1216,50.3860056 30.5857778,50.3860056 L23.0947556,50.3860056 L23.0947556,49.7691811 L24.3902222,49.7691811 L24.3902222,44.7871643 C24.3902222,42.9434652 24.6190222,41.5639889 25.1553778,40.797415 C25.6919111,39.8782396 26.6832,39.4179387 28.0615111,39.3409248 C28.2154667,39.3409248 28.3669333,39.2655153 28.5191111,39.2655153 C29.5157333,39.2655153 30.3550222,39.5717883 30.8906667,40.0308412 C31.5011556,40.5665515 31.7345778,41.1051142 31.7345778,41.7948524 C31.7345778,42.5614262 31.5011556,43.1782507 30.9667556,43.5590418 C30.5091556,43.8653148 29.9706667,44.0179164 29.3630222,44.0179164 C29.1301333,44.0179164 28.8266667,43.9437549 28.672,43.8653148 C28.4437333,43.7909749 28.2936889,43.7114652 28.0615111,43.5590418 C27.9866667,43.5590418 27.9866667,43.5590418 27.9066667,43.4806017 L27.2195556,44.4026295 C27.5232,44.5552312 27.8305778,44.7871643 28.0615111,44.939766 Z M32.1904,36.8859276 C32.0382222,36.5807242 31.8055111,35.7373148 31.4264889,34.2793983 L31.1969778,33.5154986 C31.1216,33.2049471 31.0448,32.9001003 30.9667556,32.6679889 C30.9667556,32.5166351 30.9667556,32.4396212 30.8906667,32.21161 L30.816,31.6730474 L30.6618667,31.1332368 C30.5857778,31.3665961 30.5857778,31.5908635 30.5091556,31.7473872 C30.3550222,31.9794986 30.2789333,32.1292479 30.2023111,32.2871978 C29.8993778,33.0564457 29.6657778,33.5898384 29.5157333,34.046039 C29.4369778,34.5088357 29.3630222,34.8921226 29.3630222,35.1973259 C29.3630222,35.5064513 29.3630222,35.6588747 29.4369778,35.8141504 C29.4369778,35.9667521 29.5157333,36.1206017 29.5898667,36.4283008 C29.6657778,36.5026407 29.744,36.6564903 29.8200889,36.8089136 C29.8993778,36.8859276 29.9706667,36.9654373 29.9706667,37.038351 C29.9706667,37.1153649 29.8200889,37.1934485 29.6657778,37.1934485 L28.1388444,37.1934485 C27.9066667,37.1934485 27.7559111,37.1934485 27.6792889,37.1153649 C27.6017778,37.038351 27.6017778,36.8859276 27.6017778,36.6564903 C27.6017778,36.0435877 27.7559111,35.4308635 28.1388444,34.6655376 C28.2936889,34.2793983 28.672,33.6652479 29.2842667,32.7448245 C29.5157333,32.4396212 29.744,32.1292479 29.8993778,31.7473872 C30.2023111,31.2897604 30.3550222,30.977961 30.3550222,30.7511978 C30.3550222,30.5975265 30.2789333,30.4475989 30.2023111,30.2910752 C30.2023111,30.2167354 30.2023111,30.1397214 30.2023111,30.0616379 C30.2789333,29.984624 30.3550222,29.9090362 30.5091556,29.9090362 L31.9633778,29.9090362 C32.1904,29.9090362 32.3450667,29.984624 32.4211556,30.0616379 C32.4211556,30.0616379 32.4211556,30.1397214 32.4211556,30.370585 C32.4211556,30.6770362 32.4977778,31.2129248 32.728,31.9794986 C32.8021333,32.4396212 32.9536,32.8230864 33.1082667,33.281961 C33.4165333,34.2793983 33.7207111,35.1215599 33.9495111,35.8141504 C34.1041778,36.1986852 34.2563556,36.5807242 34.4117333,36.9654373 C34.4117333,37.1153649 34.3329778,37.1934485 34.1829333,37.1934485 C34.1041778,37.1934485 34.0268444,37.1934485 33.9495111,37.1934485 L33.3363556,37.1153649 L32.728,37.1934485 C32.4977778,37.1934485 32.3450667,37.1153649 32.1904,36.8859276 Z M38.0003556,49.3101281 C37.3152,50.3860056 36.7054222,50.9217159 36.1690667,50.9217159 L36.0896,50.9217159 C35.5539556,50.8448802 35.0195556,50.4603454 34.4117333,49.6960891 C33.6426667,48.8526797 33.3363556,48.0834318 33.3363556,47.2396657 C33.3363556,46.0883788 33.7207111,44.939766 34.4117333,43.9437549 C35.0976,43.0960669 35.6327111,42.639688 36.0896,42.639688 C36.6280889,42.639688 37.1603556,42.9434652 37.7703111,43.4806017 C38.6120889,44.2473538 38.9943111,45.1692033 38.9943111,46.3219164 C38.9943111,47.3179276 38.6120889,48.3153649 38.0003556,49.3101281 Z M48.0225778,50.6154429 C47.9472,50.7678663 47.8691556,50.9217159 47.7925333,51.0757437 C47.5608889,51.302507 47.4115556,51.5360446 47.2552889,51.8396435 C47.0252444,52.3024401 46.7182222,52.7641671 46.4908444,53.2973816 L45.7262222,53.2217939 C45.8030222,52.9923565 45.9576889,52.6859053 46.0332444,52.375532 C46.1086222,51.9961671 46.1086222,51.7640557 46.1086222,51.6102061 C46.1086222,51.225493 45.9576889,50.9217159 45.7262222,50.6883565 C45.4195556,50.538429 44.9644444,50.3860056 44.3507556,50.3860056 L43.2024889,50.3860056 C42.6709333,50.3860056 42.2832,50.538429 41.9790222,50.6883565 C41.7502222,50.9217159 41.5960889,51.225493 41.5960889,51.6102061 C41.5960889,51.8396435 41.5960889,52.070507 41.6736,52.375532 C41.7502222,52.6088914 41.9036444,52.9112423 41.9790222,53.2217939 L41.2199111,53.2973816 C40.8309333,52.456468 40.4512,51.6898942 39.9904,51.1511532 C39.9136,50.9217159 39.7640889,50.7678663 39.6862222,50.6154429 C39.6062222,50.4603454 39.6062222,50.3063175 39.6062222,50.152468 C39.6062222,50.0768802 39.6062222,49.9998663 39.6862222,49.9244568 C39.8401778,49.8486908 39.9136,49.8486908 39.9904,49.8486908 L40.2965333,49.8486908 C40.6055111,49.8486908 40.7568,49.7691811 40.9063111,49.7691811 C40.9845333,49.6960891 41.1365333,49.6153315 41.2199111,49.464156 C41.4458667,49.0806908 41.8256,48.2385292 42.2090667,46.9346407 C42.6709333,45.6295042 42.8968889,44.7103287 42.8968889,44.2473538 C42.8968889,44.0974262 42.8202667,43.9437549 42.8202667,43.8653148 C42.8202667,43.7909749 42.7475556,43.7114652 42.6709333,43.6344513 C42.6709333,43.4806017 42.5914667,43.4050139 42.5914667,43.3294262 C42.5914667,43.2525905 42.6709333,43.1782507 42.7475556,43.1782507 C42.8202667,43.1782507 42.8968889,43.1782507 42.9751111,43.1782507 L43.8903111,43.1782507 C44.1219556,43.1782507 44.3507556,43.1782507 44.5027556,43.1782507 C44.6576,43.1782507 44.8851556,43.0960669 45.0384,43.0960669 C45.1152,43.0960669 45.1893333,43.0960669 45.2698667,43.1782507 C45.3454222,43.1782507 45.3454222,43.2525905 45.3454222,43.4806017 C45.3454222,43.9437549 45.4195556,44.4782173 45.5742222,45.0936156 C45.6496,45.4769025 45.8030222,46.0127911 46.0332444,46.7066295 C46.4908444,48.1615153 46.7991111,49.0806908 47.0252444,49.464156 C47.1799111,49.6960891 47.3320889,49.8486908 47.5608889,49.8486908 L47.7157333,49.8486908 C47.8691556,49.8486908 47.9472,49.8486908 48.0225778,49.9244568 C48.0952889,49.9998663 48.1733333,50.0768802 48.1733333,50.152468 C48.1733333,50.3063175 48.0952889,50.4603454 48.0225778,50.6154429 Z M48.5569778,37.038351 C48.4021333,37.1153649 48.0225778,37.1934485 47.6364444,37.1934485 L42.8968889,37.1934485 C42.6709333,37.1934485 42.5134222,37.038351 42.4380444,36.7333259 C42.3614222,36.4283008 42.3614222,35.6588747 42.3614222,34.5088357 C42.3614222,32.3627855 42.4380444,31.0588969 42.4380444,30.5975265 C42.5134222,30.1397214 42.7475556,29.9090362 43.0531556,29.9090362 L46.7182222,29.9090362 C47.1799111,29.9090362 47.4855111,29.984624 47.6364444,29.984624 C48.0225778,30.0616379 48.1733333,30.370585 48.1733333,30.8282117 C48.1733333,31.3665961 47.9472,31.9024847 47.3320889,32.2871978 C46.9484444,32.5166351 46.3374222,32.8230864 45.4195556,33.1268635 L45.4195556,33.2049471 C46.3374222,33.3604011 47.0252444,33.6652479 47.6364444,34.046039 C48.5569778,34.5858496 49.0172444,35.2782618 49.0172444,36.1206017 C49.0172444,36.5807242 48.8611556,36.8859276 48.5569778,37.038351 Z M54.9827556,50.3860056 C54.9031111,50.3860056 54.7550222,50.4603454 54.4455111,50.4603454 L49.5516444,50.4603454 C49.3955556,50.4603454 49.2446222,50.3860056 49.1667556,50.3063175 C49.0913778,50.152468 49.0172444,49.9998663 49.0172444,49.8486908 L49.0172444,47.7784067 C49.0172444,45.6295042 49.0172444,44.4026295 49.0913778,43.8653148 C49.1667556,43.4050139 49.3955556,43.1782507 49.6284444,43.1782507 L50.3889778,43.1782507 C50.4657778,43.1782507 50.5463111,43.1782507 50.6204444,43.1782507 C50.6997333,43.1782507 50.7765333,43.1782507 50.8478222,43.1782507 L51.0012444,43.1782507 C51.1573333,43.1782507 51.2314667,43.2525905 51.2314667,43.4050139 C51.2314667,43.4806017 51.1573333,43.5590418 51.1573333,43.7114652 C51.0012444,44.0179164 51.0012444,44.4026295 51.0012444,44.939766 C51.0012444,45.1692033 51.0012444,45.4769025 51.0012444,45.7063398 C50.9258667,45.9384513 50.9258667,46.1666407 50.9258667,46.396078 C51.3080889,46.396078 51.6163556,46.396078 51.9219556,46.4716657 C52.1480889,46.4716657 52.4576,46.5486797 52.6837333,46.6269415 C53.2234667,46.778117 53.6785778,47.0102284 54.0620444,47.3179276 C54.5991111,47.6985404 54.9031111,48.1615153 55.1347556,48.6191421 C55.2869333,49.0026072 55.2869333,49.3885682 55.2869333,49.7691811 C55.2869333,50.0768802 55.2101333,50.3063175 54.9827556,50.3860056 Z M54.0554667,40.3848914 C52.4323556,40.3848914 50.7340444,38.9736825 50.5104,36.827454 C50.4789333,36.450585 50.4378667,36.0872646 50.3992889,35.7212702 C50.5304889,35.971922 50.6837333,36.2225738 50.8558222,36.4732256 C51.3544889,37.2916769 52.1347556,38.2613036 52.9959111,38.2613036 C53.6387556,38.2613036 54.2896,37.6193426 54.5911111,37.2638663 C55.1943111,36.6630864 55.6149333,35.9638997 55.9772444,35.3033983 L56.0090667,35.2475989 C56.0963556,35.5290919 56.1889778,35.8007799 56.2723556,36.0872646 C56.7841778,37.8633983 55.6016,40.3078774 54.0554667,40.3848914 Z M57.8860444,48.3897047 C57.9639111,49.0026072 57.9639111,49.5409916 58.0380444,49.9998663 C58.0380444,49.9998663 58.0380444,50.0768802 58.0380444,50.152468 C58.0380444,50.2294819 58.0380444,50.3063175 57.8860444,50.3860056 C57.808,50.3860056 57.5804444,50.4603454 57.2748444,50.4603454 L56.5091556,50.4603454 C56.3582222,50.4603454 56.2049778,50.3860056 56.1281778,50.2294819 C56.0526222,50.0768802 55.9747556,49.7691811 55.9747556,49.2332925 C55.9747556,48.7717437 55.9747556,48.3897047 55.9747556,48.1615153 C55.9747556,47.0102284 55.8979556,46.3219164 55.8979556,46.2422284 C55.8979556,44.8668524 55.9747556,44.0179164 56.0526222,43.6344513 C56.1281778,43.3294262 56.2816,43.1782507 56.5091556,43.1782507 L57.8860444,43.1782507 C57.9639111,43.1782507 58.0380444,43.2525905 58.0380444,43.4050139 C58.0380444,43.8653148 57.9639111,44.3282897 57.8860444,44.7871643 C57.808,45.2474652 57.808,45.7063398 57.808,46.1666407 C57.808,47.0102284 57.808,47.7784067 57.8860444,48.3897047 Z M62.4732444,35.2782618 C62.9322667,35.8868858 63.1649778,36.5026407 63.1649778,37.038351 C63.1649778,37.1934485 63.0129778,37.1934485 62.7786667,37.1934485 C62.7045333,37.1934485 62.6279111,37.1934485 62.5498667,37.1934485 L62.0168889,37.1934485 C61.7866667,37.1934485 61.632,37.1934485 61.4824889,37.1934485 C61.3303111,37.1934485 61.2522667,37.1934485 61.1729778,37.1934485 C61.0976,37.1934485 61.0220444,37.1934485 61.0220444,37.1153649 C60.9456,37.038351 60.9456,36.8089136 60.8700444,36.5807242 C60.7932444,35.8868858 60.5605333,35.3538496 60.1795556,34.814039 C59.7960889,34.2793983 59.3383111,33.9729471 58.8053333,33.8178496 C58.8053333,34.2793983 58.8794667,34.7423733 58.8794667,35.2782618 C58.8794667,35.7373148 58.9560889,36.2717772 58.9560889,36.7333259 C58.9560889,36.8089136 58.9560889,36.8859276 58.9560889,36.8859276 C58.9560889,36.9654373 58.9560889,37.038351 58.8053333,37.1153649 C58.7272889,37.1153649 58.5751111,37.1934485 58.2668444,37.1934485 L57.5063111,37.1934485 C57.2748444,37.1934485 57.1228444,36.9654373 57.0460444,36.5807242 C56.9694222,36.1206017 56.9694222,34.9705627 56.9694222,33.0564457 C56.9694222,31.6730474 56.9694222,30.7511978 57.0460444,30.4475989 C57.1228444,30.0616379 57.2748444,29.9090362 57.5063111,29.9090362 L58.8794667,29.9090362 C59.0327111,29.9090362 59.1121778,29.984624 59.1121778,30.1397214 C59.1121778,30.2167354 59.0327111,30.4475989 59.0327111,30.7511978 C58.9560889,31.0588969 58.8794667,31.3665961 58.8794667,31.7473872 C58.8794667,32.1292479 58.8053333,32.593649 58.8053333,33.281961 L58.9560889,33.281961 C59.6465778,31.9794986 60.3370667,31.0588969 60.9456,30.4475989 C61.4824889,29.984624 61.9388444,29.7551866 62.4003556,29.7551866 C62.6279111,29.7551866 62.7786667,29.8320223 62.8568889,29.8320223 C63.0129778,29.9090362 63.0881778,29.984624 63.0881778,29.984624 C63.0129778,30.2167354 62.8568889,30.4475989 62.7786667,30.6770362 C62.7045333,30.9037994 62.6279111,31.2129248 62.6279111,31.5908635 L62.6279111,31.9794986 L62.2456889,31.9794986 C62.1703111,31.8229749 62.0935111,31.6730474 61.9388444,31.5908635 C61.7866667,31.5165237 61.632,31.4409359 61.4824889,31.4409359 C61.2522667,31.4409359 60.9456,31.5908635 60.6412444,31.9024847 C60.2563556,32.21161 59.9507556,32.5166351 59.7219556,32.9769359 L59.4138667,33.4370585 C60.7932444,33.8178496 61.7866667,34.4346741 62.4732444,35.2782618 L62.4732444,35.2782618 Z" id="Fill-9" fill="#1E3E85"></path>
                                <path d="M36.0896,44.7103287 C35.7080889,44.5552312 35.3278222,44.4026295 34.9415111,44.4026295 C34.56,44.7871643 34.4117333,45.1692033 34.4117333,45.6295042 C34.4117333,46.3219164 34.6380444,47.0102284 35.0976,47.6985404 C35.3278222,48.1615153 35.7080889,48.5448022 36.0896,48.7717437 C36.3978667,48.9282674 36.7788444,49.0026072 37.1603556,49.0026072 C37.2384,49.0026072 37.3898667,49.0026072 37.4664889,49.0026072 C37.5466667,48.8526797 37.6200889,48.6191421 37.6200889,48.4667187 C37.6967111,48.2385292 37.6967111,48.0834318 37.6967111,47.8564903 C37.6967111,47.0102284 37.4664889,46.2422284 36.9335111,45.5539164 C36.7054222,45.2474652 36.3978667,44.939766 36.0896,44.7103287" id="Fill-10" fill="#1E3E85"></path>
                                <path d="M51.9219556,47.3935153 C51.6163556,47.2396657 51.3080889,47.1615822 50.9258667,47.0872423 C50.9258667,47.1615822 50.9258667,47.3179276 50.9258667,47.3935153 C50.9258667,47.4705292 50.9258667,47.6231309 50.9258667,47.6985404 L50.9258667,47.9269081 C50.9258667,48.3153649 50.9258667,48.6974039 50.9258667,49.1550306 C50.9258667,49.6153315 50.9258667,49.8486908 50.9258667,49.9244568 L52.9959111,49.9244568 L52.9959111,49.3885682 C52.9959111,48.9282674 52.9166222,48.4667187 52.6837333,48.1615153 C52.4576,47.8564903 52.2261333,47.6231309 51.9219556,47.3935153" id="Fill-11" fill="#1E3E85"></path>
                                <path d="M44.7317333,48.6974039 C44.5027556,48.0834318 44.2766222,47.4705292 44.1219556,46.8576267 C43.9710222,46.3219164 43.8163556,45.7833538 43.7397333,45.2474652 L43.6600889,44.5552312 L43.4366222,44.5552312 C43.2792889,45.1692033 43.2024889,45.7833538 42.9751111,46.396078 C42.9751111,46.4716657 42.8202667,46.8576267 42.5914667,47.6985404 C42.3614222,48.3153649 42.2090667,48.7717437 42.0544,49.0806908 C41.9790222,49.3885682 41.8256,49.6960891 41.7502222,49.9244568 L45.2698667,49.9244568 C45.1152,49.6960891 45.0384,49.5409916 44.9644444,49.3885682 C44.8851556,49.2332925 44.8083556,49.0026072 44.7317333,48.6974039" id="Fill-12" fill="#1E3E85"></path>
                                <path d="M28.3669333,43.1782507 C28.5985778,43.1782507 28.8266667,43.0204791 28.9786667,42.8678774 C29.2096,42.5614262 29.3630222,42.1025515 29.3630222,41.5639889 C29.3630222,41.0295265 29.2096,40.5665515 28.9786667,40.3397883 C28.7518222,40.1076769 28.5191111,39.9538273 28.1388444,39.9538273 L28.0615111,39.9538273 C27.5232,39.9538273 27.1434667,40.3397883 26.9880889,41.0295265 C26.8366222,41.489649 26.7585778,42.2524791 26.7585778,43.1782507 C26.7585778,43.3294262 26.7585778,43.5590418 26.7585778,43.7114652 C26.7585778,43.7909749 26.7585778,43.9437549 26.7585778,44.0974262 L27.6792889,42.8678774 C27.8305778,42.9434652 27.9066667,43.0204791 28.0615111,43.0960669 C28.2154667,43.0960669 28.2936889,43.1782507 28.3669333,43.1782507" id="Fill-13" fill="#1E3E85"></path>
                                <path d="M23.7818667,34.8921226 C23.9287111,34.6655376 24.0853333,34.4346741 24.0853333,34.1267967 C24.0853333,33.9729471 24.0067556,33.5898384 23.8545778,32.9769359 L23.6224,32.2871978 C23.5464889,32.0550864 23.4723556,31.7473872 23.3962667,31.4409359 C23.2435556,31.6730474 23.0947556,31.8229749 22.9352889,31.9794986 C22.5550222,32.4396212 22.2515556,32.9001003 22.0986667,33.3604011 C21.9459556,33.7435097 21.8659556,34.046039 21.8659556,34.3551643 C21.8659556,34.5858496 21.9459556,34.814039 22.0986667,35.0473983 C22.2515556,35.2782618 22.4782222,35.3538496 22.7857778,35.3538496 C22.8604444,35.3538496 22.8604444,35.3538496 22.9352889,35.3538496 C23.2435556,35.3538496 23.5464889,35.1973259 23.7818667,34.8921226" id="Fill-14" fill="#1E3E85"></path>
                                <path d="M26.7585778,44.6306407 L26.7585778,49.7691811 L28.672,49.7691811 C28.9027556,49.7691811 29.1301333,49.6960891 29.2096,49.5409916 C29.2842667,49.3885682 29.3630222,49.1550306 29.3630222,48.6974039 L29.3630222,46.9346407 C29.3630222,46.7066295 29.3630222,46.5486797 29.2842667,46.4716657 C29.2096,46.3219164 28.9786667,46.2422284 28.672,46.0127911 C28.4437333,45.9384513 28.2154667,45.7833538 28.0615111,45.7063398 C27.9066667,45.5539164 27.7559111,45.4769025 27.6017778,45.4000669 C27.2929778,45.1692033 26.9880889,44.939766 26.7585778,44.6306407" id="Fill-15" fill="#1E3E85"></path>
                                <path d="M50.8743111,30.370585 C51.5623111,29.4235989 52.1281778,28.838507 52.8371556,28.838507 C53.0250667,28.838507 53.2392889,28.9074986 53.5118222,29.0176713 C50.6138667,23.1774485 46.6600889,18.4184513 42.4659556,12.9178384 C46.2104889,20.4889136 48.7260444,25.4536379 49.9326222,32.3549415 C50.0938667,31.7142284 50.3889778,31.0722674 50.8743111,30.370585" id="Fill-16" fill="#FFFFFE"></path>
                                <path d="M52.9219556,31.6664513 C52.8200889,31.5908635 52.6295111,31.5111755 52.3980444,31.44361 C52.3875556,31.4701727 52.3822222,31.489961 52.3742222,31.5165237 C52.3690667,31.6386407 52.3504,31.7554095 52.3320889,31.8746741 C52.3187556,31.9609582 52.2976,32.0470641 52.2976,32.1292479 C52.2976,32.800624 52.5052444,33.3894596 52.9667556,34.046039 C53.3054222,34.6124123 53.6071111,34.9586184 53.9523556,35.1721894 L54.0712889,35.0500724 C54.0910222,35.0288579 54.1176889,34.978585 54.1585778,34.9147632 L54.8490667,33.7713203 L55.8055111,34.5951198 C55.5434667,33.7925348 55.2577778,33.0140167 54.9560889,32.2581393 C54.9324444,32.2898719 54.9086222,32.3150084 54.8848,32.3508412 L54.4376889,32.8191643 L54.2154667,32.8191643 C53.8318222,32.8191643 53.6229333,32.5046908 53.4721778,32.2713315 C53.2764444,32.0153315 53.0659556,31.8071086 52.9219556,31.6664513" id="Fill-17" fill="#FFFFFE"></path>
                                <path d="M56.0090667,35.2475989 L55.9772444,35.3033983 C55.6149333,35.9638997 55.1943111,36.6630864 54.5911111,37.2638663 C54.2896,37.6193426 53.6387556,38.2613036 52.9959111,38.2613036 C52.1347556,38.2613036 51.3544889,37.2916769 50.8558222,36.4732256 C50.6837333,36.2225738 50.5304889,35.971922 50.3992889,35.7212702 C50.4378667,36.0872646 50.4789333,36.450585 50.5104,36.827454 C50.7340444,38.9736825 52.4323556,40.3848914 54.0554667,40.3848914 C55.6016,40.3078774 56.7841778,37.8633983 56.2723556,36.0872646 C56.1889778,35.8007799 56.0963556,35.5290919 56.0090667,35.2475989" id="Fill-18" fill="#FFFFFE"></path>
                                <path d="M17.5836444,34.046039 C16.9738667,33.6652479 16.2812444,33.3604011 15.3653333,33.2049471 L15.3653333,33.1268635 C16.2812444,32.8230864 16.8970667,32.5166351 17.2787556,32.2871978 C17.8897778,31.9024847 18.1205333,31.3665961 18.1205333,30.8282117 C18.1205333,30.370585 17.9658667,30.0616379 17.5836444,29.984624 C17.4288,29.984624 17.1246222,29.9090362 16.6682667,29.9090362 L12.9976889,29.9090362 C12.6901333,29.9090362 12.4606222,30.1397214 12.3845333,30.5975265 C12.3064889,31.0588969 12.3064889,32.3627855 12.3064889,34.5088357 C12.3064889,35.6588747 12.3064889,36.4283008 12.3845333,36.7333259 C12.4606222,37.038351 12.6147556,37.1934485 12.8442667,37.1934485 L17.5836444,37.1934485 C17.9658667,37.1934485 18.3514667,37.1153649 18.5029333,37.038351 C18.8083556,36.8859276 18.9632,36.5807242 18.9632,36.1206017 C18.9632,35.2782618 18.5029333,34.5858496 17.5836444,34.046039 Z M14.2958222,30.4475989 C14.4501333,30.4475989 14.6001778,30.4475989 14.6782222,30.4475989 C14.8302222,30.4475989 14.9070222,30.4475989 15.0618667,30.4475989 L15.2152889,30.4475989 C15.4467556,30.4475989 15.6716444,30.5217604 15.8263111,30.5975265 C16.0565333,30.6770362 16.1306667,30.8282117 16.1306667,31.0588969 C16.1306667,31.5165237 15.9797333,31.9024847 15.5936,32.21161 C15.5180444,32.3627855 15.3653333,32.4396212 15.2152889,32.593649 C14.9070222,32.7448245 14.6001778,32.8230864 14.2192,32.8230864 C14.2192,31.9794986 14.2958222,31.2129248 14.2958222,30.4475989 Z M16.2812444,36.5026407 C16.1306667,36.5807242 15.7509333,36.6564903 15.2152889,36.6564903 L14.2192,36.6564903 L14.2192,33.4370585 C14.5240889,33.4370585 14.9070222,33.4370585 15.2152889,33.5898384 C15.5180444,33.7435097 15.7509333,33.9729471 16.0565333,34.2793983 C16.4401778,34.7423733 16.6682667,35.1973259 16.6682667,35.7373148 C16.6682667,36.1206017 16.5895111,36.4283008 16.2812444,36.5026407 Z M9.93688889,36.5026407 L11.2405333,36.5026407 L11.2405333,37.1934485 L5.72942222,37.1934485 L5.72942222,36.5026407 L7.18311111,36.5026407 L4.81422222,32.4396212 L3.89546667,34.1267967 C3.74062222,34.4346741 3.58862222,34.814039 3.44035556,35.1973259 C3.28106667,35.6588747 3.20764444,35.9667521 3.20764444,36.1206017 C3.20764444,36.2717772 3.20764444,36.4283008 3.36231111,36.4283008 C3.51182222,36.5026407 3.66471111,36.5026407 3.89546667,36.5026407 L4.12302222,36.5026407 C4.20355556,36.5026407 4.27502222,36.5026407 4.27502222,36.5026407 L4.27502222,37.1934485 L0.531911111,37.1934485 L0.531911111,36.5026407 C0.607111111,36.5026407 0.682488889,36.5026407 0.760711111,36.5026407 C1.29511111,36.5026407 1.75342222,36.2717772 2.13226667,35.8141504 C2.3664,35.5064513 2.67057778,34.8921226 3.13102222,33.9729471 L3.36231111,33.5154986 L4.27502222,31.5908635 L1.59911111,26.9179721 L0.531911111,26.9179721 L0.531911111,26.3038217 L5.34577778,26.3038217 L5.34577778,26.9179721 L4.20355556,26.9179721 L5.88408889,29.601337 L6.26702222,28.7589972 L6.49848889,28.1448468 C6.88088889,27.378273 7.18311111,26.8409582 7.41191111,26.614195 C7.87484444,26.2309081 8.40924444,26.0756323 9.17244444,26.0756323 C9.47857778,26.0756323 9.78364444,26.1512201 10.1685333,26.2309081 C10.5493333,26.3038217 10.7041778,26.4549972 10.7041778,26.5320111 C10.7041778,26.614195 10.7041778,26.7641226 10.6247111,26.8409582 L10.4712889,27.1474095 L10.3178667,27.4552869 C10.2444444,27.5306964 10.2444444,27.6832981 10.2444444,27.6832981 C10.1685333,27.8371476 10.1685333,27.9909972 10.1685333,28.0680111 L10.1685333,28.2231086 C10.1685333,28.3757103 10.1685333,28.5295599 10.0897778,28.6037214 L9.63413333,28.6037214 C9.32391111,28.3757103 9.09564444,28.2231086 8.94222222,28.1448468 C8.78755556,28.1448468 8.63804444,28.0680111 8.40924444,28.0680111 C8.10097778,28.0680111 7.79342222,28.1448468 7.64071111,28.2986964 C7.41191111,28.4539721 7.18311111,28.8360111 6.88088889,29.4460613 L6.64462222,29.8320223 L6.4192,30.4475989 L9.93688889,36.5026407 Z M24.3902222,34.814039 L24.5431111,35.5064513 L24.7697778,36.1206017 L24.9272889,36.8859276 C25.0007111,37.1153649 25.0773333,37.1934485 25.0773333,37.1934485 L26.6832,37.1934485 C26.7585778,37.1934485 26.8366222,37.1934485 26.9146667,37.1153649 C26.9880889,37.1153649 26.9880889,37.1153649 26.9880889,37.038351 C26.8366222,36.5026407 26.6083556,35.9667521 26.4577778,35.5064513 C26.1514667,34.5858496 25.8426667,33.4370585 25.5370667,32.1292479 L25.3889778,31.6730474 L25.1553778,30.7511978 C25.0773333,30.5217604 25.0773333,30.370585 25.0773333,30.2910752 C25.0007111,30.2167354 25.0007111,30.1397214 25.0007111,30.0616379 C25.0007111,29.984624 24.9272889,29.9090362 24.8519111,29.9090362 L23.2435556,29.9090362 C23.2435556,29.9090362 23.1701333,29.9090362 23.0947556,29.984624 C23.0152889,29.984624 22.9352889,29.984624 22.9352889,30.0616379 C22.9352889,30.1397214 22.9352889,30.2167354 23.0152889,30.370585 C23.0152889,30.4475989 23.0947556,30.5217604 23.0947556,30.6770362 C23.0947556,30.7511978 23.0947556,30.8282117 23.0947556,30.9037994 C23.0947556,30.977961 23.0947556,31.0588969 22.9352889,31.2129248 L22.8604444,31.2897604 C22.4782222,31.7473872 22.2515556,31.9794986 22.1740444,32.0550864 C21.5596444,32.7448245 21.1793778,33.2049471 21.0266667,33.5154986 C20.4896,34.2052368 20.2634667,34.814039 20.2634667,35.3538496 C20.2634667,35.8141504 20.3388444,36.2717772 20.5649778,36.5807242 C20.8718222,37.1153649 21.3315556,37.3460501 21.8659556,37.3460501 C22.3274667,37.3460501 22.6337778,37.2718886 22.9352889,37.038351 C23.1701333,36.8859276 23.3182222,36.7333259 23.4723556,36.5807242 C23.8545778,36.1206017 24.1640889,35.5807911 24.3902222,34.814039 Z M22.7857778,35.3538496 C22.4782222,35.3538496 22.2515556,35.2782618 22.0986667,35.0473983 C21.9459556,34.814039 21.8659556,34.5858496 21.8659556,34.3551643 C21.8659556,34.046039 21.9459556,33.7435097 22.0986667,33.3604011 C22.2515556,32.9001003 22.5550222,32.4396212 22.9352889,31.9794986 C23.0947556,31.8229749 23.2435556,31.6730474 23.3962667,31.4409359 C23.4723556,31.7473872 23.5464889,32.0550864 23.6224,32.2871978 L23.8545778,32.9769359 C24.0067556,33.5898384 24.0853333,33.9729471 24.0853333,34.1267967 C24.0853333,34.4346741 23.9287111,34.6655376 23.7818667,34.8921226 C23.5464889,35.1973259 23.2435556,35.3538496 22.9352889,35.3538496 C22.8604444,35.3538496 22.8604444,35.3538496 22.7857778,35.3538496 Z M38.0003556,37.6512535 C38.0003556,37.729337 38.0764444,37.729337 38.0764444,37.729337 C38.6120889,37.729337 39.2272,37.1934485 39.9136,36.1206017 C40.6055111,35.0473983 40.9063111,34.046039 40.9063111,33.1268635 C40.9063111,31.9794986 40.528,31.0588969 39.6862222,30.2910752 C39.0723556,29.6795989 38.5379556,29.3717214 38.0003556,29.3717214 C37.5466667,29.4460613 37.0088889,29.8320223 36.3978667,30.6770362 C35.6327111,31.7473872 35.2483556,32.8230864 35.2483556,34.046039 C35.2483556,34.814039 35.6327111,35.6588747 36.3217778,36.5026407 C36.9335111,37.2718886 37.4664889,37.6512535 38.0003556,37.6512535 Z M36.8535111,31.1332368 C37.2384,31.2129248 37.6200889,31.2897604 38.0003556,31.5165237 C38.3091556,31.7473872 38.6120889,31.9794986 38.9216,32.3627855 C39.3772444,32.9769359 39.6062222,33.7435097 39.6062222,34.6655376 C39.6062222,34.814039 39.6062222,35.0473983 39.6062222,35.1973259 C39.5340444,35.4308635 39.4584889,35.5807911 39.3772444,35.7373148 C39.3011556,35.8141504 39.2272,35.8141504 39.0723556,35.8141504 C38.6894222,35.8141504 38.3091556,35.6588747 38.0003556,35.5064513 C37.6200889,35.2782618 37.3152,34.9705627 37.0088889,34.5088357 C36.5505778,33.8178496 36.3217778,33.1268635 36.3217778,32.3627855 C36.3217778,31.9794986 36.472,31.5165237 36.8535111,31.1332368 Z M47.6364444,34.046039 C47.0252444,33.6652479 46.3374222,33.3604011 45.4195556,33.2049471 L45.4195556,33.1268635 C46.3374222,32.8230864 46.9484444,32.5166351 47.3320889,32.2871978 C47.9472,31.9024847 48.1733333,31.3665961 48.1733333,30.8282117 C48.1733333,30.370585 48.0225778,30.0616379 47.6364444,29.984624 C47.4855111,29.984624 47.1799111,29.9090362 46.7182222,29.9090362 L43.0531556,29.9090362 C42.7475556,29.9090362 42.5134222,30.1397214 42.4380444,30.5975265 C42.4380444,31.0588969 42.3614222,32.3627855 42.3614222,34.5088357 C42.3614222,35.6588747 42.3614222,36.4283008 42.4380444,36.7333259 C42.5134222,37.038351 42.6709333,37.1934485 42.8968889,37.1934485 L47.6364444,37.1934485 C48.0225778,37.1934485 48.4021333,37.1153649 48.5569778,37.038351 C48.8611556,36.8859276 49.0172444,36.5807242 49.0172444,36.1206017 C49.0172444,35.2782618 48.5569778,34.5858496 47.6364444,34.046039 Z M44.3507556,30.4475989 C44.5027556,30.4475989 44.6576,30.4475989 44.7317333,30.4475989 C44.8851556,30.4475989 45.0384,30.4475989 45.1152,30.4475989 L45.2698667,30.4475989 C45.4961778,30.4475989 45.7262222,30.5217604 45.8798222,30.5975265 C46.1086222,30.6770362 46.1864889,30.8282117 46.1864889,31.0588969 C46.1864889,31.5165237 46.0332444,31.9024847 45.6496,32.21161 C45.5742222,32.3627855 45.4195556,32.4396212 45.2698667,32.593649 C44.9644444,32.7448245 44.6576,32.8230864 44.2766222,32.8230864 C44.2766222,31.9794986 44.3507556,31.2129248 44.3507556,30.4475989 Z M46.3374222,36.5026407 C46.1864889,36.5807242 45.8030222,36.6564903 45.2698667,36.6564903 L44.2766222,36.6564903 L44.2766222,33.4370585 C44.6576,33.4370585 44.9644444,33.4370585 45.2698667,33.5898384 C45.5742222,33.7435097 45.8798222,33.9729471 46.1086222,34.2793983 C46.4908444,34.7423733 46.7182222,35.1973259 46.7182222,35.7373148 C46.7182222,36.1206017 46.6440889,36.4283008 46.3374222,36.5026407 Z M70.5827556,32.9769359 C70.5827556,33.7435097 70.5827556,34.3551643 70.5827556,34.8921226 C70.6581333,35.4308635 70.7335111,36.0435877 70.8115556,36.7333259 C70.8115556,36.8859276 70.8115556,36.9654373 70.7335111,37.038351 C70.6581333,37.1153649 70.5059556,37.1934485 70.1992889,37.1934485 L69.2810667,37.1934485 C69.0522667,37.1934485 68.8990222,36.8859276 68.8183111,36.3527131 C68.7441778,35.8141504 68.6728889,34.3551643 68.6728889,32.0550864 L66.0696889,33.5898384 C66.0696889,34.046039 66.1464889,34.4346741 66.1464889,34.8921226 C66.1464889,35.3538496 66.2204444,35.9667521 66.3752889,36.7333259 C66.3752889,36.8859276 66.3752889,36.9654373 66.2997333,37.038351 C66.2204444,37.1153649 65.9904,37.1934485 65.7626667,37.1934485 L64.8474667,37.1934485 C64.6913778,37.1934485 64.5406222,37.1153649 64.464,37.038351 C64.3857778,36.9654373 64.3857778,36.8089136 64.3857778,36.5807242 L64.3116444,35.5807911 C64.3116444,35.1973259 64.3116444,34.8921226 64.3116444,34.6655376 C64.2389333,33.8178496 64.2389333,33.281961 64.2389333,33.0564457 C64.2389333,31.6730474 64.2389333,30.7511978 64.3857778,30.370585 C64.3857778,30.0616379 64.5406222,29.9090362 64.7681778,29.9090362 L66.1464889,29.9090362 C66.2997333,29.9090362 66.3752889,29.984624 66.3752889,30.2167354 L66.2997333,30.8282117 C66.2204444,31.2129248 66.1464889,31.5165237 66.1464889,31.8229749 C66.1464889,32.1292479 66.0696889,32.5166351 66.0696889,32.9769359 L68.6728889,31.3665961 C68.6728889,30.7511978 68.7441778,30.2910752 68.7441778,30.1397214 C68.8183111,29.984624 68.9744,29.9090362 69.2032,29.9090362 L70.5827556,29.9090362 C70.7335111,29.9090362 70.8115556,29.984624 70.8115556,30.2167354 L70.7335111,30.8282117 C70.6581333,31.2897604 70.5827556,31.5908635 70.5827556,31.9024847 C70.5827556,32.1292479 70.5827556,32.5166351 70.5827556,32.9769359 Z M62.4732444,35.2782618 C62.9322667,35.8868858 63.1649778,36.5026407 63.1649778,37.038351 C63.1649778,37.1934485 63.0129778,37.1934485 62.7786667,37.1934485 C62.7045333,37.1934485 62.6279111,37.1934485 62.5498667,37.1934485 L62.0168889,37.1934485 C61.7866667,37.1934485 61.632,37.1934485 61.4824889,37.1934485 C61.3303111,37.1934485 61.2522667,37.1934485 61.1729778,37.1934485 C61.0976,37.1934485 61.0220444,37.1934485 61.0220444,37.1153649 C60.9456,37.038351 60.9456,36.8089136 60.8700444,36.5807242 C60.7932444,35.8868858 60.5605333,35.3538496 60.1795556,34.814039 C59.7960889,34.2793983 59.3383111,33.9729471 58.8053333,33.8178496 C58.8053333,34.2793983 58.8794667,34.7423733 58.8794667,35.2782618 C58.8794667,35.7373148 58.9560889,36.2717772 58.9560889,36.7333259 C58.9560889,36.8089136 58.9560889,36.8859276 58.9560889,36.8859276 C58.9560889,36.9654373 58.9560889,37.038351 58.8053333,37.1153649 C58.7272889,37.1153649 58.5751111,37.1934485 58.2668444,37.1934485 L57.5063111,37.1934485 C57.2748444,37.1934485 57.1228444,36.9654373 57.0460444,36.5807242 C56.9694222,36.1206017 56.9694222,34.9705627 56.9694222,33.0564457 C56.9694222,31.6730474 56.9694222,30.7511978 57.0460444,30.4475989 C57.1228444,30.0616379 57.2748444,29.9090362 57.5063111,29.9090362 L58.8794667,29.9090362 C59.0327111,29.9090362 59.1121778,29.984624 59.1121778,30.1397214 C59.1121778,30.2167354 59.0327111,30.4475989 59.0327111,30.7511978 C58.9560889,31.0588969 58.8794667,31.3665961 58.8794667,31.7473872 C58.8794667,32.1292479 58.8053333,32.593649 58.8053333,33.281961 L58.9560889,33.281961 C59.6465778,31.9794986 60.3370667,31.0588969 60.9456,30.4475989 C61.4824889,29.984624 61.9388444,29.7551866 62.4003556,29.7551866 C62.6279111,29.7551866 62.7786667,29.8320223 62.8568889,29.8320223 C63.0129778,29.9090362 63.0881778,29.984624 63.0881778,29.984624 C63.0129778,30.2167354 62.8568889,30.4475989 62.7786667,30.6770362 C62.7045333,30.9037994 62.6279111,31.2129248 62.6279111,31.5908635 L62.6279111,31.9794986 L62.2456889,31.9794986 C62.1703111,31.8229749 62.0935111,31.6730474 61.9388444,31.5908635 C61.7866667,31.5165237 61.632,31.4409359 61.4824889,31.4409359 C61.2522667,31.4409359 60.9456,31.5908635 60.6412444,31.9024847 C60.2563556,32.21161 59.9507556,32.5166351 59.7219556,32.9769359 L59.4138667,33.4370585 C60.7932444,33.8178496 61.7866667,34.4346741 62.4732444,35.2782618 Z M74.7889778,33.8961114 C74.6328889,33.9729471 74.5587556,34.046039 74.4094222,34.2052368 C74.4094222,34.9705627 74.5587556,35.6588747 74.9409778,36.1986852 C75.3219556,36.7333259 75.8577778,36.9654373 76.5480889,36.9654373 C76.8524444,36.9654373 77.1566222,36.8859276 77.4622222,36.8089136 C77.7703111,36.6564903 78.1539556,36.5026407 78.5349333,36.1986852 L78.8417778,36.5026407 C78.5349333,36.8859276 78.1539556,37.1153649 77.6168889,37.3460501 C77.1566222,37.5795877 76.6222222,37.729337 76.0892444,37.729337 C75.096,37.729337 74.3287111,37.504 73.6408889,37.038351 C72.7201778,36.3527131 72.1857778,35.3538496 72.1857778,34.046039 L72.1857778,33.5154986 C72.1857778,32.6679889 72.4942222,31.8229749 73.0257778,31.1332368 C73.6408889,30.2167354 74.4848,29.7551866 75.5507556,29.7551866 C76.0138667,29.7551866 76.4702222,29.8320223 76.9264,29.984624 C77.2334222,30.1397214 77.5415111,30.2910752 77.8471111,30.5217604 C77.9991111,30.5975265 78.0744889,30.6770362 78.1539556,30.6770362 C78.3047111,30.7511978 78.3788444,30.7511978 78.4583111,30.7511978 C78.5349333,30.7511978 78.6883556,30.7511978 78.7664,30.6770362 L79.1447111,31.1332368 C78.9171556,31.2897604 78.6883556,31.4409359 78.4583111,31.5165237 C78.1539556,31.5908635 77.9212444,31.6730474 77.7703111,31.6730474 C77.5415111,31.6730474 77.3868444,31.5908635 77.1566222,31.5165237 C76.9264,31.4409359 76.7016889,31.2129248 76.3934222,30.8282117 C76.24,30.6770362 76.0892444,30.5217604 76.0138667,30.4475989 C75.8577778,30.370585 75.7056,30.2910752 75.5507556,30.2910752 C75.0138667,30.2910752 74.6328889,30.8282117 74.4848,31.9794986 C74.4094222,32.3627855 74.4094222,32.9001003 74.4094222,33.4370585 C74.6328889,33.281961 74.9409778,33.1268635 75.3219556,32.9001003 C75.7809778,32.6679889 76.1646222,32.593649 76.4702222,32.593649 C76.6222222,32.593649 76.8524444,32.593649 77.0046222,32.6679889 C77.2334222,32.7448245 77.4622222,32.9001003 77.6924444,33.0564457 C77.8471111,33.1268635 77.9991111,33.2049471 78.0744889,33.2049471 C78.3047111,33.2049471 78.4583111,33.0564457 78.6883556,32.9001003 L78.9952,33.3604011 C78.8417778,33.5154986 78.6883556,33.6652479 78.5349333,33.8178496 C78.4583111,33.8961114 78.3047111,33.9729471 78.1539556,34.1267967 C77.9991111,34.2052368 77.8471111,34.3551643 77.6924444,34.3551643 C77.6168889,34.4346741 77.4622222,34.5088357 77.3112889,34.5088357 C77.1566222,34.5088357 77.0046222,34.4346741 76.9264,34.4346741 C76.9264,34.4346741 76.7758222,34.3551643 76.6222222,34.2052368 C76.3127111,34.046039 76.1646222,33.8961114 75.9344,33.8178496 C75.7809778,33.7435097 75.6263111,33.7435097 75.4768,33.7435097 C75.2439111,33.7435097 75.0138667,33.8178496 74.7889778,33.8961114 Z M54.9827556,34.5858496 L55.5157333,35.0473983 C55.1347556,35.7373148 54.7550222,36.3527131 54.2154667,36.8859276 C53.7578667,37.424312 53.2988444,37.729337 52.9959111,37.729337 C52.5342222,37.729337 51.9219556,37.1934485 51.3080889,36.1986852 C50.6204444,35.1973259 50.3160889,34.2793983 50.3160889,33.4370585 C50.3160889,32.5166351 50.6204444,31.6730474 51.3080889,30.6770362 C51.9219556,29.8320223 52.3822222,29.3717214 52.8371556,29.3717214 C53.0686222,29.3717214 53.5249778,29.601337 54.2154667,29.9090362 C54.9827556,30.2910752 55.3610667,30.5975265 55.3610667,30.8282117 C55.3610667,30.977961 55.2101333,31.1332368 54.9031111,31.4409359 C54.7550222,31.6730474 54.5991111,31.8229749 54.4455111,32.0550864 C54.2922667,32.21161 54.2154667,32.2871978 54.2154667,32.2871978 C54.1413333,32.2871978 54.0620444,32.21161 53.9111111,31.9794986 C53.6785778,31.6730474 53.4483556,31.4409359 53.2988444,31.2897604 C52.9959111,31.0588969 52.5342222,30.9037994 52.0727111,30.8282117 C51.9998222,30.977961 51.9219556,31.1332368 51.8424889,31.4409359 C51.8424889,31.6730474 51.7685333,31.9024847 51.7685333,32.1292479 C51.7685333,32.9001003 51.9998222,33.5898384 52.5342222,34.3551643 C52.9959111,35.1215599 53.4483556,35.5807911 54.0620444,35.8141504 C54.2154667,35.6588747 54.3662222,35.5064513 54.4455111,35.4308635 C54.5210667,35.3538496 54.5991111,35.1973259 54.7550222,34.9705627 L54.9827556,34.5858496 Z M33.3363556,37.1153649 L32.728,37.1934485 C32.4977778,37.1934485 32.3450667,37.1153649 32.1904,36.8859276 C32.0382222,36.5807242 31.8055111,35.7373148 31.4264889,34.2793983 L31.1969778,33.5154986 C31.1216,33.2049471 31.0448,32.9001003 30.9667556,32.6679889 C30.9667556,32.5166351 30.9667556,32.4396212 30.8906667,32.21161 L30.816,31.6730474 L30.6618667,31.1332368 C30.5857778,31.3665961 30.5857778,31.5908635 30.5091556,31.7473872 C30.3550222,31.9794986 30.2789333,32.1292479 30.2023111,32.2871978 C29.8993778,33.0564457 29.6657778,33.5898384 29.5157333,34.046039 C29.4369778,34.5088357 29.3630222,34.8921226 29.3630222,35.1973259 C29.3630222,35.5064513 29.3630222,35.6588747 29.4369778,35.8141504 C29.4369778,35.9667521 29.5157333,36.1206017 29.5898667,36.4283008 C29.6657778,36.5026407 29.744,36.6564903 29.8200889,36.8089136 C29.8993778,36.8859276 29.9706667,36.9654373 29.9706667,37.038351 C29.9706667,37.1153649 29.8200889,37.1934485 29.6657778,37.1934485 L28.1388444,37.1934485 C27.9066667,37.1934485 27.7559111,37.1934485 27.6792889,37.1153649 C27.6017778,37.038351 27.6017778,36.8859276 27.6017778,36.6564903 C27.6017778,36.0435877 27.7559111,35.4308635 28.1388444,34.6655376 C28.2936889,34.2793983 28.672,33.6652479 29.2842667,32.7448245 C29.5157333,32.4396212 29.744,32.1292479 29.8993778,31.7473872 C30.2023111,31.2897604 30.3550222,30.977961 30.3550222,30.7511978 C30.3550222,30.5975265 30.2789333,30.4475989 30.2023111,30.2910752 C30.2023111,30.2167354 30.2023111,30.1397214 30.2023111,30.0616379 C30.2789333,29.984624 30.3550222,29.9090362 30.5091556,29.9090362 L31.9633778,29.9090362 C32.1904,29.9090362 32.3450667,29.984624 32.4211556,30.0616379 C32.4211556,30.0616379 32.4211556,30.1397214 32.4211556,30.370585 C32.4211556,30.6770362 32.4977778,31.2129248 32.728,31.9794986 C32.8021333,32.4396212 32.9536,32.8230864 33.1082667,33.281961 C33.4165333,34.2793983 33.7207111,35.1215599 33.9495111,35.8141504 C34.1041778,36.1986852 34.2563556,36.5807242 34.4117333,36.9654373 C34.4117333,37.1153649 34.3329778,37.1934485 34.1829333,37.1934485 C34.1041778,37.1934485 34.0268444,37.1934485 33.9495111,37.1934485 L33.3363556,37.1153649 Z M47.7157333,49.8486908 L47.5608889,49.8486908 C47.3320889,49.8486908 47.1799111,49.6960891 47.0252444,49.464156 C46.7991111,49.0806908 46.4908444,48.1615153 46.0332444,46.7066295 C45.8030222,46.0127911 45.6496,45.4769025 45.5742222,45.0936156 C45.4195556,44.4782173 45.3454222,43.9437549 45.3454222,43.4806017 C45.3454222,43.2525905 45.3454222,43.1782507 45.2698667,43.1782507 C45.1893333,43.0960669 45.1152,43.0960669 45.0384,43.0960669 C44.8851556,43.0960669 44.6576,43.1782507 44.5027556,43.1782507 C44.3507556,43.1782507 44.1219556,43.1782507 43.8903111,43.1782507 L42.9751111,43.1782507 C42.8968889,43.1782507 42.8202667,43.1782507 42.7475556,43.1782507 C42.6709333,43.1782507 42.5914667,43.2525905 42.5914667,43.3294262 C42.5914667,43.4050139 42.6709333,43.4806017 42.6709333,43.6344513 C42.7475556,43.7114652 42.8202667,43.7909749 42.8202667,43.8653148 C42.8202667,43.9437549 42.8968889,44.0974262 42.8968889,44.2473538 C42.8968889,44.7103287 42.6709333,45.6295042 42.2090667,46.9346407 C41.8256,48.2385292 41.4458667,49.0806908 41.2199111,49.464156 C41.1365333,49.6153315 40.9845333,49.6960891 40.9063111,49.7691811 C40.7568,49.7691811 40.6055111,49.8486908 40.2965333,49.8486908 L39.9904,49.8486908 C39.9136,49.8486908 39.8401778,49.8486908 39.6862222,49.9244568 C39.6062222,49.9998663 39.6062222,50.0768802 39.6062222,50.152468 C39.6062222,50.3063175 39.6062222,50.4603454 39.6862222,50.6154429 C39.7640889,50.7678663 39.9136,50.9217159 39.9904,51.1511532 C40.4512,51.6898942 40.8309333,52.456468 41.2199111,53.2973816 L41.9790222,53.2217939 C41.9036444,52.9112423 41.7502222,52.6088914 41.6736,52.375532 C41.5960889,52.070507 41.5960889,51.8396435 41.5960889,51.6102061 C41.5960889,51.225493 41.7502222,50.9217159 41.9790222,50.6883565 C42.2832,50.538429 42.6709333,50.3860056 43.2024889,50.3860056 L44.3507556,50.3860056 C44.9644444,50.3860056 45.4195556,50.538429 45.7262222,50.6883565 C45.9576889,50.9217159 46.1086222,51.225493 46.1086222,51.6102061 C46.1086222,51.7640557 46.1086222,51.9961671 46.0332444,52.375532 C45.9576889,52.6859053 45.8030222,52.9923565 45.7262222,53.2217939 L46.4908444,53.2973816 C46.7182222,52.7641671 47.0252444,52.3024401 47.2552889,51.8396435 C47.4115556,51.5360446 47.5608889,51.302507 47.7925333,51.0757437 C47.8691556,50.9217159 47.9472,50.7678663 48.0225778,50.6154429 C48.0952889,50.4603454 48.1733333,50.3063175 48.1733333,50.152468 C48.1733333,50.0768802 48.0952889,49.9998663 48.0225778,49.9244568 C47.9472,49.8486908 47.8691556,49.8486908 47.7157333,49.8486908 Z M43.5080889,49.9244568 L41.7502222,49.9244568 C41.8256,49.6960891 41.9790222,49.3885682 42.0544,49.0806908 C42.2090667,48.7717437 42.3614222,48.3153649 42.5914667,47.6985404 C42.8202667,46.8576267 42.9751111,46.4716657 42.9751111,46.396078 C43.2024889,45.7833538 43.2792889,45.1692033 43.4366222,44.5552312 L43.6600889,44.5552312 L43.7397333,45.2474652 C43.8163556,45.7833538 43.9710222,46.3219164 44.1219556,46.8576267 C44.2766222,47.4705292 44.5027556,48.0834318 44.7317333,48.6974039 C44.8083556,49.0026072 44.8851556,49.2332925 44.9644444,49.3885682 C45.0384,49.5409916 45.1152,49.6960891 45.2698667,49.9244568 L43.5080889,49.9244568 Z M54.0620444,47.3179276 C53.6785778,47.0102284 53.2234667,46.778117 52.6837333,46.6269415 C52.4576,46.5486797 52.1480889,46.4716657 51.9219556,46.4716657 C51.6163556,46.396078 51.3080889,46.396078 50.9258667,46.396078 C50.9258667,46.1666407 50.9258667,45.9384513 51.0012444,45.7063398 C51.0012444,45.4769025 51.0012444,45.1692033 51.0012444,44.939766 C51.0012444,44.4026295 51.0012444,44.0179164 51.1573333,43.7114652 C51.1573333,43.5590418 51.2314667,43.4806017 51.2314667,43.4050139 C51.2314667,43.2525905 51.1573333,43.1782507 51.0012444,43.1782507 L50.8478222,43.1782507 C50.7765333,43.1782507 50.6997333,43.1782507 50.6204444,43.1782507 C50.5463111,43.1782507 50.4657778,43.1782507 50.3889778,43.1782507 L49.6284444,43.1782507 C49.3955556,43.1782507 49.1667556,43.4050139 49.0913778,43.8653148 C49.0172444,44.4026295 49.0172444,45.6295042 49.0172444,47.7784067 L49.0172444,49.8486908 C49.0172444,49.9998663 49.0913778,50.152468 49.1667556,50.3063175 C49.2446222,50.3860056 49.3955556,50.4603454 49.5516444,50.4603454 L54.4455111,50.4603454 C54.7550222,50.4603454 54.9031111,50.3860056 54.9827556,50.3860056 C55.2101333,50.3063175 55.2869333,50.0768802 55.2869333,49.7691811 C55.2869333,49.3885682 55.2869333,49.0026072 55.1347556,48.6191421 C54.9031111,48.1615153 54.5991111,47.6985404 54.0620444,47.3179276 Z M52.9959111,49.9244568 L50.9258667,49.9244568 C50.9258667,49.8486908 50.9258667,49.6153315 50.9258667,49.1550306 C50.9258667,48.6974039 50.9258667,48.3153649 50.9258667,47.9269081 L50.9258667,47.6985404 C50.9258667,47.6231309 50.9258667,47.4705292 50.9258667,47.3935153 C50.9258667,47.3179276 50.9258667,47.1615822 50.9258667,47.0872423 C51.3080889,47.1615822 51.6163556,47.2396657 51.9219556,47.3935153 C52.2261333,47.6231309 52.4576,47.8564903 52.6837333,48.1615153 C52.9166222,48.4667187 52.9959111,48.9282674 52.9959111,49.3885682 L52.9959111,49.9244568 Z M36.0896,42.639688 C35.6327111,42.639688 35.0976,43.0960669 34.4117333,43.9437549 C33.7207111,44.939766 33.3363556,46.0883788 33.3363556,47.2396657 C33.3363556,48.0834318 33.6426667,48.8526797 34.4117333,49.6960891 C35.0195556,50.4603454 35.5539556,50.8448802 36.0896,50.9217159 L36.1690667,50.9217159 C36.7054222,50.9217159 37.3152,50.3860056 38.0003556,49.3101281 C38.6120889,48.3153649 38.9943111,47.3179276 38.9943111,46.3219164 C38.9943111,45.1692033 38.6120889,44.2473538 37.7703111,43.4806017 C37.1603556,42.9434652 36.6280889,42.639688 36.0896,42.639688 Z M37.6200889,48.4667187 C37.6200889,48.6191421 37.5466667,48.8526797 37.4664889,49.0026072 C37.3898667,49.0026072 37.2384,49.0026072 37.1603556,49.0026072 C36.7788444,49.0026072 36.3978667,48.9282674 36.0896,48.7717437 C35.7080889,48.5448022 35.3278222,48.1615153 35.0976,47.6985404 C34.6380444,47.0102284 34.4117333,46.3219164 34.4117333,45.6295042 C34.4117333,45.1692033 34.56,44.7871643 34.9415111,44.4026295 C35.3278222,44.4026295 35.7080889,44.5552312 36.0896,44.7103287 C36.3978667,44.939766 36.7054222,45.2474652 36.9335111,45.5539164 C37.4664889,46.2422284 37.6967111,47.0102284 37.6967111,47.8564903 C37.6967111,48.0834318 37.6967111,48.2385292 37.6200889,48.4667187 Z M57.8860444,44.7871643 C57.808,45.2474652 57.808,45.7063398 57.808,46.1666407 C57.808,47.0102284 57.808,47.7784067 57.8860444,48.3897047 C57.9639111,49.0026072 57.9639111,49.5409916 58.0380444,49.9998663 C58.0380444,49.9998663 58.0380444,50.0768802 58.0380444,50.152468 C58.0380444,50.2294819 58.0380444,50.3063175 57.8860444,50.3860056 C57.808,50.3860056 57.5804444,50.4603454 57.2748444,50.4603454 L56.5091556,50.4603454 C56.3582222,50.4603454 56.2049778,50.3860056 56.1281778,50.2294819 C56.0526222,50.0768802 55.9747556,49.7691811 55.9747556,49.2332925 C55.9747556,48.7717437 55.9747556,48.3897047 55.9747556,48.1615153 C55.9747556,47.0102284 55.8979556,46.3219164 55.8979556,46.2422284 C55.8979556,44.8668524 55.9747556,44.0179164 56.0526222,43.6344513 C56.1281778,43.3294262 56.2816,43.1782507 56.5091556,43.1782507 L57.8860444,43.1782507 C57.9639111,43.1782507 58.0380444,43.2525905 58.0380444,43.4050139 C58.0380444,43.8653148 57.9639111,44.3282897 57.8860444,44.7871643 Z M28.0615111,43.5590418 C28.2936889,43.7114652 28.4437333,43.7909749 28.672,43.8653148 C28.8266667,43.9437549 29.1301333,44.0179164 29.3630222,44.0179164 C29.9706667,44.0179164 30.5091556,43.8653148 30.9667556,43.5590418 C31.5011556,43.1782507 31.7345778,42.5614262 31.7345778,41.7948524 C31.7345778,41.1051142 31.5011556,40.5665515 30.8906667,40.0308412 C30.3550222,39.5717883 29.5157333,39.2655153 28.5191111,39.2655153 C28.3669333,39.2655153 28.2154667,39.3409248 28.0615111,39.3409248 C26.6832,39.4179387 25.6919111,39.8782396 25.1553778,40.797415 C24.6190222,41.5639889 24.3902222,42.9434652 24.3902222,44.7871643 L24.3902222,49.7691811 L23.0947556,49.7691811 L23.0947556,50.3860056 L30.5857778,50.3860056 C31.1216,50.3860056 31.5011556,50.3063175 31.656,50.152468 C31.7345778,50.0768802 31.7345778,49.8486908 31.7345778,49.5409916 L31.7345778,46.396078 C31.7345778,46.0883788 31.7345778,45.9384513 31.5792,45.7833538 C31.4264889,45.6295042 31.1216,45.5539164 30.6618667,45.5539164 L30.5091556,45.5539164 C29.8993778,45.5539164 29.3630222,45.4769025 28.8266667,45.3216267 C28.5985778,45.2474652 28.2936889,45.0936156 28.0615111,44.939766 C27.8305778,44.7871643 27.5232,44.5552312 27.2195556,44.4026295 L27.9066667,43.4806017 C27.9866667,43.5590418 27.9866667,43.5590418 28.0615111,43.5590418 Z M27.6017778,45.4000669 C27.7559111,45.4769025 27.9066667,45.5539164 28.0615111,45.7063398 C28.2154667,45.7833538 28.4437333,45.9384513 28.672,46.0127911 C28.9786667,46.2422284 29.2096,46.3219164 29.2842667,46.4716657 C29.3630222,46.5486797 29.3630222,46.7066295 29.3630222,46.9346407 L29.3630222,48.6974039 C29.3630222,49.1550306 29.2842667,49.3885682 29.2096,49.5409916 C29.1301333,49.6960891 28.9027556,49.7691811 28.672,49.7691811 L26.7585778,49.7691811 L26.7585778,44.6306407 C26.9880889,44.939766 27.2929778,45.1692033 27.6017778,45.4000669 Z M26.7585778,44.0974262 C26.7585778,43.9437549 26.7585778,43.7909749 26.7585778,43.7114652 C26.7585778,43.5590418 26.7585778,43.3294262 26.7585778,43.1782507 C26.7585778,42.2524791 26.8366222,41.489649 26.9880889,41.0295265 C27.1434667,40.3397883 27.5232,39.9538273 28.0615111,39.9538273 L28.1388444,39.9538273 C28.5191111,39.9538273 28.7518222,40.1076769 28.9786667,40.3397883 C29.2096,40.5665515 29.3630222,41.0295265 29.3630222,41.5639889 C29.3630222,42.1025515 29.2096,42.5614262 28.9786667,42.8678774 C28.8266667,43.0204791 28.5985778,43.1782507 28.3669333,43.1782507 C28.2936889,43.1782507 28.2154667,43.0960669 28.0615111,43.0960669 C27.9066667,43.0204791 27.8305778,42.9434652 27.6792889,42.8678774 L26.7585778,44.0974262 L26.7585778,44.0974262 Z" id="Fill-19" fill="#FFFFFE"></path>
                            </g>
                        </g>
                    </g>
                </g>
            </g>
        </g>
    </g>
</svg>