<?xml version="1.0" encoding="UTF-8"?>
<svg width="64px" height="64px" viewBox="0 0 64 64" version="1.1" xmlns="http://www.w3.org/2000/svg" xmlns:xlink="http://www.w3.org/1999/xlink">
    <!-- Generator: Sketch 53.2 (72643) - https://sketchapp.com -->
    <title>vk_logo</title>
    <desc>Created with Sketch.</desc>
    <g id="Заказчик" stroke="none" stroke-width="1" fill="none" fill-rule="evenodd">
        <g id="covid_desktop-1360" transform="translate(-766.000000, -2008.000000)">
            <g id="about" transform="translate(0.000000, 1628.000000)">
                <g id="partners" transform="translate(216.000000, 372.000000)">
                    <g id="3" transform="translate(472.000000, 8.000000)">
                        <g id="partner-logo">
                            <g id="vk_logo" transform="translate(78.000000, 0.000000)">
                                <path d="M22.3776224,0.402797203 L41.8461538,0.402797203 C59.613986,0.402797203 63.820979,4.60979021 63.820979,22.3776224 L63.820979,41.8461538 C63.820979,59.613986 59.613986,63.820979 41.8461538,63.820979 L22.3776224,63.820979 C4.60979021,63.820979 0.402797203,59.613986 0.402797203,41.8461538 L0.402797203,22.3776224 C0.402797203,4.60979021 4.60979021,0.402797203 22.3776224,0.402797203" id="Path" fill="#4680C2"></path>
                                <path d="M52.3188811,22.2433566 C52.6321678,21.2587413 52.3188811,20.5426573 50.9314685,20.5426573 L46.3216783,20.5426573 C45.158042,20.5426573 44.620979,21.1692308 44.3076923,21.8405594 C44.3076923,21.8405594 41.9356643,27.5692308 38.6237762,31.2839161 C37.5496503,32.358042 37.0573427,32.7160839 36.4755245,32.7160839 C36.1622378,32.7160839 35.7594406,32.358042 35.7594406,31.3734266 L35.7594406,22.1986014 C35.7594406,21.034965 35.4013986,20.4979021 34.4167832,20.4979021 L27.1664336,20.4979021 C26.4503497,20.4979021 26.0027972,21.034965 26.0027972,21.572028 C26.0027972,22.6909091 27.6587413,22.9594406 27.8377622,26.0923077 L27.8377622,32.8951049 C27.8377622,34.372028 27.5692308,34.6405594 26.9874126,34.6405594 C25.420979,34.6405594 21.6167832,28.8671329 19.3342657,22.2881119 C18.8867133,20.9902098 18.4391608,20.4979021 17.2755245,20.4979021 L12.620979,20.4979021 C11.2783217,20.4979021 11.0545455,21.1244755 11.0545455,21.7958042 C11.0545455,23.0041958 12.620979,29.0909091 18.3496503,37.1468531 C22.1538462,42.6517483 27.5692308,45.6055944 32.4475524,45.6055944 C35.4013986,45.6055944 35.7594406,44.9342657 35.7594406,43.8153846 L35.7594406,39.6531469 C35.7594406,38.3104895 36.027972,38.0867133 36.9678322,38.0867133 C37.6391608,38.0867133 38.8475524,38.4447552 41.5776224,41.0853147 C44.7104895,44.2181818 45.2475524,45.6503497 46.993007,45.6503497 L51.6027972,45.6503497 C52.9454545,45.6503497 53.572028,44.979021 53.213986,43.6811189 C52.8111888,42.3832168 51.2895105,40.5034965 49.3202797,38.2657343 C48.2461538,37.0125874 46.634965,35.6251748 46.1426573,34.9538462 C45.4713287,34.0587413 45.6503497,33.7006993 46.1426573,32.8951049 C46.0979021,32.8951049 51.7370629,24.9286713 52.3188811,22.2433566" id="Path" fill="#FFFFFF"></path>
                            </g>
                        </g>
                    </g>
                </g>
            </g>
        </g>
    </g>
</svg>